<svg xmlns="http://www.w3.org/2000/svg" width="804.887" height="838.564" viewBox="0 0 804.887 838.564">
  <g id="imagem_comércio" data-name="imagem comércio" transform="translate(73.122 -2824.151)" opacity="0.35">
    <g id="Grupo_7" data-name="Grupo 7" transform="translate(-72.685 2824.64)">
      <path id="Caminho_296" data-name="Caminho 296" d="M570.075,580.608l445.761-5.411,39.376,26.151-1.2,233.852-39.376-4.208-444.559,1.8" transform="translate(-570.075 -149.576)" fill="none" stroke="#202f41" stroke-linecap="round" stroke-linejoin="round" stroke-width="0.709"/>
      <path id="Caminho_297" data-name="Caminho 297" d="M757.352,780.67s.3-11.722.9-28.553c.9-38.474,2.7-102.2,3.308-111.817a230.692,230.692,0,0,1,2.7-23.744l91.375,2.1s52,1.8,55.908,4.209,8.417,9.317,12.926,30.66c4.208,21.04,6.613,36.67,8.717,49.3,2.4,12.622,4.509,33.065,4.509,33.065s5.409,0,5.709,3.9v20.74s.6,12.025-3.6,14.13a11.38,11.38,0,0,1-7.817,1.5s-.6,3.308.6,5.112c1.2,1.5,4.209,2.7,4.509,10.818,0,7.817-.3,18.338-1.2,19.839a7.719,7.719,0,0,1-1.5,2.4s2.708,2.4,2.708,8.117a27.121,27.121,0,0,1-3.908,14.126c-1.8,3.308-9.618,8.117-11.422,8.417-2.1.3-12.626,4.208-12.926,4.208-.6.3-39.978.3-39.978.3s0-32.461-6.31-51.4c-6.313-19.236-25.852-26.149-30.361-26.752-4.809-.9-26.752-2.1-36.07.6-9.618,3-22.243,14.127-28.253,28.553-6.013,14.127-10.521,41.179-10.521,41.179l-5.713.3s4.809-23.748,7.817-32.165c3-8.717,7.814-18.635,9.018-21.34a55.041,55.041,0,0,1,4.809-7.213Z" transform="translate(-139.357 -51.462)" fill="none" stroke="#202f41" stroke-linecap="round" stroke-linejoin="round" stroke-width="0.709"/>
      <path id="Caminho_298" data-name="Caminho 298" d="M763.537,747.268l-14.126-.9.9-60.114c.3-9.017,3.608-52.6,3.908-56.209.6-3.308,1.8-8.117,5.409-9.921,3.308-1.8,8.718-1.5,8.718-1.5" transform="translate(-144.642 -46.613)" fill="none" stroke="#202f41" stroke-linecap="round" stroke-linejoin="round" stroke-width="0.709"/>
      <path id="Caminho_299" data-name="Caminho 299" d="M804.378,668.609c27.052,0,48.992,21.643,48.992,48.4a48.995,48.995,0,0,1-97.988,0c0-26.752,21.943-48.4,49-48.4Z" transform="translate(-130.475 72.021)" fill="none" stroke="#202f41" stroke-linecap="round" stroke-linejoin="round" stroke-width="0.709"/>
      <line id="Linha_321" data-name="Linha 321" y1="255.794" x2="1.202" transform="translate(444.559 425.622)" fill="none" stroke="#202f41" stroke-linecap="round" stroke-linejoin="round" stroke-width="0.709"/>
      <path id="Caminho_300" data-name="Caminho 300" d="M718.365,667.54c27.052,0,49,21.64,49,48.392a49,49,0,0,1-97.991,0c0-26.752,21.943-48.392,49-48.392Z" transform="translate(-334.522 69.484)" fill="none" stroke="#202f41" stroke-linecap="round" stroke-linejoin="round" stroke-width="0.709"/>
      <path id="Caminho_301" data-name="Caminho 301" d="M680.929,667.362a48.546,48.546,0,1,1-49,48.392c0-26.752,21.943-48.392,49-48.392Z" transform="translate(-423.33 69.062)" fill="none" stroke="#202f41" stroke-linecap="round" stroke-linejoin="round" stroke-width="0.709"/>
      <path id="Caminho_302" data-name="Caminho 302" d="M570.075,666.469l445.761-2.1.3-13.226" transform="translate(-570.075 30.578)" fill="none" stroke="#202f41" stroke-linecap="round" stroke-linejoin="round" stroke-width="0.709"/>
      <path id="Caminho_303" data-name="Caminho 303" d="M740.433,652.3l13.526,2.4v9.919l-51.7-3.006" transform="translate(-256.498 33.326)" fill="none" stroke="#202f41" stroke-linecap="round" stroke-linejoin="round" stroke-width="0.709"/>
      <path id="Caminho_304" data-name="Caminho 304" d="M586.029,448.985l681.417,428.628v139.169" transform="translate(-532.226 -448.985)" fill="none" stroke="#202f41" stroke-linecap="round" stroke-linejoin="round" stroke-width="0.709"/>
      <line id="Linha_322" data-name="Linha 322" x2="128.649" y2="33.665" transform="translate(484.837 540.744)" fill="none" stroke="#202f41" stroke-linecap="round" stroke-linejoin="round" stroke-width="0.709"/>
      <line id="Linha_323" data-name="Linha 323" x2="80.856" y2="22.544" transform="translate(0 407.588)" fill="none" stroke="#202f41" stroke-linecap="round" stroke-linejoin="round" stroke-width="0.709"/>
      <line id="Linha_324" data-name="Linha 324" x2="2.405" y2="179.747" transform="translate(668.191 386.246)" fill="none" stroke="#202f41" stroke-linecap="round" stroke-linejoin="round" stroke-width="0.709"/>
      <line id="Linha_325" data-name="Linha 325" x1="0.301" y2="234.153" transform="translate(581.925 332.141)" fill="none" stroke="#202f41" stroke-linecap="round" stroke-linejoin="round" stroke-width="0.709"/>
      <line id="Linha_326" data-name="Linha 326" x2="1.503" y2="181.25" transform="translate(461.091 255.493)" fill="none" stroke="#202f41" stroke-linecap="round" stroke-linejoin="round" stroke-width="0.709"/>
      <line id="Linha_327" data-name="Linha 327" x1="0.3" y2="281.344" transform="translate(287.355 146.082)" fill="none" stroke="#202f41" stroke-linecap="round" stroke-linejoin="round" stroke-width="0.709"/>
      <path id="Caminho_305" data-name="Caminho 305" d="M573.438,448.985c0,306.892-.6,431.032-.6,431.032" transform="translate(-563.519 -448.985)" fill="none" stroke="#202f41" stroke-linecap="round" stroke-linejoin="round" stroke-width="0.709"/>
      <path id="Caminho_306" data-name="Caminho 306" d="M584.759,489.986,797.27,596.693V636.67L584.158,536.276l.6-41.48Z" transform="translate(-536.666 -351.72)" fill="none" stroke="#202f41" stroke-linecap="round" stroke-linejoin="round" stroke-width="0.709"/>
      <path id="Caminho_307" data-name="Caminho 307" d="M792.338,631.182l.3-35.168-208.3-104.6" transform="translate(-536.243 -348.337)" fill="none" stroke="#202f41" stroke-linecap="round" stroke-linejoin="round" stroke-width="0.709"/>
      <path id="Caminho_308" data-name="Caminho 308" d="M662.661,529.472,795.819,597.7l.3,32.162L662.06,565.842l.6-33.665Z" transform="translate(-351.861 -258.048)" fill="none" stroke="#202f41" stroke-linecap="round" stroke-linejoin="round" stroke-width="0.709"/>
      <path id="Caminho_309" data-name="Caminho 309" d="M792.991,626.761l-.3-29.457-130.452-67.03" transform="translate(-351.438 -256.145)" fill="none" stroke="#202f41" stroke-linecap="round" stroke-linejoin="round" stroke-width="0.709"/>
      <path id="Caminho_310" data-name="Caminho 310" d="M712.041,554.875l91.076,46.891.3,26.151L711.44,583.731l.3-27.052Z" transform="translate(-234.719 -197.786)" fill="none" stroke="#202f41" stroke-linecap="round" stroke-linejoin="round" stroke-width="0.709"/>
      <path id="Caminho_311" data-name="Caminho 311" d="M801.4,625.746l-.3-24.047-89.573-46.29" transform="translate(-234.507 -196.517)" fill="none" stroke="#202f41" stroke-linecap="round" stroke-linejoin="round" stroke-width="0.709"/>
      <line id="Linha_328" data-name="Linha 328" y2="41.48" transform="translate(70.636 154.198)" fill="none" stroke="#202f41" stroke-linecap="round" stroke-linejoin="round" stroke-width="0.709"/>
      <line id="Linha_329" data-name="Linha 329" y2="40.578" transform="translate(94.984 166.522)" fill="none" stroke="#202f41" stroke-linecap="round" stroke-linejoin="round" stroke-width="0.709"/>
      <line id="Linha_330" data-name="Linha 330" y2="39.977" transform="translate(117.227 177.643)" fill="none" stroke="#202f41" stroke-linecap="round" stroke-linejoin="round" stroke-width="0.709"/>
      <line id="Linha_331" data-name="Linha 331" y2="39.075" transform="translate(139.77 189.065)" fill="none" stroke="#202f41" stroke-linecap="round" stroke-linejoin="round" stroke-width="0.709"/>
      <line id="Linha_332" data-name="Linha 332" y2="38.474" transform="translate(161.412 199.886)" fill="none" stroke="#202f41" stroke-linecap="round" stroke-linejoin="round" stroke-width="0.709"/>
      <line id="Linha_333" data-name="Linha 333" y2="37.573" transform="translate(182.152 210.406)" fill="none" stroke="#202f41" stroke-linecap="round" stroke-linejoin="round" stroke-width="0.709"/>
      <line id="Linha_334" data-name="Linha 334" y2="37.272" transform="translate(202.291 220.326)" fill="none" stroke="#202f41" stroke-linecap="round" stroke-linejoin="round" stroke-width="0.709"/>
      <line id="Linha_335" data-name="Linha 335" y2="36.07" transform="translate(221.528 230.245)" fill="none" stroke="#202f41" stroke-linecap="round" stroke-linejoin="round" stroke-width="0.709"/>
      <line id="Linha_336" data-name="Linha 336" y2="36.37" transform="translate(239.864 239.262)" fill="none" stroke="#202f41" stroke-linecap="round" stroke-linejoin="round" stroke-width="0.709"/>
      <line id="Linha_337" data-name="Linha 337" y2="33.064" transform="translate(323.726 281.043)" fill="none" stroke="#202f41" stroke-linecap="round" stroke-linejoin="round" stroke-width="0.709"/>
      <line id="Linha_338" data-name="Linha 338" y2="32.763" transform="translate(338.454 288.256)" fill="none" stroke="#202f41" stroke-linecap="round" stroke-linejoin="round" stroke-width="0.709"/>
      <line id="Linha_339" data-name="Linha 339" y2="32.463" transform="translate(352.882 295.771)" fill="none" stroke="#202f41" stroke-linecap="round" stroke-linejoin="round" stroke-width="0.709"/>
      <line id="Linha_340" data-name="Linha 340" y2="31.561" transform="translate(366.709 302.985)" fill="none" stroke="#202f41" stroke-linecap="round" stroke-linejoin="round" stroke-width="0.709"/>
      <line id="Linha_341" data-name="Linha 341" y2="31.561" transform="translate(380.235 309.899)" fill="none" stroke="#202f41" stroke-linecap="round" stroke-linejoin="round" stroke-width="0.709"/>
      <line id="Linha_342" data-name="Linha 342" y2="30.659" transform="translate(393.46 316.812)" fill="none" stroke="#202f41" stroke-linecap="round" stroke-linejoin="round" stroke-width="0.709"/>
      <line id="Linha_343" data-name="Linha 343" y2="30.058" transform="translate(406.385 323.425)" fill="none" stroke="#202f41" stroke-linecap="round" stroke-linejoin="round" stroke-width="0.709"/>
      <line id="Linha_344" data-name="Linha 344" y2="30.058" transform="translate(418.108 329.135)" fill="none" stroke="#202f41" stroke-linecap="round" stroke-linejoin="round" stroke-width="0.709"/>
      <line id="Linha_345" data-name="Linha 345" y2="29.457" transform="translate(430.131 335.448)" fill="none" stroke="#202f41" stroke-linecap="round" stroke-linejoin="round" stroke-width="0.709"/>
      <line id="Linha_346" data-name="Linha 346" y2="27.052" transform="translate(485.438 363.101)" fill="none" stroke="#202f41" stroke-linecap="round" stroke-linejoin="round" stroke-width="0.709"/>
      <line id="Linha_347" data-name="Linha 347" y2="26.151" transform="translate(495.658 368.512)" fill="none" stroke="#202f41" stroke-linecap="round" stroke-linejoin="round" stroke-width="0.709"/>
      <line id="Linha_348" data-name="Linha 348" y2="25.85" transform="translate(505.277 373.622)" fill="none" stroke="#202f41" stroke-linecap="round" stroke-linejoin="round" stroke-width="0.709"/>
      <line id="Linha_349" data-name="Linha 349" y2="25.85" transform="translate(514.895 378.431)" fill="none" stroke="#202f41" stroke-linecap="round" stroke-linejoin="round" stroke-width="0.709"/>
      <line id="Linha_350" data-name="Linha 350" y2="25.549" transform="translate(524.213 383.24)" fill="none" stroke="#202f41" stroke-linecap="round" stroke-linejoin="round" stroke-width="0.709"/>
      <line id="Linha_351" data-name="Linha 351" y2="25.249" transform="translate(533.231 387.749)" fill="none" stroke="#202f41" stroke-linecap="round" stroke-linejoin="round" stroke-width="0.709"/>
      <line id="Linha_352" data-name="Linha 352" y2="24.648" transform="translate(541.948 392.257)" fill="none" stroke="#202f41" stroke-linecap="round" stroke-linejoin="round" stroke-width="0.709"/>
      <line id="Linha_353" data-name="Linha 353" y2="24.347" transform="translate(550.364 396.766)" fill="none" stroke="#202f41" stroke-linecap="round" stroke-linejoin="round" stroke-width="0.709"/>
      <line id="Linha_354" data-name="Linha 354" y2="24.046" transform="translate(558.179 400.674)" fill="none" stroke="#202f41" stroke-linecap="round" stroke-linejoin="round" stroke-width="0.709"/>
      <path id="Caminho_312" data-name="Caminho 312" d="M646.96,699.464l-17.434-.3V680.527l56.208-9.017,46.59.9V664l315.009-1.8" transform="translate(-429.039 56.797)" fill="none" stroke="#202f41" stroke-linecap="round" stroke-linejoin="round" stroke-width="0.709"/>
      <path id="Caminho_313" data-name="Caminho 313" d="M665.358,667.376l18.636-9.017,56.509.3-.3,8.717-13.526,5.11-36.671.3Z" transform="translate(-344.037 47.705)" fill="none" stroke="#202f41" stroke-linecap="round" stroke-linejoin="round" stroke-width="0.709"/>
      <line id="Linha_355" data-name="Linha 355" x2="314.708" transform="translate(303.286 729.209)" fill="none" stroke="#202f41" stroke-linecap="round" stroke-linejoin="round" stroke-width="0.709"/>
      <path id="Caminho_314" data-name="Caminho 314" d="M775.623,655.685l-23.145,14.729-64.926-1.2" transform="translate(-291.387 41.361)" fill="none" stroke="#202f41" stroke-linecap="round" stroke-linejoin="round" stroke-width="0.709"/>
      <path id="Caminho_315" data-name="Caminho 315" d="M570.075,683.508h17.433l111.816-13.226L791.6,659.161l109.111,1.8" transform="translate(-570.075 49.608)" fill="none" stroke="#202f41" stroke-linecap="round" stroke-linejoin="round" stroke-width="0.709"/>
      <path id="Caminho_316" data-name="Caminho 316" d="M615.247,662.37l.3,66.729-9.018,6.312,27.954,1.2-9.018-9.919" transform="translate(-483.593 57.22)" fill="none" stroke="#202f41" stroke-linecap="round" stroke-linejoin="round" stroke-width="0.709"/>
      <path id="Caminho_317" data-name="Caminho 317" d="M612.747,662.225l-.6,65.526,3.306-1.2V661.925" transform="translate(-470.271 56.162)" fill="none" stroke="#202f41" stroke-linecap="round" stroke-linejoin="round" stroke-width="0.709"/>
      <path id="Caminho_318" data-name="Caminho 318" d="M627.135,661.033v69.435l-9.018,6.312,27.954,1.2-8.717-10.22" transform="translate(-456.105 54.048)" fill="none" stroke="#202f41" stroke-linecap="round" stroke-linejoin="round" stroke-width="0.709"/>
      <path id="Caminho_319" data-name="Caminho 319" d="M624.122,660.8l-.3,68.232,3.306-1.2V660.5" transform="translate(-442.572 52.78)" fill="none" stroke="#202f41" stroke-linecap="round" stroke-linejoin="round" stroke-width="0.709"/>
      <path id="Caminho_320" data-name="Caminho 320" d="M760.062,623.508a18.339,18.339,0,0,0-6.613,12.322c-.6,7.817-2.7,38.778-2.7,38.778s-2.1,6.309-2.4,16.831c-.6,10.521-2.4,25.248-2.4,33.966s.3,28.556.3,28.556" transform="translate(-152.888 -34.971)" fill="none" stroke="#202f41" stroke-linecap="round" stroke-linejoin="round" stroke-width="0.709"/>
      <path id="Caminho_321" data-name="Caminho 321" d="M732.395,686.936c-12.325-29.757,25.548-47.792,43.883-27.653,3.608,3.905,6.313,6.61,6.313,6.61" transform="translate(-190.748 29.649)" fill="none" stroke="#202f41" stroke-linecap="round" stroke-linejoin="round" stroke-width="0.709"/>
      <path id="Caminho_322" data-name="Caminho 322" d="M735.559,677.96s-4.809-10.822-.3-17.735c7.214-11.422,26.452-6.013,28.553,3.308.9,4.509-.9,16.23-3.3,17.731" transform="translate(-182.79 36.821)" fill="none" stroke="#202f41" stroke-linecap="round" stroke-linejoin="round" stroke-width="0.709"/>
      <path id="Caminho_323" data-name="Caminho 323" d="M702.259,673.75l.6,39.678c5.109,9.318,26.449,7.813,27.653,0l-.6-41.782c-7.817-6.61-21.943-5.409-27.656,2.1Z" transform="translate(-256.499 68.984)" fill="none" stroke="#202f41" stroke-linecap="round" stroke-linejoin="round" stroke-width="0.709"/>
      <line id="Linha_356" data-name="Linha 356" x2="27.654" transform="translate(446.062 747.244)" fill="none" stroke="#202f41" stroke-linecap="round" stroke-linejoin="round" stroke-width="0.709"/>
      <line id="Linha_357" data-name="Linha 357" x2="27.654" transform="translate(446.062 761.371)" fill="none" stroke="#202f41" stroke-linecap="round" stroke-linejoin="round" stroke-width="0.709"/>
      <line id="Linha_358" data-name="Linha 358" x2="27.654" transform="translate(446.363 782.411)" fill="none" stroke="#202f41" stroke-linecap="round" stroke-linejoin="round" stroke-width="0.709"/>
      <rect id="Retângulo_14" data-name="Retângulo 14" width="116.325" height="4.509" transform="translate(473.415 736.423)" fill="none" stroke="#202f41" stroke-linecap="round" stroke-linejoin="round" stroke-width="0.709"/>
      <path id="Caminho_324" data-name="Caminho 324" d="M786.87,675.562a25.248,25.248,0,1,1-25.248,25.248,25.466,25.466,0,0,1,25.248-25.248Z" transform="translate(-115.674 88.515)" fill="none" stroke="#202f41" stroke-linecap="round" stroke-linejoin="round" stroke-width="0.709"/>
      <path id="Caminho_325" data-name="Caminho 325" d="M782.674,677.434a19.239,19.239,0,1,1-19.536,19.235,19.244,19.244,0,0,1,19.536-19.235Z" transform="translate(-112.078 92.955)" fill="none" stroke="#202f41" stroke-linecap="round" stroke-linejoin="round" stroke-width="0.709"/>
      <path id="Caminho_326" data-name="Caminho 326" d="M776.276,680.2A10.717,10.717,0,0,1,787.1,690.715a10.826,10.826,0,0,1-21.643,0A10.714,10.714,0,0,1,776.276,680.2Z" transform="translate(-106.581 99.51)" fill="none" stroke="#202f41" stroke-linecap="round" stroke-linejoin="round" stroke-width="0.709"/>
      <path id="Caminho_327" data-name="Caminho 327" d="M703.439,673.334a27.5,27.5,0,1,1-27.652,27.652,27.578,27.578,0,0,1,27.652-27.652Z" transform="translate(-319.297 83.229)" fill="none" stroke="#202f41" stroke-linecap="round" stroke-linejoin="round" stroke-width="0.709"/>
      <path id="Caminho_328" data-name="Caminho 328" d="M698.823,675.384a21.04,21.04,0,0,1,0,42.079,21.042,21.042,0,1,1,0-42.079Z" transform="translate(-315.281 88.092)" fill="none" stroke="#202f41" stroke-linecap="round" stroke-linejoin="round" stroke-width="0.709"/>
      <path id="Caminho_329" data-name="Caminho 329" d="M691.7,678.414a11.676,11.676,0,0,1,11.722,11.422,11.722,11.722,0,0,1-23.444,0A11.676,11.676,0,0,1,691.7,678.414Z" transform="translate(-309.36 95.281)" fill="none" stroke="#202f41" stroke-linecap="round" stroke-linejoin="round" stroke-width="0.709"/>
      <path id="Caminho_330" data-name="Caminho 330" d="M665.914,673.423c15.03,0,27.653,12.323,27.653,27.353a27.654,27.654,0,1,1-27.653-27.353Z" transform="translate(-408.316 83.44)" fill="none" stroke="#202f41" stroke-linecap="round" stroke-linejoin="round" stroke-width="0.709"/>
      <path id="Caminho_331" data-name="Caminho 331" d="M660.995,675.384a21.042,21.042,0,1,1,0,42.079,21.04,21.04,0,0,1,0-42.079Z" transform="translate(-404.3 88.092)" fill="none" stroke="#202f41" stroke-linecap="round" stroke-linejoin="round" stroke-width="0.709"/>
      <path id="Caminho_332" data-name="Caminho 332" d="M654.173,678.414a11.573,11.573,0,1,1,0,23.144,11.573,11.573,0,1,1,0-23.144Z" transform="translate(-398.379 95.281)" fill="none" stroke="#202f41" stroke-linecap="round" stroke-linejoin="round" stroke-width="0.709"/>
      <path id="Caminho_333" data-name="Caminho 333" d="M771.517,678.236a2.4,2.4,0,1,1-2.408,2.4,2.585,2.585,0,0,1,2.408-2.4Z" transform="translate(-97.913 94.858)" fill="none" stroke="#202f41" stroke-linecap="round" stroke-linejoin="round" stroke-width="0.709"/>
      <path id="Caminho_334" data-name="Caminho 334" d="M773.62,679.84a2.371,2.371,0,0,1,2.4,2.4,2.321,2.321,0,0,1-2.4,2.1,2.053,2.053,0,0,1-2.1-2.1,2.144,2.144,0,0,1,2.1-2.4Z" transform="translate(-92.203 98.663)" fill="none" stroke="#202f41" stroke-linecap="round" stroke-linejoin="round" stroke-width="0.709"/>
      <path id="Caminho_335" data-name="Caminho 335" d="M774.6,682.514a2.215,2.215,0,0,1,2.408,2.4,2.146,2.146,0,0,1-2.408,2.1,2.052,2.052,0,0,1-2.1-2.1,2.144,2.144,0,0,1,2.1-2.4Z" transform="translate(-89.876 105.007)" fill="none" stroke="#202f41" stroke-linecap="round" stroke-linejoin="round" stroke-width="0.709"/>
      <path id="Caminho_336" data-name="Caminho 336" d="M774.1,685.1a2.323,2.323,0,0,1,2.1,2.4,2.053,2.053,0,0,1-2.1,2.1,2.323,2.323,0,0,1-2.4-2.1,2.589,2.589,0,0,1,2.4-2.4Z" transform="translate(-91.781 111.139)" fill="none" stroke="#202f41" stroke-linecap="round" stroke-linejoin="round" stroke-width="0.709"/>
      <path id="Caminho_337" data-name="Caminho 337" d="M771.959,686.882a2.321,2.321,0,0,1,2.1,2.4,2.055,2.055,0,0,1-2.1,2.1,2.146,2.146,0,0,1-2.4-2.1,2.371,2.371,0,0,1,2.4-2.4Z" transform="translate(-96.855 115.369)" fill="none" stroke="#202f41" stroke-linecap="round" stroke-linejoin="round" stroke-width="0.709"/>
      <path id="Caminho_338" data-name="Caminho 338" d="M768.986,686.971a2.321,2.321,0,0,1,2.4,2.1,2.369,2.369,0,0,1-2.4,2.4,2.144,2.144,0,0,1-2.1-2.4,2.055,2.055,0,0,1,2.1-2.1Z" transform="translate(-103.199 115.58)" fill="none" stroke="#202f41" stroke-linecap="round" stroke-linejoin="round" stroke-width="0.709"/>
      <path id="Caminho_339" data-name="Caminho 339" d="M767.057,685.367a2.426,2.426,0,0,1,0,4.809,2.4,2.4,0,0,1,0-4.809Z" transform="translate(-108.484 111.775)" fill="none" stroke="#202f41" stroke-linecap="round" stroke-linejoin="round" stroke-width="0.709"/>
      <path id="Caminho_340" data-name="Caminho 340" d="M765.988,682.871a2.321,2.321,0,0,1,2.4,2.1,2.4,2.4,0,1,1-4.809,0,2.323,2.323,0,0,1,2.4-2.1Z" transform="translate(-111.022 105.854)" fill="none" stroke="#202f41" stroke-linecap="round" stroke-linejoin="round" stroke-width="0.709"/>
      <path id="Caminho_341" data-name="Caminho 341" d="M766.7,680.2a2.426,2.426,0,0,1,0,4.809,2.4,2.4,0,0,1,0-4.809Z" transform="translate(-109.331 99.51)" fill="none" stroke="#202f41" stroke-linecap="round" stroke-linejoin="round" stroke-width="0.709"/>
      <path id="Caminho_342" data-name="Caminho 342" d="M768.75,678.414a2.144,2.144,0,0,1,2.1,2.4,2.053,2.053,0,0,1-2.1,2.1,2.323,2.323,0,0,1-2.4-2.1,2.373,2.373,0,0,1,2.4-2.4Z" transform="translate(-104.468 95.281)" fill="none" stroke="#202f41" stroke-linecap="round" stroke-linejoin="round" stroke-width="0.709"/>
      <line id="Linha_359" data-name="Linha 359" x1="5.41" y2="152.395" transform="translate(682.018 566.595)" fill="none" stroke="#202f41" stroke-linecap="round" stroke-linejoin="round" stroke-width="0.709"/>
      <path id="Caminho_343" data-name="Caminho 343" d="M766.652,619.586h12.322a6.1,6.1,0,0,1,6.313,6.013l-2.1,52a6.1,6.1,0,0,1-6.009,6.313H764.548a6.353,6.353,0,0,1-6.313-6.313l2.1-52a6.506,6.506,0,0,1,6.313-6.013Z" transform="translate(-123.709 -44.275)" fill="none" stroke="#202f41" stroke-linecap="round" stroke-linejoin="round" stroke-width="0.709"/>
      <path id="Caminho_344" data-name="Caminho 344" d="M783.344,620.233l59.513,3.3c3.908.6,6.613.6,7.214,5.713l8.117,59.214c.3,4.509-1.8,6.313-5.713,6.313l-70.635-8.717c-3.908-.9-6.313-3.905-6.313-9.318l.6-50.2c.3-4.809,2.708-6.613,7.217-6.312Z" transform="translate(-82.688 -42.817)" fill="none" stroke="#202f41" stroke-linecap="round" stroke-linejoin="round" stroke-width="0.709"/>
      <path id="Caminho_345" data-name="Caminho 345" d="M773.665,651.8s2.4-.3,3.608.6c.9,1.2,5.109,11.422,5.109,11.422a3.246,3.246,0,0,1,.6,2.4c-.3,1.2-3.3,1.5-6.31,1.5a15.008,15.008,0,0,1-3.908-.3" transform="translate(-89.243 32.024)" fill="none" stroke="#202f41" stroke-linecap="round" stroke-linejoin="round" stroke-width="0.709"/>
      <path id="Caminho_346" data-name="Caminho 346" d="M753.6,657.468l67.031,2.7s9.318-2.7,20.139,5.109c10.822,7.517,10.521,11.422,18.335,12.026s69.135,1.8,69.135,1.8" transform="translate(-134.705 45.591)" fill="none" stroke="#202f41" stroke-linecap="round" stroke-linejoin="round" stroke-width="0.709"/>
      <path id="Caminho_347" data-name="Caminho 347" d="M774.368,617.714l79.656,4.509s7.213,14.73,8.414,24.948,9.018,55.909,8.117,91.078c-.6,35.166.3,35.166.3,35.166" transform="translate(-85.438 -48.716)" fill="none" stroke="#202f41" stroke-linecap="round" stroke-linejoin="round" stroke-width="0.709"/>
      <path id="Caminho_348" data-name="Caminho 348" d="M658.138,680.433l30.058-10.22,21.341,6.012" transform="translate(-361.164 75.828)" fill="none" stroke="#202f41" stroke-linecap="round" stroke-linejoin="round" stroke-width="0.709"/>
      <line id="Linha_360" data-name="Linha 360" x2="34.867" y2="0.601" transform="translate(303.286 767.683)" fill="none" stroke="#202f41" stroke-linecap="round" stroke-linejoin="round" stroke-width="0.709"/>
      <line id="Linha_361" data-name="Linha 361" x2="29.156" y2="0.301" transform="translate(305.991 785.117)" fill="none" stroke="#202f41" stroke-linecap="round" stroke-linejoin="round" stroke-width="0.709"/>
      <line id="Linha_362" data-name="Linha 362" x2="172.534" y2="0.301" transform="translate(426.224 761.371)" fill="none" stroke="#202f41" stroke-linecap="round" stroke-linejoin="round" stroke-width="0.709"/>
      <path id="Caminho_349" data-name="Caminho 349" d="M734.8,690.772v8.116l-.9,24.948,45.688.9.3-25.249.6-34.266" transform="translate(-181.434 63.986)" fill="none" stroke="#202f41" stroke-linecap="round" stroke-linejoin="round" stroke-width="0.709"/>
      <line id="Linha_363" data-name="Linha 363" x2="81.157" y2="0.601" transform="translate(471.611 786.019)" fill="none" stroke="#202f41" stroke-linecap="round" stroke-linejoin="round" stroke-width="0.709"/>
      <path id="Caminho_350" data-name="Caminho 350" d="M720.387,668.7l-.3,17.734,47.492,1.2V668.7" transform="translate(-214.208 72.233)" fill="none" stroke="#202f41" stroke-linecap="round" stroke-linejoin="round" stroke-width="0.709"/>
      <line id="Linha_364" data-name="Linha 364" x1="0.601" y2="18.035" transform="translate(516.699 740.931)" fill="none" stroke="#202f41" stroke-linecap="round" stroke-linejoin="round" stroke-width="0.709"/>
      <line id="Linha_365" data-name="Linha 365" x1="0.301" y2="18.335" transform="translate(530.225 740.931)" fill="none" stroke="#202f41" stroke-linecap="round" stroke-linejoin="round" stroke-width="0.709"/>
      <line id="Linha_366" data-name="Linha 366" x1="0.301" y2="18.636" transform="translate(542.248 740.931)" fill="none" stroke="#202f41" stroke-linecap="round" stroke-linejoin="round" stroke-width="0.709"/>
      <path id="Caminho_351" data-name="Caminho 351" d="M786.134,665.746l6.313,20.139s.6,1.2,4.809,1.5l2.1.3,28.553.3s3.608.3,3.908-1.2c0-1.2.3-6.913.3-6.913l.6-15.63" transform="translate(-57.526 61.661)" fill="none" stroke="#202f41" stroke-linecap="round" stroke-linejoin="round" stroke-width="0.709"/>
      <path id="Caminho_352" data-name="Caminho 352" d="M790.962,684.616s-2.708-8.117-2.4-9.621c0-1.5.3-2.4,3.6-2.4,3.308-.3,34.869.3,34.869.3" transform="translate(-51.832 81.266)" fill="none" stroke="#202f41" stroke-linecap="round" stroke-linejoin="round" stroke-width="0.709"/>
      <line id="Linha_367" data-name="Linha 367" x2="19.538" y2="1.202" transform="translate(775.499 761.671)" fill="none" stroke="#202f41" stroke-linecap="round" stroke-linejoin="round" stroke-width="0.709"/>
      <path id="Caminho_353" data-name="Caminho 353" d="M787.382,683.265l40.278,1.8,2.4-10.22" transform="translate(-54.566 86.823)" fill="none" stroke="#202f41" stroke-linecap="round" stroke-linejoin="round" stroke-width="0.709"/>
      <line id="Linha_368" data-name="Linha 368" x1="2.705" y2="32.162" transform="translate(779.707 762.272)" fill="none" stroke="#202f41" stroke-linecap="round" stroke-linejoin="round" stroke-width="0.709"/>
      <line id="Linha_369" data-name="Linha 369" y1="0.301" x2="29.156" transform="translate(741.533 786.019)" fill="none" stroke="#202f41" stroke-linecap="round" stroke-linejoin="round" stroke-width="0.709"/>
      <line id="Linha_370" data-name="Linha 370" x1="15.931" y1="0.301" transform="translate(432.837 784.816)" fill="none" stroke="#202f41" stroke-linecap="round" stroke-linejoin="round" stroke-width="0.709"/>
      <path id="Caminho_354" data-name="Caminho 354" d="M783.235,644.052l-16.532-1.2,16.231,19.538Z" transform="translate(-103.621 10.913)" fill="none" stroke="#202f41" stroke-linecap="round" stroke-linejoin="round" stroke-width="0.709"/>
    </g>
  </g>
</svg>
