<svg xmlns="http://www.w3.org/2000/svg" xmlns:xlink="http://www.w3.org/1999/xlink" width="1938" height="341" viewBox="0 0 1938 341">
  <defs>
    <filter id="Retângulo_36" x="0" y="261" width="1938" height="80" filterUnits="userSpaceOnUse">
      <feOffset dy="3" input="SourceAlpha"/>
      <feGaussianBlur stdDeviation="3" result="blur"/>
      <feFlood flood-opacity="0.161"/>
      <feComposite operator="in" in2="blur"/>
      <feComposite in="SourceGraphic"/>
    </filter>
  </defs>
  <g id="Header" transform="translate(9)">
    <g transform="matrix(1, 0, 0, 1, -9, 0)" filter="url(#Retângulo_36)">
      <rect id="Retângulo_36-2" data-name="Retângulo 36" width="1920" height="62" transform="translate(9 267)" fill="#202f41"/>
    </g>
    <rect id="Retângulo_35" data-name="Retângulo 35" width="1920" height="267.703" transform="translate(0 0.274)" fill="#202f41"/>
    <path id="Caminho_848" data-name="Caminho 848" d="M1920.656,448.361h-71.407c13.532,7.131,21.669,19.931,21.669,35.931v.366c0,21.12-10.971,32-30.537,46.171l-22.674,15.817H1872.2v29.806H1767.787v-27.52l49.371-37.669c12.252-9.692,17-15.909,17-23.772,0-8.32-5.851-13.44-14.719-13.44s-15.817,5.121-26.24,17.006l-24.686-20.571c7.68-9.874,15.268-17.371,24.686-22.125H48.2V716.338H1772.175a74.407,74.407,0,0,1-7.223-6.948l23.04-23.04c9.417,9.691,19.383,15.086,31.452,15.086,10.331,0,16.915-5.212,16.915-13.348v-.366c0-8.5-7.681-13.623-21.486-13.623h-15.451l-5.212-19.017,30.354-27.336H1774V598.12h95.36v26.241l-31.452,26.971c18.834,4.114,34.1,14.719,34.1,37.12v.366c0,10.971-3.566,20.3-9.784,27.52h43.794c-12.617-12.618-19.656-31.269-19.656-51.84v-.365c0-37.3,23.771-68.571,61.257-68.571a61.414,61.414,0,0,1,20.572,3.383V575.721a60.746,60.746,0,0,1-20.389,3.383c-37.669,0-60.892-30.9-60.892-68.3v-.366c0-27.062,12.526-51.017,33.738-62.079ZM1968.2,684.52V644.475c-4.114-10.149-11.611-16.548-20.938-16.548-14.537,0-24.137,14.719-24.137,35.84v.366c0,21.119,9.784,36.2,24.5,36.2,9.417,0,16.64-6.033,20.572-15.817Zm0-152.411V489.5c-4.206-9.417-11.429-15.268-20.389-15.268-14.537,0-24.137,14.72-24.137,35.84v.365c0,21.12,9.783,36.206,24.5,36.206,8.96,0,16-5.486,20.023-14.537Z" transform="translate(-48.199 -448.361)" fill="#3db2c3" fill-rule="evenodd"/>
    <rect id="Retângulo_37" data-name="Retângulo 37" width="262.217" height="267.977" transform="translate(790.125)" fill="#11a529"/>
    <path id="Caminho_930" data-name="Caminho 930" d="M835.862,501.683a1.765,1.765,0,0,0-.914.274,2.537,2.537,0,0,0-1.28,3.2,2.526,2.526,0,0,0,3.2,1.28,2.521,2.521,0,0,0,1.188-3.292,2.885,2.885,0,0,0-1.279-1.28,3.258,3.258,0,0,0-.915-.183Zm0,5.76a4.59,4.59,0,0,1-1.1-.183,3.765,3.765,0,0,1-1.829-1.738,3.219,3.219,0,0,1,1.645-4.3,2.917,2.917,0,0,1,2.469-.091,2.736,2.736,0,0,1,1.737,1.737,3.249,3.249,0,0,1-1.645,4.3,2.922,2.922,0,0,1-1.28.274Z" transform="translate(-27.998 -447.008)" fill="#fff"/>
    <path id="Caminho_931" data-name="Caminho 931" d="M852.126,486.241a.606.606,0,0,1-.458-.365l-.823-2.56a.384.384,0,0,1,.274-.549c.183-.091.366.091.457.275l.914,2.652a.349.349,0,0,1-.274.456l-.091.091Z" transform="translate(-27.531 -447.476)" fill="#fff"/>
    <path id="Caminho_932" data-name="Caminho 932" d="M853.995,491.944a.489.489,0,0,1-.365-.274l-.823-2.652c-.091-.184,0-.458.183-.458a.384.384,0,0,1,.549.274l.914,2.56a.553.553,0,0,1-.274.549Z" transform="translate(-27.48 -447.327)" fill="#fff"/>
    <path id="Caminho_933" data-name="Caminho 933" d="M848.626,489.226a.489.489,0,0,1-.365-.274.349.349,0,0,1,.274-.457l2.652-.914a.309.309,0,0,1,.457.274.44.44,0,0,1-.183.549l-2.652.823Z" transform="translate(-27.598 -447.352)" fill="#fff"/>
    <path id="Caminho_934" data-name="Caminho 934" d="M854.42,487.356a.407.407,0,0,1-.365-.274.383.383,0,0,1,.274-.549l2.56-.914a.444.444,0,0,1,.549.274.408.408,0,0,1-.275.549l-2.56.823c-.091.091-.091.091-.183.091Z" transform="translate(-27.449 -447.402)" fill="#fff"/>
    <path id="Caminho_903" data-name="Caminho 903" d="M923.43,528.845a.489.489,0,0,1-.365-.274l-.823-2.56a.407.407,0,0,1,.183-.549.384.384,0,0,1,.549.275l.914,2.559a.553.553,0,0,1-.274.549Z" transform="translate(-25.693 -446.376)" fill="#fff"/>
    <path id="Caminho_904" data-name="Caminho 904" d="M925.392,534.639c-.183,0-.274-.091-.365-.275l-.915-2.651c0-.184.092-.457.275-.457a.44.44,0,0,1,.549.183l.823,2.652a.44.44,0,0,1-.183.549Z" transform="translate(-25.645 -446.227)" fill="#fff"/>
    <path id="Caminho_905" data-name="Caminho 905" d="M920.022,531.921c-.183,0-.274-.091-.365-.275a.308.308,0,0,1,.274-.456l2.652-.915c.183-.091.366,0,.458.275a.308.308,0,0,1-.275.456l-2.559.915Z" transform="translate(-25.76 -446.252)" fill="#fff"/>
    <path id="Caminho_906" data-name="Caminho 906" d="M925.816,529.96c-.183,0-.366-.091-.366-.275a.333.333,0,0,1,.184-.456l2.652-.915a.444.444,0,0,1,.548.275c.091.183-.091.457-.274.549l-2.652.823Z" transform="translate(-25.609 -446.303)" fill="#fff"/>
    <path id="Caminho_850" data-name="Caminho 850" d="M818.489,544.155c16.641-5.212,33.554-9.875,50.835-12.892a21.061,21.061,0,0,1,14.446,2.56c9.234,5.486,20.023,12.617,31.268,20.48a9.7,9.7,0,0,0,9.691.823c7.589-3.565,16.915-6.857,26.788-10.149a19.249,19.249,0,0,1,5.578-.914c29.256-.366,77.165,10.605,123.611,20.663v8.229L962.489,587.583l-144-36.115Z" transform="translate(-28.363 -446.235)" fill="#11a529"/>
    <path id="Caminho_851" data-name="Caminho 851" d="M818.489,551.114l144,36.022L1080.707,572.6v.823L962.489,587.96v.091a.089.089,0,0,1-.091-.091L818.489,551.937ZM1080.707,565.1l-10.149-2.194c-41.692-9.051-84.846-18.469-112-18.469H957.1a18.741,18.741,0,0,0-5.486,1.006c-8.777,2.834-18.835,6.308-26.7,10.056a9.926,9.926,0,0,1-10.058-.823c-13.257-9.234-23.223-15.726-31.36-20.48a20.992,20.992,0,0,0-14.079-2.56,414.869,414.869,0,0,0-50.926,12.983v-.914a425.959,425.959,0,0,1,50.835-12.892,22.045,22.045,0,0,1,14.628,2.652c8.137,4.754,18.1,11.338,31.36,20.571a9.26,9.26,0,0,0,9.234.731c7.955-3.748,18.011-7.222,26.789-10.149a18.054,18.054,0,0,1,5.761-.914c27.154-.365,71.131,9.143,113.645,18.377l9.966,2.194Z" transform="translate(-28.363 -446.245)" fill="#fff"/>
    <path id="Caminho_852" data-name="Caminho 852" d="M1077.273,593.559c-21.394,3.292-43.977,7.5-67.017,13.349l-3.017-1.646-8.5-3.565c24.5-5.212,50.835-9.6,78.537-13.714v-7.589c-27.977,3.2-60.069,7.68-92.526,15.36L972.5,590.634c34.1-7.5,69.211-12.343,104.777-16.183v-5.76c-38.858,2.56-76.891,6.126-119.405,15.726l-3.109-1.28-2.925,3.292L1023.6,618.52l51.383,29.714,2.285,1.463v-6.766l-1.1.366-8.869-5.121-3.291-1.737c4.114-1.28,8.594-2.56,13.257-3.84v-6.857c-7.955,1.829-15.359,3.749-22.309,5.761l-8.868-4.938c9.783-2.834,20.114-5.668,31.177-8.5v-7.04c-14.172,3.017-27.795,6.217-41.234,10.056l-14.537-7.954c17.828-4.754,36.388-8.777,55.771-12.434Z" transform="translate(-24.93 -445.262)" fill="#fff"/>
    <path id="Caminho_853" data-name="Caminho 853" d="M818.489,549.795c82.469,15.268,155.611,28.251,262.217,91.794v16c-76.16-56.686-167.68-82.377-262.217-103.132Z" transform="translate(-28.363 -445.749)" fill="#11a529"/>
    <path id="Caminho_854" data-name="Caminho 854" d="M818.489,559.688c66.835,15.178,175.269,37.3,262.217,125.075v16.548c-62.9-78.9-150.948-104.96-262.217-134.766Z" transform="translate(-28.363 -445.494)" fill="#11a529"/>
    <path id="Caminho_855" data-name="Caminho 855" d="M818.489,572.88c73.966,19.657,160.549,38.675,240.641,140.252h-15.543c-54.675-75.795-129.28-105.966-225.1-134.766Z" transform="translate(-28.363 -445.155)" fill="#11a529"/>
    <path id="Caminho_874" data-name="Caminho 874" d="M818.489,587.765c72.138,24.229,123.795,38.949,198.674,124.983h-14.537c-49.463-62.9-95.451-86.217-184.137-118.765Z" transform="translate(-28.363 -444.771)" fill="#11a529"/>
    <path id="Caminho_907" data-name="Caminho 907" d="M818.489,602.383c67.292,22.4,94.812,37.121,163.566,109.989H967.518c-46.537-53.668-77.989-78.446-149.029-103.955Z" transform="translate(-28.363 -444.395)" fill="#11a529"/>
    <path id="Caminho_908" data-name="Caminho 908" d="M818.489,617.982c51.658,21.3,78.355,40.5,125.715,93.988H923.632c-36.937-45.988-49.463-60.709-105.143-85.943Z" transform="translate(-28.363 -443.993)" fill="#11a529"/>
    <path id="Caminho_935" data-name="Caminho 935" d="M818.489,649.026c30.72,21.394,43.063,32.092,63.818,62.354h19.108c-29.44-37.486-50.377-51.109-82.926-70.492Z" transform="translate(-28.363 -443.403)" fill="#11a529"/>
    <path id="Caminho_856" data-name="Caminho 856" d="M1080.707,642.055c-105.235-62.811-177.189-76.069-259.291-91.246l-2.926-.549v-.823l3.109.549c44.891,8.32,87.222,16.091,133.942,32.092,41.234,14.079,81.738,33.188,125.166,59.063Z" transform="translate(-28.363 -445.758)" fill="#fff"/>
    <path id="Caminho_857" data-name="Caminho 857" d="M1080.707,657.941c-75.611-56.228-166.765-82.194-262.217-103.223V553.9c45.257,9.965,94.721,22.125,141.166,39.314,46.812,17.28,86.675,38.309,121.052,63.726Z" transform="translate(-28.363 -445.643)" fill="#fff"/>
    <path id="Caminho_858" data-name="Caminho 858" d="M1080.707,685.414c-83.657-84.846-186.24-108.069-254.994-123.7l-7.223-1.645v-.823l7.406,1.737c35.657,8.046,80,18.1,126.994,38.035a425.406,425.406,0,0,1,70.858,38.125,380.283,380.283,0,0,1,56.96,47.086Z" transform="translate(-28.363 -445.506)" fill="#fff"/>
    <path id="Caminho_859" data-name="Caminho 859" d="M1080.707,701.788C1017.895,622.7,929.575,596.646,818.489,566.84v-.823c110.994,29.714,199.314,55.68,262.217,134.491Z" transform="translate(-28.363 -445.331)" fill="#fff"/>
    <path id="Caminho_860" data-name="Caminho 860" d="M1058.581,713.141C982.329,616.41,900.683,594.923,828.455,576c-3.383-.915-6.675-1.829-9.966-2.652v-.823c3.383.823,6.766,1.737,10.24,2.652,37.12,9.783,75.52,19.931,115.292,40.41,43.977,22.675,81.919,54.674,115.656,97.555Z" transform="translate(-28.363 -445.164)" fill="#fff"/>
    <path id="Caminho_861" data-name="Caminho 861" d="M1043.038,713.006C989.37,638.491,917.507,608.5,818.489,578.7v-.914c44.161,13.348,86.309,27.611,122.972,47.085,42.972,22.674,75.886,50.926,102.582,88.138Z" transform="translate(-28.363 -445.028)" fill="#fff"/>
    <path id="Caminho_875" data-name="Caminho 875" d="M1016.615,712.76C944.935,630.474,894.649,613.651,826.9,590.977l-8.412-2.834v-.823l8.595,2.925C895.2,612.92,945.667,629.834,1017.712,712.76Z" transform="translate(-28.363 -444.783)" fill="#fff"/>
    <path id="Caminho_876" data-name="Caminho 876" d="M1002.169,712.6c-48.091-61.349-92.251-84.663-183.68-118.309v-.823c44.161,16.091,79.36,30.538,109.44,49.554,27.795,17.463,51.2,39.04,75.155,69.578Z" transform="translate(-28.363 -444.624)" fill="#fff"/>
    <path id="Caminho_909" data-name="Caminho 909" d="M981.506,712.384c-68.571-72.5-96.365-87.315-163.017-109.532v-.914c33.372,11.154,57.052,20.388,80.823,35.748,23.223,15.086,46.72,35.931,83.292,74.7Z" transform="translate(-28.363 -444.406)" fill="#fff"/>
    <path id="Caminho_910" data-name="Caminho 910" d="M967.061,712.23c-45.166-52.206-76.342-77.44-148.572-103.5v-.823c38.857,13.9,64.823,27.154,88.138,44.526,20.48,15.177,38.217,33.005,61.44,59.794Z" transform="translate(-28.363 -444.253)" fill="#fff"/>
    <path id="Caminho_911" data-name="Caminho 911" d="M943.655,711.982c-46.08-52.114-73.143-71.954-125.166-93.532v-.914c26.606,10.971,47.086,21.578,67.109,36.755,18.743,14.354,37.3,32.914,59.155,57.691Z" transform="translate(-28.363 -444.005)" fill="#fff"/>
    <path id="Caminho_912" data-name="Caminho 912" d="M923.084,711.78c-36.937-46.08-49.371-60.434-104.595-85.486v-.914c25.966,11.794,41.6,20.754,54.948,31.36,17.1,13.439,30.08,29.256,50.744,55.04Z" transform="translate(-28.363 -443.803)" fill="#fff"/>
    <path id="Caminho_936" data-name="Caminho 936" d="M881.85,711.394c-20.48-29.9-32.732-40.594-63.36-61.9v-1.006c31.178,21.76,43.429,32.365,64.366,62.9Zm19.017,0c-29.166-37.12-50.1-50.834-82.378-70.034v-1.006c32.732,19.566,53.852,33.28,83.474,71.04Z" transform="translate(-28.363 -443.417)" fill="#fff"/>
    <path id="Caminho_913" data-name="Caminho 913" d="M912.1,700.431c-12.25-2.011-14.72-8.869-15.268-12.069a1.839,1.839,0,0,0-1.737-1.554c-6.766-.091-12.709-13.988-5.577-22.674,6.673-8.046,7.589-14.9,7.589-14.9,3.108-17.829,6.582-22.766,15.908-28.709,9.325-6.033,20.114,5.029,20.114,5.029s12.069-1.646,18.56,8.411c0,0,7.863.64,10.057,8.5,2.1,7.772-8.137,38.309-33.737,56.5-3.109,2.194-6.126,1.92-9.052-.275,0,0-3.839,2.286-6.857,1.738Z" transform="translate(-26.617 -443.974)" fill="#11a529"/>
    <path id="Caminho_914" data-name="Caminho 914" d="M918.97,698.338c.092,0,.184,0,.184.091,3.017,2.194,5.851,2.285,8.594.274A89.439,89.439,0,0,0,954.9,666.612c5.577-10.971,7.406-20.389,6.4-24.046-2.1-7.406-9.6-8.137-9.691-8.137s-.183-.091-.274-.184c-6.217-9.783-18.1-8.229-18.195-8.229a.549.549,0,0,1-.365-.091c-.091-.183-10.606-10.788-19.566-5.028-9.143,5.852-12.525,10.605-15.726,28.434,0,.275-1.005,7.041-7.68,15.086-4.206,5.212-3.474,11.886-1.554,16.092,1.645,3.657,4.3,5.851,6.857,5.943a2.09,2.09,0,0,1,2.1,1.828c.549,3.565,3.292,9.784,14.994,11.794,2.834.457,6.491-1.645,6.491-1.737Zm4.754,2.56a8.8,8.8,0,0,1-4.846-1.646c-.823.457-4.114,2.012-6.857,1.555-12.617-2.1-15.086-9.326-15.542-12.343a1.445,1.445,0,0,0-1.371-1.189c-2.926-.091-5.852-2.56-7.589-6.4-2.011-4.388-2.835-11.519,1.737-16.914,6.492-7.955,7.406-14.629,7.406-14.72,3.292-18.194,6.674-23.039,16.183-29.074,8.869-5.668,19.108,3.748,20.388,5.028,1.646-.183,12.618-.823,18.652,8.411,1.279.184,8.229,1.464,10.239,8.686,2.286,8.137-8.411,38.949-33.828,57.051a7.652,7.652,0,0,1-4.572,1.555Z" transform="translate(-26.627 -443.983)" fill="#fff"/>
    <path id="Caminho_915" data-name="Caminho 915" d="M918.151,698.731c-.183,0-.274-.091-.365-.274s-.091-.366.183-.549c6.857-3.749,15.361-13.9,22.126-26.515,6.765-12.434,10.148-24.137,8.96-30.354-.457-2.925-2.011-4.572-4.572-4.937a29.3,29.3,0,0,0-10.606.549c-.183.091-.365,0-.456-.275a.35.35,0,0,1,.274-.458,28.841,28.841,0,0,1,10.88-.639c2.925.365,4.754,2.285,5.3,5.577,1.28,6.491-2.194,18.285-9.051,30.9-6.949,12.983-15.361,23.039-22.492,26.88a.284.284,0,0,1-.184.091Z" transform="translate(-25.809 -443.554)" fill="#fff"/>
    <path id="Caminho_916" data-name="Caminho 916" d="M917.818,628.6s-2.652,1.737-.549,6.033c2.1,4.389,9.875,5.578,10.514,3.84.549-1.645-4.206-2.652-4.937-4.754-.731-2.194-1.919-6.675-5.028-5.12Z" transform="translate(-25.84 -443.728)" fill="#11a529"/>
    <path id="Caminho_917" data-name="Caminho 917" d="M918.1,628.882c-.274.183-2.285,1.829-.456,5.577,1.463,3.017,5.942,4.48,8.411,4.389.823-.092,1.28-.275,1.371-.458.183-.549-.914-1.189-2.011-1.829-1.189-.731-2.56-1.554-2.925-2.743-.091-.183-.091-.365-.183-.458-.457-1.645-1.28-4.022-2.651-4.571a1.875,1.875,0,0,0-1.555.091Zm7.681,10.789c-2.835,0-7.315-1.555-8.869-4.846-2.2-4.572.731-6.583.731-6.583h.091a2.287,2.287,0,0,1,2.285-.183c1.646.731,2.56,3.292,3.109,5.028,0,.183.091.274.091.458.365.914,1.554,1.645,2.652,2.285,1.371.823,2.743,1.645,2.285,2.834-.183.366-.64.915-2.012,1.006Z" transform="translate(-25.85 -443.74)" fill="#fff"/>
    <path id="Caminho_918" data-name="Caminho 918" d="M925.449,627.677s6.4.092,10.058-3.383c3.657-3.382,5.212-16.182,6.948-17,1.738-.731,6.126,2.559,6.126,2.559s-9.509,19.2-6.857,22.858l2.651,3.748-6.948,1.463a8.16,8.16,0,0,1-8.869-4.206Z" transform="translate(-25.609 -444.271)" fill="#fff"/>
    <path id="Caminho_937" data-name="Caminho 937" d="M870.961,632.412l-12.8-23.588a2.807,2.807,0,0,1,.183-2.925,3.493,3.493,0,0,1,3.748-1.464,2.054,2.054,0,0,1,1.738,1.464l8.046,26.6Z" transform="translate(-27.35 -444.344)" fill="#fff"/>
    <path id="Caminho_938" data-name="Caminho 938" d="M870.23,632.458l-5.212-26.331a3.018,3.018,0,0,1,1.005-2.834,4.087,4.087,0,0,1,4.114-.275,2.132,2.132,0,0,1,1.189,1.92l-.274,27.795Z" transform="translate(-27.166 -444.389)" fill="#fff"/>
    <path id="Caminho_939" data-name="Caminho 939" d="M871.613,632.187l.274-26.788a2.977,2.977,0,0,1,1.646-2.56,3.539,3.539,0,0,1,3.931.549,1.911,1.911,0,0,1,.824,2.1l-5.852,27.154Z" transform="translate(-26.996 -444.393)" fill="#fff"/>
    <path id="Caminho_940" data-name="Caminho 940" d="M862.058,627.456a24.911,24.911,0,0,1,14.994-4.572,9.735,9.735,0,0,1,9.052,9.051c2.468,28.984,6.308,65.1,5.942,79.909h-9.417c-5.577-14.812-15.268-50.194-23.131-76.435a7.359,7.359,0,0,1,2.559-7.954Z" transform="translate(-27.314 -443.868)" fill="#11a529"/>
    <path id="Caminho_941" data-name="Caminho 941" d="M862.067,627.466h0M891.6,711.854c.365-11.063-1.829-34.377-3.84-57.143-.731-7.588-1.463-15.451-2.011-22.765a9.4,9.4,0,0,0-8.686-8.594,24.075,24.075,0,0,0-14.719,4.388,7.06,7.06,0,0,0-2.469,7.589c2.469,8.046,5.121,17.188,7.589,25.966,5.577,19.109,11.7,40.138,15.634,50.56h-.914c-3.84-10.24-9.509-29.9-15.452-50.378-2.56-8.776-5.211-17.828-7.589-25.873a7.886,7.886,0,0,1,2.743-8.5,24.986,24.986,0,0,1,15.177-4.572,10.115,10.115,0,0,1,9.417,9.326c.64,7.315,1.371,15.177,2.1,22.765,2.1,23.68,4.206,46.263,3.84,57.235Z" transform="translate(-27.324 -443.877)" fill="#fff"/>
    <path id="Caminho_942" data-name="Caminho 942" d="M869.931,666.537a.474.474,0,0,1-.365-.183.345.345,0,0,1,.091-.549c1.554-1.28,3.84-1.828,7.222-1.92a.432.432,0,0,1,.457.458.394.394,0,0,1-.365.366c-3.2.091-5.394.64-6.857,1.737-.092,0-.092.091-.184.091Z" transform="translate(-27.051 -442.811)" fill="#fff"/>
    <path id="Caminho_943" data-name="Caminho 943" d="M849.465,626.854,834.014,605a2.8,2.8,0,0,1-.275-3.017,3.616,3.616,0,0,1,3.565-1.92,2.066,2.066,0,0,1,1.92,1.28l11.154,25.417Z" transform="translate(-27.979 -444.454)" fill="#fff"/>
    <path id="Caminho_944" data-name="Caminho 944" d="M848.739,626.921l-8.32-25.508a2.9,2.9,0,0,1,.731-2.927,3.54,3.54,0,0,1,3.932-.731,2.056,2.056,0,0,1,1.463,1.738l3.018,27.611Z" transform="translate(-27.801 -444.521)" fill="#fff"/>
    <path id="Caminho_945" data-name="Caminho 945" d="M850.117,626.487l-2.927-26.606a2.886,2.886,0,0,1,1.28-2.743c1.189-.823,2.469-.731,4.023.092a1.91,1.91,0,0,1,1.006,1.919l-2.56,27.7Z" transform="translate(-27.625 -444.545)" fill="#fff"/>
    <path id="Caminho_946" data-name="Caminho 946" d="M840.027,622.954a24.878,24.878,0,0,1,14.262-6.308,9.955,9.955,0,0,1,10.149,7.862c6.948,33.921,17.188,77.715,15.361,84.572a4.758,4.758,0,0,1-5.029,1.645c-4.206-2.1-22.583-47.817-36.3-79.451a7.42,7.42,0,0,1,1.555-8.32Z" transform="translate(-27.865 -444.028)" fill="#11a529"/>
    <path id="Caminho_947" data-name="Caminho 947" d="M874.962,710.277a4.02,4.02,0,0,0,4.481-1.371c1.371-5.577-4.754-34.194-10.7-61.9-1.554-7.5-3.2-15.177-4.753-22.4a9.288,9.288,0,0,0-9.6-7.5,24.938,24.938,0,0,0-14.079,6.126,7.115,7.115,0,0,0-1.463,7.863c3.292,7.68,7.04,16.366,10.605,24.868,10.515,24.686,22.4,52.663,25.508,54.308Zm1.28,1.006a8.928,8.928,0,0,1-1.554-.184H874.6c-3.292-1.645-14.263-27.52-25.875-54.857-3.566-8.411-7.314-17.1-10.7-24.868a7.869,7.869,0,0,1,1.737-8.686,25.391,25.391,0,0,1,14.537-6.4,10.1,10.1,0,0,1,10.515,8.229c1.463,7.132,3.108,14.812,4.754,22.309,6.217,29.256,12.159,56.869,10.605,62.446a.089.089,0,0,1-.091.091,5.072,5.072,0,0,1-3.84,1.92Z" transform="translate(-27.877 -444.037)" fill="#fff"/>
    <path id="Caminho_948" data-name="Caminho 948" d="M841.5,631.706c-.091,0-.275-.091-.275-.183-.183-.091-.183-.366,0-.549,1.371-1.371,3.658-2.285,6.949-2.743a.418.418,0,0,1,.456.366c.091.183-.091.456-.365.456-3.109.458-5.212,1.189-6.492,2.469-.091.091-.183.183-.274.183Z" transform="translate(-27.781 -443.729)" fill="#fff"/>
    <path id="Caminho_949" data-name="Caminho 949" d="M858.609,640.8a.335.335,0,0,1-.274-.091.343.343,0,0,1,0-.549c1.371-1.463,3.657-2.286,7.04-2.743a.466.466,0,0,1,.457.365.606.606,0,0,1-.366.458c-3.2.366-5.3,1.189-6.582,2.469a.336.336,0,0,1-.275.091Z" transform="translate(-27.34 -443.493)" fill="#fff"/>
    <path id="Caminho_950" data-name="Caminho 950" d="M866.542,680.283a.335.335,0,0,1-.274-.091c-.183-.184-.183-.458,0-.549,1.463-1.463,3.657-2.285,7.04-2.743.183-.091.366.091.457.365a.605.605,0,0,1-.366.457c-3.2.366-5.211,1.189-6.582,2.469,0,.091-.184.091-.275.091Z" transform="translate(-27.137 -442.477)"/>
    <path id="Caminho_951" data-name="Caminho 951" d="M868.681,698.734c-.091,0-.183-.091-.274-.183-.183-.091-.183-.365,0-.549,1.463-1.371,3.657-2.285,7.04-2.743.184,0,.458.184.458.366,0,.274-.091.458-.366.458-3.2.456-5.211,1.188-6.491,2.468a.475.475,0,0,1-.366.183Z" transform="translate(-27.082 -442.003)"/>
    <path id="Caminho_952" data-name="Caminho 952" d="M852.46,660.853a.472.472,0,0,1-.365-.184.574.574,0,0,1,0-.548c1.463-1.463,3.657-2.286,7.04-2.743.274,0,.457.091.457.365,0,.183-.092.458-.366.458-3.108.457-5.212,1.189-6.491,2.468-.092.092-.184.184-.275.184Z" transform="translate(-27.5 -442.979)"/>
    <path id="Caminho_953" data-name="Caminho 953" d="M888.887,624.95l-9.783-24.96a2.867,2.867,0,0,1,.549-2.926,3.722,3.722,0,0,1,3.932-1.005,2.192,2.192,0,0,1,1.554,1.645l4.663,27.429Z" transform="translate(-26.807 -444.562)" fill="#fff"/>
    <path id="Caminho_954" data-name="Caminho 954" d="M888.149,624.883l-1.829-26.7a2.884,2.884,0,0,1,1.28-2.743,3.775,3.775,0,0,1,4.114.274,2.061,2.061,0,0,1,.914,2.011l-3.657,27.612Z" transform="translate(-26.617 -444.586)" fill="#fff"/>
    <path id="Caminho_955" data-name="Caminho 955" d="M889.707,624.773l3.566-26.515a2.932,2.932,0,0,1,1.829-2.377,3.824,3.824,0,0,1,3.932,1.005,2,2,0,0,1,.548,2.194l-9.143,26.332Z" transform="translate(-26.529 -444.567)" fill="#fff"/>
    <path id="Caminho_956" data-name="Caminho 956" d="M880.8,618.858a24.344,24.344,0,0,1,15.36-2.652,9.8,9.8,0,0,1,7.954,10.057c-1.371,34.468-1.828,79.359-5.3,85.76h-5.577c-3.658-5.394-10.331-52.389-16-85.486a7.452,7.452,0,0,1,3.567-7.68Z" transform="translate(-26.854 -444.047)" fill="#11a529"/>
    <path id="Caminho_957" data-name="Caminho 957" d="M880.807,618.868h0M898,712.034c.183-.091.274-.183.456-.275,2.652-5.12,3.565-34.377,4.481-62.719.183-7.589.456-15.452.731-22.765a9.345,9.345,0,0,0-7.588-9.691,24.692,24.692,0,0,0-15.086,2.651,6.959,6.959,0,0,0-3.292,7.223c1.371,8.32,2.925,17.646,4.3,26.7,4.3,26.422,9.144,56.32,11.794,58.88h-1.005c-2.834-4.937-7.131-31.178-11.52-58.789-1.463-9.051-3.017-18.377-4.388-26.606a7.818,7.818,0,0,1,3.748-8.137,24.9,24.9,0,0,1,15.634-2.652,10.133,10.133,0,0,1,8.229,10.424c-.274,7.314-.549,15.177-.731,22.857-.914,29.44-1.829,57.235-4.481,62.9Z" transform="translate(-26.863 -444.056)" fill="#fff"/>
    <path id="Caminho_958" data-name="Caminho 958" d="M880.09,627.744c-.092,0-.275-.091-.275-.183a.345.345,0,0,1,.091-.549c1.738-1.1,4.114-1.372,7.5-1.005a.418.418,0,0,1,.366.456.607.607,0,0,1-.457.366c-3.2-.366-5.394-.091-6.948.823a.335.335,0,0,1-.274.091Z" transform="translate(-26.787 -443.79)" fill="#fff"/>
    <path id="Caminho_959" data-name="Caminho 959" d="M894.621,640.759a.472.472,0,0,1-.365-.184c-.184-.183-.091-.456.091-.639,1.737-1.006,4.114-1.28,7.5-.915a.418.418,0,0,1,.365.457c0,.183-.274.365-.456.365-3.2-.365-5.394-.091-6.948.824a.286.286,0,0,1-.184.091Z" transform="translate(-26.414 -443.455)" fill="#fff"/>
    <path id="Caminho_960" data-name="Caminho 960" d="M892.837,680.957a.692.692,0,0,1-.366-.183.44.44,0,0,1,.183-.549c1.738-1.1,4.114-1.371,7.406-1.006.275,0,.458.275.366.457a.4.4,0,0,1-.366.366c-3.2-.366-5.394-.092-7.04.823,0,.091-.091.091-.183.091Z" transform="translate(-26.459 -442.42)"/>
    <path id="Caminho_961" data-name="Caminho 961" d="M890.519,699.318a.364.364,0,0,1-.365-.183.44.44,0,0,1,.183-.549c1.737-1.005,4.114-1.371,7.406-1.005.274.091.456.274.365.456,0,.275-.183.457-.456.366-3.109-.366-5.3-.091-6.949.914Z" transform="translate(-26.52 -441.947)"/>
    <path id="Caminho_962" data-name="Caminho 962" d="M883.744,658.675c-.091,0-.274-.092-.274-.184a.44.44,0,0,1,.091-.64c1.737-1.005,4.114-1.28,7.5-.914a.418.418,0,0,1,.365.458.606.606,0,0,1-.456.365c-3.2-.365-5.394-.091-6.949.823a.333.333,0,0,1-.274.092Z" transform="translate(-26.693 -442.994)" fill="#fff"/>
    <path id="Caminho_963" data-name="Caminho 963" d="M862.923,710.312c10.88-3.84,12.069-10.423,12.069-13.532a1.583,1.583,0,0,1,1.371-1.645c6.126-1.189,9.325-14.9,1.371-21.669-7.406-6.4-9.326-12.434-9.326-12.434-5.76-16-9.691-19.84-19.2-23.863-9.6-3.931-15.268,5.486-15.268,5.486a17.485,17.485,0,0,0-5.76-.274,14.972,14.972,0,0,0-9.692,5.668v39.223A83.675,83.675,0,0,0,847.838,711.5h6.583a15.386,15.386,0,0,0,1.92-1.646s3.839,1.464,6.582.458Z" transform="translate(-28.363 -443.524)" fill="#fff"/>
    <path id="Caminho_964" data-name="Caminho 964" d="M818.489,685.88v.092a81.967,81.967,0,0,0,29.9,24.868,8.8,8.8,0,0,0,1.829.64h2.011a6.837,6.837,0,0,0,3.565-2.194l.365-.366.458.183c1.645.64,4.3,1.1,6.034.458,5.668-2.012,11.611-6.034,11.52-12.8a2.535,2.535,0,0,1,2.011-2.468c3.291-.64,5.028-5.121,5.393-8.046a13.929,13.929,0,0,0-4.3-12.252c-3.565-2.925-8.229-8.229-9.6-12.8-2.377-6.491-5.486-14.537-11.063-19.016a33.786,33.786,0,0,0-7.771-4.3,10.255,10.255,0,0,0-10.331,1.189,13.445,13.445,0,0,0-3.84,4.023l-.366.457-.548-.091a15.38,15.38,0,0,0-5.394-.366c-4.48.823-8.046,3.109-9.875,6.492Z" transform="translate(-28.363 -443.503)" fill="#11a529" fill-rule="evenodd"/>
    <path id="Caminho_965" data-name="Caminho 965" d="M856.341,709.806a.09.09,0,0,1-.092-.091c-12.434-4.114-31.817-26.057-37.76-40.685v-2.378c1.92,5.761,6.492,13.44,12.892,21.3,8.686,10.7,18.286,18.744,25.143,21.029a.444.444,0,0,1-.183.823Zm-37.852-52.937a5.43,5.43,0,0,1,1.738-1.006.554.554,0,0,1,.549.275.445.445,0,0,1-.275.549,3.979,3.979,0,0,0-2.011,1.371Z" transform="translate(-28.363 -443.018)" fill="#11a529"/>
    <path id="Caminho_966" data-name="Caminho 966" d="M833.435,662.771s.366,2.925-3.931,4.114c-4.389,1.1-9.875-3.658-9.052-5.121.823-1.371,4.206.731,6.492.275,2.012-.457,5.76-2.378,6.491.731Z" transform="translate(-28.314 -442.885)" fill="#11a529"/>
    <path id="Caminho_967" data-name="Caminho 967" d="M837.964,645.846s-5.852,1.005-9.783-1.554c-3.018-1.92-6.674-10.057-8.229-13.714a1.818,1.818,0,0,0-1.464-1.1V639.9c3.109,4.937,6.4,10.971,5.394,13.166l-1.92,3.84,6.675.183a7.465,7.465,0,0,0,7.406-5.3Z" transform="translate(-28.363 -443.697)" fill="#11a529"/>
    <path id="Caminho_968" data-name="Caminho 968" d="M822.6,656.46l6.034.275a7.189,7.189,0,0,0,7.04-5.029l1.646-5.394c-1.646.184-6.126.458-9.326-1.645-3.017-1.92-6.582-9.509-8.411-13.9a1.791,1.791,0,0,0-.823-.823h-.275v-.824a1.161,1.161,0,0,1,.549.091,1.986,1.986,0,0,1,1.28,1.28c1.463,3.383,5.12,11.612,8.137,13.532,3.657,2.378,9.326,1.372,9.417,1.372a.364.364,0,0,1,.365.183c.091.092.091.184.091.366l-1.828,6.034a7.957,7.957,0,0,1-7.589,5.577h-.275l-6.675-.275c-.091,0-.274-.091-.274-.183a.549.549,0,0,1-.091-.365l1.92-3.84c.823-1.737-1.646-6.766-5.029-12.16V639.18c3.292,5.212,6.857,11.7,5.761,14.081Z" transform="translate(-28.363 -443.706)" fill="#fff"/>
    <path id="Caminho_970" data-name="Caminho 970" d="M818.489,631.911a.954.954,0,0,0,0-.548c0-.184.184-.457.366-.457.274,0,.458.091.458.366a2.363,2.363,0,0,1-.64,1.919c0,.091-.091.184-.184.275Z" transform="translate(-28.363 -443.66)" fill="#fff"/>
    <path id="Caminho_919" data-name="Caminho 919" d="M944.306,670.681c0,14.171-13.166,25.691-29.348,25.691-16.274,0-29.44-11.52-29.44-25.691s13.166-25.692,29.44-25.692c16.182,0,29.348,11.52,29.348,25.692Z" transform="translate(-26.637 -443.298)" fill="#fff"/>
    <path id="Caminho_920" data-name="Caminho 920" d="M943.556,670.66a21.672,21.672,0,0,0-1.828-8.595c-4.389-10.514-15.726-16.274-26.789-16.274s-22.492,5.761-26.881,16.274a21.671,21.671,0,0,0-1.828,8.595,21.34,21.34,0,0,0,1.828,8.594c4.389,10.514,15.817,16.275,26.881,16.275s22.4-5.761,26.789-16.275a21.341,21.341,0,0,0,1.828-8.594Z" transform="translate(-26.619 -443.277)" fill="#11a529" fill-rule="evenodd"/>
    <path id="Caminho_921" data-name="Caminho 921" d="M911.179,640.566c.914,2.743,2.1,6.857,1.919,9.784,0,0,3.749-5.943,12.709-5.577,0,0-7.406,4.662-9.235,7.954,0,0,7.5.915,8.137,7.406,0,0-7.131-5.212-11.7-4.3-4.663,1.005-8.777,3.474-10.24,9.874,0,0-2.012-9.051,4.481-11.337,0,0-3.2-3.109-9.875-.549,0,0,4.389-6.126,10.149-2.834,0,0-2.377-4.846-7.589-5.577,0,0,7.223-1.189,9.966,3.017a17.756,17.756,0,0,0-2.469-5.852,1.969,1.969,0,0,1,.275-2.651l.274-.184a1.94,1.94,0,0,1,3.2.823Z" transform="translate(-26.332 -443.447)" fill="#11a529"/>
    <path id="Caminho_922" data-name="Caminho 922" d="M902.32,652.372a7.628,7.628,0,0,1,5.211,1.737.551.551,0,0,1,.091.366c0,.183-.183.274-.274.365-4.3,1.463-4.572,6.217-4.388,8.869,1.554-4.388,4.846-7.131,9.965-8.229,3.84-.823,9.235,2.378,11.246,3.749-1.189-5.212-7.406-6.034-7.681-6.034-.091-.091-.274-.091-.274-.275a.278.278,0,0,1,0-.365c1.463-2.651,6.034-5.943,8.229-7.315-7.68.184-10.971,5.3-10.971,5.394a.7.7,0,0,1-.458.183c-.183-.091-.365-.274-.274-.456.091-2.834-1.006-6.857-1.92-9.6a1.855,1.855,0,0,0-1.1-1.1,1.644,1.644,0,0,0-1.463.366l-.274.183a1.674,1.674,0,0,0-.274,2.194,18.692,18.692,0,0,1,2.651,6.034.5.5,0,0,1-.274.457.671.671,0,0,1-.549-.184c-1.554-2.468-4.846-3.017-7.131-3.017a11.821,11.821,0,0,1,5.486,5.12.4.4,0,0,1-.091.457c-.184.091-.366.183-.457.091-3.84-2.194-7.04.091-8.595,1.554a14.156,14.156,0,0,1,3.567-.548Zm.456,13.714c-.183,0-.365-.091-.365-.275,0-.091-1.92-8.777,4.023-11.52-1.1-.731-4.023-1.919-8.869-.091a.4.4,0,0,1-.458-.091.343.343,0,0,1,0-.549s4.023-5.393,9.326-3.566a10.466,10.466,0,0,0-6.583-4.206c-.183,0-.274-.183-.274-.365s.091-.366.274-.366c.274-.091,5.943-1.005,9.234,1.829a18.325,18.325,0,0,0-2.01-4.023,2.519,2.519,0,0,1,.365-3.292l.275-.183a2.433,2.433,0,0,1,3.839,1.1,33.474,33.474,0,0,1,2.011,8.686c1.463-1.738,5.3-5.12,12.252-4.754.183,0,.274.091.365.274,0,.184,0,.366-.183.458-.091,0-6.582,4.114-8.777,7.315,1.829.365,7.406,2.011,7.863,7.589a.7.7,0,0,1-.183.457.68.68,0,0,1-.458-.092c-.091,0-6.948-5.028-11.338-4.114-5.577,1.189-8.685,4.207-9.874,9.509a.5.5,0,0,1-.458.275Z" transform="translate(-26.344 -443.457)" fill="#fff"/>
    <path id="Caminho_969" data-name="Caminho 969" d="M908.35,642.807h-.183a.419.419,0,0,1-.366-.458.393.393,0,0,1,.366-.365c1.463.091,1.645-.64,1.645-.64,0-.275.183-.366.457-.366.183,0,.365.274.365.458-.091.091-.274,1.371-2.285,1.371Z" transform="translate(-26.063 -443.401)" fill="#fff"/>
    <path id="Caminho_923" data-name="Caminho 923" d="M938.012,671.592c-2.285,3.2-7.223-7.589-6.857-10.331.731-6.491,10.971,4.663,6.857,10.331Z" transform="translate(-25.463 -442.93)" fill="#11a529"/>
    <rect id="Retângulo_38" data-name="Retângulo 38" width="137.234" height="28.343" transform="translate(790.125 239.634)" fill="#fff"/>
    <rect id="Retângulo_39" data-name="Retângulo 39" width="140.8" height="8.686" transform="translate(790.125 259.291)" fill="#11a529"/>
    <path id="Caminho_924" data-name="Caminho 924" d="M958.832,709.838V701.61H818.489v-.823h140.8a.393.393,0,0,1,.365.365v8.686Z" transform="translate(-28.363 -441.861)" fill="#fff"/>
    <rect id="Retângulo_40" data-name="Retângulo 40" width="140.8" height="21.12" transform="translate(790.125 235.154)" fill="#11a529"/>
    <path id="Caminho_925" data-name="Caminho 925" d="M818.489,698.286H958.832v-20.3H818.489v-.823h140.8a.419.419,0,0,1,.365.458v21.12a.393.393,0,0,1-.365.365h-140.8Z" transform="translate(-28.363 -442.469)" fill="#fff"/>
    <path id="Caminho_877" data-name="Caminho 877" d="M1032.909,493.157c0,8.869-6.766,19.2-15.268,19.2-8.411,0-15.268-7.131-15.268-15.908,0-8.869,6.857-16,15.268-16,8.5,0,15.268,3.932,15.268,12.708Z" transform="translate(-23.629 -447.535)" fill="#fff"/>
    <path id="Caminho_878" data-name="Caminho 878" d="M999.878,709.652l-.091-1.646,9.417,1.646Z" transform="translate(-23.695 -441.675)" fill="#11a529"/>
    <path id="Caminho_879" data-name="Caminho 879" d="M1000.253,708.564l.091,1.1h-.823l-.091-1.646a.335.335,0,0,1,.091-.274.552.552,0,0,1,.366-.091l9.417,1.554a.608.608,0,0,1,.365.458h-2.926Z" transform="translate(-23.703 -441.684)" fill="#fff"/>
    <path id="Caminho_862" data-name="Caminho 862" d="M1046.96,713.01c1.646-12.434,4.023-34.468,3.657-55.315-.639-31.177-10.057-76.709-10.057-76.709s-14.812-2.194-25.875-1.828c-10.971.365-15.086-1.555-15.086-1.555s-9.143,8.412-10.24,25.966c-1.005,16.732,8.229,107.611,8.229,107.611a8.78,8.78,0,0,0,.457,1.829h13.988l6.308-95.635s5.029,21.12,6.95,35.474a69.732,69.732,0,0,0,3.748,15.268,22.862,22.862,0,0,1,1.28,9.6,229.3,229.3,0,0,0,.274,35.292Z" transform="translate(-23.965 -445.033)" fill="#11a529"/>
    <path id="Caminho_863" data-name="Caminho 863" d="M1018.352,617.021a.5.5,0,0,1,.458.274c0,.183,5.028,21.3,6.857,35.566a76.076,76.076,0,0,0,3.749,15.086,25.176,25.176,0,0,1,1.371,9.783,218.285,218.285,0,0,0,.274,35.292h-.823a218.387,218.387,0,0,1-.275-35.292,23.784,23.784,0,0,0-1.371-9.509,71.82,71.82,0,0,1-3.657-15.268c-1.554-11.154-4.937-26.606-6.308-32.732l-6.217,92.8h-.823l6.4-95.635a.334.334,0,0,1,.365-.365Zm28.16,96c1.646-12.252,4.114-34.468,3.749-55.315-.64-29.531-9.235-72.412-9.966-76.342-2.1-.275-15.542-2.1-25.6-1.738-9.509.275-13.988-1.1-14.994-1.554-1.28,1.371-8.869,9.783-9.874,25.508-1.006,16.548,8.046,106.7,8.137,107.611a5.909,5.909,0,0,0,.548,1.829H997.6a7.492,7.492,0,0,1-.458-1.738c-.091-.914-9.143-91.154-8.136-107.7,1.1-17.462,10.148-26.148,10.24-26.24.183-.183.365-.183.457-.091.091,0,4.3,1.828,14.994,1.554,10.971-.366,25.783,1.738,25.966,1.829.183,0,.274.091.365.274.092.457,9.417,45.9,9.966,76.8.458,20.754-2.011,42.972-3.657,55.315Z" transform="translate(-23.975 -445.044)" fill="#fff"/>
    <path id="Caminho_880" data-name="Caminho 880" d="M1005.766,666.728a11.2,11.2,0,0,1-7.314-2.378c-.091-.183-.184-.458,0-.64s.456-.183.549,0c3.2,2.834,8.229,2.1,8.32,2.1a.606.606,0,0,1,.456.366c0,.183-.183.456-.365.456-.091,0-.731.092-1.646.092Z" transform="translate(-23.732 -442.819)" fill="#fff"/>
    <path id="Caminho_881" data-name="Caminho 881" d="M993.2,608.982a.4.4,0,0,1-.366-.366c0-.183.184-.457.366-.457.458,0,10.514-.731,12.617-16.64,0-.274.275-.457.458-.365.274,0,.365.183.365.456-2.194,16.64-13.257,17.372-13.348,17.372Z" transform="translate(-23.875 -444.685)" fill="#fff"/>
    <path id="Caminho_864" data-name="Caminho 864" d="M1075.129,522.567c-3.84,9.051-9.326,16.275-12.983,16.64-2.377.183-6.035-4.846-9.326-9.326-3.108-4.3-6.126-8.32-8.594-9.143a.622.622,0,0,0-.731.366l-8.32,18.469a.4.4,0,0,0,0,.456,34.95,34.95,0,0,0,6.582,9.691,25.658,25.658,0,0,0,18.652,8.412,27.374,27.374,0,0,0,2.743-.184,21.7,21.7,0,0,0,11.977-5.028Z" transform="translate(-22.785 -446.498)" fill="#11a529"/>
    <path id="Caminho_865" data-name="Caminho 865" d="M1044.053,521.205c-.091,0-.184,0-.184.091l-8.32,18.469v.091a33.336,33.336,0,0,0,6.492,9.6,25.238,25.238,0,0,0,18.377,8.229c.914,0,1.828,0,2.743-.091a21.922,21.922,0,0,0,11.977-5.212v1.1a22.175,22.175,0,0,1-11.885,4.846c-1.006.091-1.92.183-2.834.183a26.023,26.023,0,0,1-18.926-8.5,33.873,33.873,0,0,1-6.674-9.783,1.273,1.273,0,0,1,0-.824l8.32-18.469a.951.951,0,0,1,1.189-.548c2.651.914,5.668,4.937,8.777,9.325,2.926,3.932,6.857,9.326,8.96,9.051,2.925-.274,7.315-5.3,10.88-12.525a44.733,44.733,0,0,0,2.194-4.754v2.1a30.757,30.757,0,0,1-1.463,3.018c-3.749,7.589-8.32,12.708-11.52,12.983-2.377.274-5.486-3.749-9.691-9.417-3.109-4.206-6.035-8.229-8.32-8.96Z" transform="translate(-22.795 -446.508)" fill="#fff"/>
    <path id="Caminho_866" data-name="Caminho 866" d="M1047.783,565.844l-.731-13.988,13.532-16.915-11.978-12.525a8.031,8.031,0,0,0-4.846-2.286c-15.268-1.371-37.76-.274-49.645.458a7.875,7.875,0,0,0-2.1.549h0c-8.045,2.1-16.914,16.914-16.914,16.914l16.731,14.263c-.549,7.406-1.463,18.651-1.554,24.594-.274,9.509,10.7,5.852,32,7.955,10.423,1.1,28.068.183,26.057-13.349a56.406,56.406,0,0,1-.549-5.668Z" transform="translate(-24.332 -446.53)" fill="#11a529"/>
    <path id="Caminho_867" data-name="Caminho 867" d="M975.656,537.968l16.457,13.989a.692.692,0,0,1,.183.365c-.64,8.046-1.463,18.744-1.646,24.594a5.8,5.8,0,0,0,1.28,4.206c2.1,2.194,6.948,2.286,14.263,2.469,4.388.091,9.875.274,16.092.914,4.023.366,17.736,1.28,23.314-4.572,2.1-2.1,2.834-4.937,2.285-8.32-.274-2.194-.458-4.023-.549-5.668l-.64-14.079a.336.336,0,0,1,.091-.275l13.349-16.64L1048.342,522.7a7.7,7.7,0,0,0-4.572-2.194c-15.268-1.28-37.669-.275-49.645.456a7.644,7.644,0,0,0-1.92.549h-.184c-7.131,1.92-15.086,14.354-16.365,16.457ZM1028.5,585.6a58.9,58.9,0,0,1-6.31-.275c-6.217-.64-11.611-.823-16-.914-7.588-.183-12.525-.274-14.9-2.743a6.338,6.338,0,0,1-1.463-4.754c.184-5.851.915-16.457,1.646-24.412l-16.641-14.171a.319.319,0,0,1-.091-.457c.366-.64,9.051-15.086,17.189-17.1h0a4.6,4.6,0,0,1,2.2-.549c11.977-.823,34.377-1.828,49.737-.456a7.891,7.891,0,0,1,5.12,2.377l11.977,12.525a.577.577,0,0,1,0,.549l-13.44,16.823.64,13.806c.091,1.737.275,3.474.549,5.668.549,3.658-.274,6.675-2.468,8.96-4.023,4.206-11.7,5.121-17.737,5.121Z" transform="translate(-24.342 -446.539)" fill="#fff"/>
    <path id="Caminho_868" data-name="Caminho 868" d="M1038.144,539.99h-38.035a2.224,2.224,0,0,0-2.194,2.194v43.154c14.995,4.663,29.166,5.028,42.423.914V542.184a2.166,2.166,0,0,0-2.194-2.194Z" transform="translate(-23.742 -446.001)" fill="#11a529"/>
    <path id="Caminho_869" data-name="Caminho 869" d="M998.382,585.074c14.537,4.479,28.525,4.846,41.6.914V542.193a1.757,1.757,0,0,0-1.828-1.737h-38.035a1.736,1.736,0,0,0-1.737,1.737Zm22.857,4.479a76.9,76.9,0,0,1-23.406-3.839c-.183,0-.275-.184-.275-.366V542.193a2.556,2.556,0,0,1,2.56-2.56h38.035a2.576,2.576,0,0,1,2.651,2.56v44.068a.5.5,0,0,1-.274.457,67.9,67.9,0,0,1-19.291,2.834Z" transform="translate(-23.752 -446.011)" fill="#fff"/>
    <path id="Caminho_870" data-name="Caminho 870" d="M1030.805,519.578s2.743,7.315,1.371,21.486a2.639,2.639,0,0,0,2.652,2.834,2.564,2.564,0,0,0,2.56-2.194c.64-4.754,1.737-15.817-1.555-22.034Z" transform="translate(-22.896 -446.527)" fill="#11a529"/>
    <path id="Caminho_871" data-name="Caminho 871" d="M1031.365,519.956c.64,2.011,2.469,9.143,1.28,21.12a2.019,2.019,0,0,0,.549,1.737,2.138,2.138,0,0,0,1.645.731,2.161,2.161,0,0,0,2.1-1.919c.64-4.48,1.829-15.361-1.371-21.486Zm3.474,24.412a2.97,2.97,0,0,1-2.285-1.006,3.218,3.218,0,0,1-.731-2.377c1.371-13.807-1.371-21.211-1.371-21.3a.277.277,0,0,1,0-.366.693.693,0,0,1,.365-.183l5.028.183a.475.475,0,0,1,.366.183c3.383,6.4,2.194,17.646,1.554,22.218a3.038,3.038,0,0,1-2.925,2.652Z" transform="translate(-22.906 -446.538)" fill="#fff"/>
    <path id="Caminho_882" data-name="Caminho 882" d="M1006.122,519.578s-2.834,7.315-1.463,21.486a2.581,2.581,0,0,1-5.121.64c-.731-4.754-1.828-15.817,1.463-22.034Z" transform="translate(-23.723 -446.527)" fill="#11a529"/>
    <path id="Caminho_883" data-name="Caminho 883" d="M1001.287,520.138c-3.109,6.126-2.011,17.006-1.371,21.486a2.251,2.251,0,0,0,2.194,1.919,2.286,2.286,0,0,0,1.645-.731,2.341,2.341,0,0,0,.549-1.737c-1.188-11.978.549-19.109,1.189-21.12Zm.823,24.229a3.208,3.208,0,0,1-3.017-2.652c-.64-4.572-1.829-15.817,1.554-22.218a.474.474,0,0,1,.365-.183l5.029-.183a.474.474,0,0,1,.365.183.55.55,0,0,1,.091.366c-.091.091-2.743,7.5-1.371,21.3a3.136,3.136,0,0,1-3.017,3.383Z" transform="translate(-23.732 -446.538)" fill="#fff"/>
    <path id="Caminho_884" data-name="Caminho 884" d="M1022.085,571.4h-6.948a11.432,11.432,0,0,1-11.428-11.429V548.547h29.9v11.428a11.452,11.452,0,0,1-11.52,11.429Z" transform="translate(-23.594 -445.781)" fill="#11a529"/>
    <path id="Caminho_885" data-name="Caminho 885" d="M1004.086,549.013v10.971a11.161,11.161,0,0,0,11.063,11.064h6.948a11.1,11.1,0,0,0,11.064-11.064V549.013ZM1022.1,571.87h-6.948a11.98,11.98,0,0,1-11.885-11.886V548.556a.418.418,0,0,1,.458-.366h29.9a.394.394,0,0,1,.366.366v11.428A11.921,11.921,0,0,1,1022.1,571.87Z" transform="translate(-23.605 -445.79)" fill="#fff"/>
    <path id="Caminho_886" data-name="Caminho 886" d="M1030.9,552.668H1006.3a.418.418,0,0,1-.456-.366.431.431,0,0,1,.456-.456H1030.9a.418.418,0,0,1,.366.456.393.393,0,0,1-.366.366Z" transform="translate(-23.539 -445.696)" fill="#fff"/>
    <path id="Caminho_887" data-name="Caminho 887" d="M1013.971,568.348a.419.419,0,0,1-.458-.366v-13.9a.433.433,0,0,1,.458-.457.419.419,0,0,1,.365.457v13.9a.393.393,0,0,1-.365.366Z" transform="translate(-23.342 -445.65)" fill="#fff"/>
    <path id="Caminho_888" data-name="Caminho 888" d="M1022.614,568.348a.394.394,0,0,1-.366-.366v-13.9a.419.419,0,0,1,.366-.457.433.433,0,0,1,.458.457v13.9a.419.419,0,0,1-.458.366Z" transform="translate(-23.117 -445.65)" fill="#fff"/>
    <path id="Caminho_889" data-name="Caminho 889" d="M1036.4,539.935a1.427,1.427,0,0,1-1.371,1.463,1.444,1.444,0,0,1-1.463-1.463,1.427,1.427,0,0,1,1.463-1.371,1.406,1.406,0,0,1,1.371,1.371Z" transform="translate(-22.824 -446.038)" fill="#fff"/>
    <path id="Caminho_890" data-name="Caminho 890" d="M1003.336,539.935a1.463,1.463,0,1,1-2.925,0,1.466,1.466,0,0,1,2.925,0Z" transform="translate(-23.68 -446.038)" fill="#fff"/>
    <path id="Caminho_891" data-name="Caminho 891" d="M1008.839,584.575s-3.932-6.583-7.406-7.223-9.509,4.48-9.509,4.48-12.434-12.343-10.331-22.309c1.28-5.851,2.56-9.965,5.394-12.8-1.371-.823-8.137-6.675-9.691-9.052-3.383,4.389-8.777,10.606-9.417,20.938-1.28,20.845,23.223,30.629,26.515,29.531,3.2-1.005,9.416-2.743,10.423-1.645,1.005,1.005,2.834,0,2.834,0l-1.189-1.1c1.189,1.1,2.378-.823,2.378-.823Z" transform="translate(-24.518 -446.061)" fill="#11a529"/>
    <path id="Caminho_892" data-name="Caminho 892" d="M977.307,538.324c-.184.184-.275.457-.457.64-3.383,4.3-8.046,10.331-8.595,19.749-.639,10.88,5.852,18.286,11.338,22.583,6.308,4.846,13.165,6.948,14.628,6.492,3.567-1.1,9.692-2.835,10.88-1.555.458.457,1.28.275,1.829.091l-.731-.639c-.091,0-.182-.184-.182-.275s.091-.183.091-.274a.441.441,0,0,1,.64,0,.9.9,0,0,0,.548.183,2.064,2.064,0,0,0,1.006-.731c-.64-1.189-4.023-6.217-6.948-6.857-3.292-.64-9.144,4.388-9.144,4.479a.569.569,0,0,1-.548,0c-.549-.548-12.526-12.708-10.424-22.766,1.189-5.76,2.469-9.783,5.121-12.708a62.918,62.918,0,0,1-9.051-8.412ZM993.764,588.7c-2.652,0-8.96-2.378-14.629-6.766-5.76-4.479-12.343-12.069-11.7-23.314.64-9.691,5.3-15.726,8.777-20.205.274-.366.549-.64.823-1.006,0-.091.184-.183.275-.183a.474.474,0,0,1,.365.183c1.463,2.285,8.137,8.137,9.6,8.96.091.091.184.183.184.275a.694.694,0,0,1-.184.365c-2.743,2.743-4.023,6.675-5.211,12.525-1.92,8.869,8.137,19.931,9.874,21.76,1.28-1.005,6.308-4.937,9.6-4.3,3.566.64,7.5,7.04,7.68,7.315v.456a3.487,3.487,0,0,1-1.463,1.28l.183.091a.547.547,0,0,1,.092.366c0,.183-.092.274-.184.274-.091.091-2.1,1.28-3.292,0-.639-.64-4.846.091-10.056,1.829-.183,0-.458.091-.731.091Z" transform="translate(-24.529 -446.073)" fill="#fff"/>
    <path id="Caminho_893" data-name="Caminho 893" d="M1014.694,506.743l-1.646,12.709-6.308,1.005s2.378,7.68,10.7,8.229c8.411.549,12.343-5.3,12.8-8.32l-5.942-.914-1.006-12.343Z" transform="translate(-23.516 -446.858)" fill="#11a529"/>
    <path id="Caminho_894" data-name="Caminho 894" d="M1013.059,519.464h0m-5.76,1.28a11.684,11.684,0,0,0,10.24,7.5c7.771.548,11.52-4.663,12.252-7.589l-5.577-.731c-.184,0-.275-.183-.275-.365l-1.005-12.069-7.863-.365-1.645,12.434a.393.393,0,0,1-.366.365Zm11.337,8.411a5.217,5.217,0,0,1-1.188-.091c-8.5-.549-11.063-8.412-11.155-8.5a.684.684,0,0,1,.092-.365c.091-.091.183-.091.274-.183l6.035-.915,1.554-12.434a.607.607,0,0,1,.458-.365l8.594.365c.275,0,.366.183.457.366l.914,12.068,5.669.823c.091,0,.183.092.274.184,0,.091.091.183,0,.274-.366,2.834-4.023,8.777-11.978,8.777Z" transform="translate(-23.527 -446.869)" fill="#fff"/>
    <path id="Caminho_895" data-name="Caminho 895" d="M1027.628,497.488a1.266,1.266,0,0,0-1.1.274v-7.954c-8.686,6.308-10.331,2.285-15.817,4.114,0,0-.091,3.565-.091,3.839a1.148,1.148,0,0,0-1.006-.274c-.823.183-1.28,1.645-.823,3.109.366,1.463,1.829,3.108,2.652,3.017,1.371,3.932,4.023,7.315,7.131,7.315s5.761-3.383,7.132-7.315c.823.091,2.377-1.554,2.743-3.017s0-2.926-.823-3.109Z" transform="translate(-23.469 -447.294)" fill="#11a529"/>
    <path id="Caminho_896" data-name="Caminho 896" d="M1011.456,503.257a.5.5,0,0,1,.457.275c1.188,3.474,3.657,6.948,6.674,6.948s5.578-3.474,6.766-6.948c0-.183.184-.275.366-.275.549,0,2.011-1.371,2.285-2.743.366-1.371,0-2.468-.549-2.65-.183-.092-.457.091-.639.274a.279.279,0,0,1-.366,0c-.182,0-.274-.183-.274-.366v-.183h0V490.64c-5.3,3.657-7.955,3.474-10.515,3.292a13.356,13.356,0,0,0-4.571.274c0,.915,0,3.383-.092,3.566a.475.475,0,0,1-.183.366.409.409,0,0,1-.458,0c-.183-.183-.365-.366-.64-.274-.548.183-.914,1.279-.548,2.65s1.737,2.743,2.285,2.743Zm7.131,8.046c-3.566,0-6.125-3.839-7.4-7.222a5.13,5.13,0,0,1-2.835-3.383c-.456-1.738.092-3.383,1.189-3.658a2.251,2.251,0,0,1,.731.092v-3.2a.41.41,0,0,1,.275-.366,11.571,11.571,0,0,1,5.12-.456c2.651.183,5.212.365,10.606-3.567a.993.993,0,0,1,.457-.091.49.49,0,0,1,.275.366v7.315a1.764,1.764,0,0,1,.731-.092c1.1.275,1.554,1.92,1.1,3.658a5.126,5.126,0,0,1-2.834,3.383c-1.188,3.383-3.839,7.222-7.406,7.222Z" transform="translate(-23.479 -447.303)" fill="#fff"/>
    <path id="Caminho_897" data-name="Caminho 897" d="M1004.763,493.17c-.184-5.393-6.126-9.874-10.057-11.612a19.979,19.979,0,0,0-11.246-1.371c-16.548,2.286-20.663,17.921-20.663,17.921s3.2-2.1,6.4-1.646c.731,1.371,4.846,9.235,13.165,10.971,10.514,2.194,22.583-6.308,22.4-14.263Z" transform="translate(-24.648 -447.548)" fill="#fff"/>
    <path id="Caminho_872" data-name="Caminho 872" d="M1036.011,493.309s-19.016,7.314-37.669,4.3c-16.366-2.56,2.1-13.074,17.372-15.177,22.491-3.018,34.56,3.839,20.3,10.88Z" transform="translate(-23.896 -447.502)" fill="#11a529"/>
    <path id="Caminho_873" data-name="Caminho 873" d="M1036.021,493.318h0m-9.965-11.155a71.257,71.257,0,0,0-10.331.731c-11.063,1.464-23.314,7.315-23.314,11.064,0,1.554,2.011,2.651,5.942,3.291,18.195,2.835,36.846-4.114,37.486-4.388,4.3-2.1,6.4-4.3,5.76-6.126-.731-2.652-6.491-4.572-15.542-4.572Zm-18.377,16.549a66.2,66.2,0,0,1-9.417-.64c-4.479-.731-6.675-2.1-6.675-4.114,0-4.572,13.532-10.515,24.047-11.886,13.9-1.92,25.417,0,26.789,4.389.456,1.645-.184,4.206-6.309,7.222h0a92.164,92.164,0,0,1-28.434,5.029Z" transform="translate(-23.906 -447.512)" fill="#fff"/>
    <path id="Caminho_898" data-name="Caminho 898" d="M1026.565,492.053a4.661,4.661,0,0,0,3.108-5.394c-1.279-4.663-4.388-10.88-8.045-12.252-4.114-1.554-10.515-.549-13.806,1.371-3.658,2.1-4.754,8.5-3.749,14.171.914,4.938,12.16,6.492,22.492,2.1Z" transform="translate(-23.594 -447.71)" fill="#11a529"/>
    <path id="Caminho_899" data-name="Caminho 899" d="M1026.575,492.064h0m-9.6-18.012a19.939,19.939,0,0,0-8.96,2.1c-3.566,2.1-4.389,8.412-3.474,13.714a4.159,4.159,0,0,0,2.377,2.834c3.658,2.012,11.52,2.286,19.475-1.005,2.194-.914,3.383-2.925,2.834-4.937-1.28-5.029-4.389-10.7-7.772-11.978a11.839,11.839,0,0,0-4.479-.731Zm-2.652,21.029a16.072,16.072,0,0,1-7.771-1.645,5.179,5.179,0,0,1-2.834-3.475c-1.006-5.486,0-12.251,3.931-14.537,3.383-1.92,9.875-3.017,14.08-1.463,3.748,1.463,6.948,7.589,8.32,12.618a5.131,5.131,0,0,1-3.292,5.942,34.36,34.36,0,0,1-12.434,2.56Z" transform="translate(-23.604 -447.721)" fill="#fff"/>
    <path id="Caminho_900" data-name="Caminho 900" d="M1012.47,480.269a12.483,12.483,0,0,1-4.3-.731.349.349,0,0,1-.274-.456.383.383,0,0,1,.549-.275,13.96,13.96,0,0,0,11.885-1.919.411.411,0,0,1,.549,0,.451.451,0,0,1-.091.639,14.571,14.571,0,0,1-8.32,2.743Z" transform="translate(-23.486 -447.629)" fill="#fff"/>
    <path id="Caminho_926" data-name="Caminho 926" d="M923.052,460.978a12.617,12.617,0,1,1-13.714-12.617h2.194a12.64,12.64,0,0,1,11.52,12.617Z" transform="translate(-26.32 -448.361)" fill="#11a529"/>
    <path id="Caminho_927" data-name="Caminho 927" d="M910.446,448.726A12.252,12.252,0,1,0,922.7,460.978a12.252,12.252,0,0,0-12.252-12.252Zm3.475-.365h-6.949a13.075,13.075,0,1,0,6.949,0Z" transform="translate(-26.332 -448.361)" fill="#fff"/>
    <path id="Caminho_928" data-name="Caminho 928" d="M905.71,477.783l53.211,1.006c2.743-4.3-1.371-4.938-2.377-5.212.091-5.761-4.754-9.691-9.966-8.137.915-8.777-12.708-13.988-15.817-3.292-2.652-4.3-10.788-3.2-11.154,2.834-3.748-3.2-13.439,0-11.429,6.949-2.285,0-7.04,1.828-2.468,5.851Z" transform="translate(-26.168 -448.16)" fill="#11a529"/>
    <path id="Caminho_929" data-name="Caminho 929" d="M905.9,477.335l52.754,1.1a3.278,3.278,0,0,0,.64-2.834c-.366-1.006-1.738-1.371-2.469-1.554-.183,0-.274-.092-.365-.092-.183-.091-.275-.183-.275-.365a8.2,8.2,0,0,0-3.108-6.675,7.208,7.208,0,0,0-6.4-1.1.546.546,0,0,1-.366-.092.474.474,0,0,1-.183-.365c.549-4.48-3.018-7.863-6.766-8.595-3.017-.64-6.766.457-8.229,5.486a.411.411,0,0,1-.274.275.7.7,0,0,1-.458-.183,5.711,5.711,0,0,0-6.308-2.2,5.339,5.339,0,0,0-4.114,4.846c0,.184-.092.366-.275.366a.226.226,0,0,1-.365-.091c-1.92-1.554-5.669-1.463-8.32.274a5.242,5.242,0,0,0-2.378,6.217c0,.184,0,.275-.091.366a.475.475,0,0,1-.366.183c-1.279,0-3.382.64-3.931,1.92-.366,1.005.64,2.285,1.645,3.108Zm53.028,1.92h0l-53.211-1.1a.336.336,0,0,1-.275-.092c-1.737-1.554-2.377-2.925-1.919-4.206.548-1.463,2.652-2.194,4.206-2.377a5.992,5.992,0,0,1,2.834-6.675c2.743-1.737,6.4-1.92,8.686-.549a6.165,6.165,0,0,1,4.662-4.937,6.687,6.687,0,0,1,6.675,1.92c1.829-4.846,5.761-5.943,8.96-5.3,3.932.731,7.68,4.3,7.5,8.96a8.079,8.079,0,0,1,6.583,1.371,8.984,8.984,0,0,1,3.383,6.948h0c.914.275,2.559.731,3.108,2.1.366,1.006.091,2.2-.914,3.658a.292.292,0,0,1-.275.274Z" transform="translate(-26.178 -448.17)" fill="#fff"/>
    <path id="Caminho_901" data-name="Caminho 901" d="M974.836,448.635l38.857-.183v-.091H974.562l.274.274Z" transform="translate(-24.344 -448.361)" fill="#11a529"/>
    <path id="Caminho_902" data-name="Caminho 902" d="M1014.167,448.361H973.938c.183.183.457.365.64.549.091.091.183.183.274.183h0l38.857-.183c.091,0,.274-.092.274-.184Z" transform="translate(-24.361 -448.361)" fill="#fff"/>
    <rect id="Retângulo_43" data-name="Retângulo 43" width="535.314" height="267.977" fill="#3db2c3"/>
    <path id="Caminho_1013" data-name="Caminho 1013" d="M48.2,508.582l238.629,31.085,274.1-15.452,22.583,1.464m0-24.961-51.292-1.189-146.743-.274L48.2,500.17" transform="translate(-48.199 -447.05)" fill="none" stroke="#202f41" stroke-linecap="round" stroke-linejoin="round" stroke-width="0.397"/>
    <path id="Caminho_1014" data-name="Caminho 1014" d="M360.061,589.352l-.64,27.612,219.521-37.577m0,19.657L231.786,672.827l-5.12,1.1-.915-66.195,5.3-.731,9.051-1.189,119.954-16.457" transform="translate(-43.625 -444.987)" fill="none" stroke="#202f41" stroke-linecap="round" stroke-linejoin="round" stroke-width="0.397"/>
    <path id="Caminho_1015" data-name="Caminho 1015" d="M238.053,670.962l.183,31.452,67.931-17.006,208.457-52.114,7.955,1.463,19.656-5.028.184-4.114,36.206-8.686m0-18.376L238.053,670.962" transform="translate(-43.309 -444.494)" fill="none" stroke="#202f41" stroke-linecap="round" stroke-linejoin="round" stroke-width="0.397"/>
    <path id="Caminho_1040" data-name="Caminho 1040" d="M424.409,634.265l75.7-16.64-.274,4.663-75.794,17.463-9.417-2.286.091-5.486Z" transform="translate(-38.762 -444.002)" fill="none" stroke="#202f41" stroke-linecap="round" stroke-linejoin="round" stroke-width="0.397"/>
    <path id="Caminho_1016" data-name="Caminho 1016" d="M507.955,616.359l8.594,1.737,19.474-4.571-.731,15.817-19.657,5.029-7.954-1.463Z" transform="translate(-36.367 -444.108)" fill="none" stroke="#202f41" stroke-linecap="round" stroke-linejoin="round" stroke-width="0.397"/>
    <path id="Caminho_1017" data-name="Caminho 1017" d="M577.522,525.052l-22.583-1.463-274.1,15.451.183,36.937L353.8,590.332l185.509-24.96,38.217,4.3" transform="translate(-42.207 -446.424)" fill="none" stroke="#202f41" stroke-linecap="round" stroke-linejoin="round" stroke-width="0.397"/>
    <path id="Caminho_1018" data-name="Caminho 1018" d="M386.574,457.939l54.034-1.646,84.754,5.486-.549,11.52-1.28,27.337-84.846-.183-53.12-.091Z" transform="translate(-39.512 -448.157)" fill="none" stroke="#202f41" stroke-linecap="round" stroke-linejoin="round" stroke-width="0.397"/>
    <path id="Caminho_1019" data-name="Caminho 1019" d="M386.192,470.205l53.577-.274,85.028,3.291" transform="translate(-39.496 -447.805)" fill="none" stroke="#202f41" stroke-linecap="round" stroke-linejoin="round" stroke-width="0.397"/>
    <line id="Linha_812" data-name="Linha 812" y1="44.16" x2="1.92" transform="translate(399.178 8.137)" fill="none" stroke="#202f41" stroke-linecap="round" stroke-linejoin="round" stroke-width="0.397"/>
    <line id="Linha_760" data-name="Linha 760" x1="2.56" y2="43.246" transform="translate(510.172 77.166)" fill="none" stroke="#202f41" stroke-linecap="round" stroke-linejoin="round" stroke-width="0.397"/>
    <line id="Linha_790" data-name="Linha 790" x1="8.411" y1="2.103" transform="translate(452.938 171.52)" fill="none" stroke="#202f41" stroke-linecap="round" stroke-linejoin="round" stroke-width="0.397"/>
    <path id="Caminho_1020" data-name="Caminho 1020" d="M526.31,612.408l9.234,1.371,19.749-4.389.274-4.388-8.777-1.371" transform="translate(-35.887 -444.363)" fill="none" stroke="#202f41" stroke-linecap="round" stroke-linejoin="round" stroke-width="0.397"/>
    <path id="Caminho_1021" data-name="Caminho 1021" d="M528.449,607.985l7.223,1.371,19.84-4.388" transform="translate(-35.832 -444.328)" fill="none" stroke="#202f41" stroke-linecap="round" stroke-linejoin="round" stroke-width="0.397"/>
    <line id="Linha_761" data-name="Linha 761" y1="4.663" x2="0.183" transform="translate(499.656 164.754)" fill="none" stroke="#202f41" stroke-linecap="round" stroke-linejoin="round" stroke-width="0.397"/>
    <line id="Linha_762" data-name="Linha 762" y1="4.48" x2="0.091" transform="translate(490.424 163.566)" fill="none" stroke="#202f41" stroke-linecap="round" stroke-linejoin="round" stroke-width="0.397"/>
    <line id="Linha_763" data-name="Linha 763" x1="0.914" y2="16.274" transform="translate(479.27 173.989)" fill="none" stroke="#202f41" stroke-linecap="round" stroke-linejoin="round" stroke-width="0.397"/>
    <line id="Linha_764" data-name="Linha 764" y1="4.206" x2="18.834" transform="translate(471.59 168.046)" fill="none" stroke="#202f41" stroke-linecap="round" stroke-linejoin="round" stroke-width="0.397"/>
    <line id="Linha_816" data-name="Linha 816" x1="0.091" y2="14.263" transform="translate(401.646 192)" fill="none" stroke="#202f41" stroke-linecap="round" stroke-linejoin="round" stroke-width="0.397"/>
    <line id="Linha_817" data-name="Linha 817" y2="14.171" transform="translate(404.023 191.451)" fill="none" stroke="#202f41" stroke-linecap="round" stroke-linejoin="round" stroke-width="0.397"/>
    <line id="Linha_818" data-name="Linha 818" y2="14.629" transform="translate(386.652 195.383)" fill="none" stroke="#202f41" stroke-linecap="round" stroke-linejoin="round" stroke-width="0.397"/>
    <line id="Linha_819" data-name="Linha 819" y2="14.537" transform="translate(387.383 195.291)" fill="none" stroke="#202f41" stroke-linecap="round" stroke-linejoin="round" stroke-width="0.397"/>
    <line id="Linha_820" data-name="Linha 820" y2="14.354" transform="translate(396.344 193.188)" fill="none" stroke="#202f41" stroke-linecap="round" stroke-linejoin="round" stroke-width="0.397"/>
    <line id="Linha_821" data-name="Linha 821" y2="14.354" transform="translate(397.623 192.914)" fill="none" stroke="#202f41" stroke-linecap="round" stroke-linejoin="round" stroke-width="0.397"/>
    <line id="Linha_822" data-name="Linha 822" y2="13.989" transform="translate(412.434 189.531)" fill="none" stroke="#202f41" stroke-linecap="round" stroke-linejoin="round" stroke-width="0.397"/>
    <line id="Linha_823" data-name="Linha 823" y2="13.989" transform="translate(413.166 189.349)" fill="none" stroke="#202f41" stroke-linecap="round" stroke-linejoin="round" stroke-width="0.397"/>
    <line id="Linha_801" data-name="Linha 801" y2="13.897" transform="translate(421.578 187.428)" fill="none" stroke="#202f41" stroke-linecap="round" stroke-linejoin="round" stroke-width="0.397"/>
    <line id="Linha_802" data-name="Linha 802" y2="13.806" transform="translate(422.582 187.154)" fill="none" stroke="#202f41" stroke-linecap="round" stroke-linejoin="round" stroke-width="0.397"/>
    <line id="Linha_803" data-name="Linha 803" y2="13.989" transform="translate(426.148 186.331)" fill="none" stroke="#202f41" stroke-linecap="round" stroke-linejoin="round" stroke-width="0.397"/>
    <line id="Linha_804" data-name="Linha 804" y2="13.714" transform="translate(428.344 185.874)" fill="none" stroke="#202f41" stroke-linecap="round" stroke-linejoin="round" stroke-width="0.397"/>
    <line id="Linha_805" data-name="Linha 805" y2="13.623" transform="translate(436.48 183.954)" fill="none" stroke="#202f41" stroke-linecap="round" stroke-linejoin="round" stroke-width="0.397"/>
    <line id="Linha_806" data-name="Linha 806" y2="13.623" transform="translate(437.395 183.771)" fill="none" stroke="#202f41" stroke-linecap="round" stroke-linejoin="round" stroke-width="0.397"/>
    <line id="Linha_791" data-name="Linha 791" y2="13.349" transform="translate(445.898 181.851)" fill="none" stroke="#202f41" stroke-linecap="round" stroke-linejoin="round" stroke-width="0.397"/>
    <line id="Linha_792" data-name="Linha 792" y2="13.257" transform="translate(450.469 180.754)" fill="none" stroke="#202f41" stroke-linecap="round" stroke-linejoin="round" stroke-width="0.397"/>
    <path id="Caminho_1022" data-name="Caminho 1022" d="M48.2,606.127,83.4,626.15c18.377,10.606,28.251,19.749,19.383,29.715-7.315,8.229-12.525,12.068-18.286,22.125-3.291,5.851-4.022,12.068-1.279,18.285,2.01,4.389,8.045,10.332,14.446,16m267.885,0-8.045-3.84,226.012-67.017" transform="translate(-48.199 -444.298)" fill="none" stroke="#202f41" stroke-linecap="round" stroke-linejoin="round" stroke-width="0.397"/>
    <line id="Linha_833" data-name="Linha 833" x1="1.006" y2="30.08" transform="translate(386.012 22.217)" fill="none" stroke="#202f41" stroke-miterlimit="10" stroke-width="0.227"/>
    <line id="Linha_834" data-name="Linha 834" x1="1.189" y2="30.171" transform="translate(392.777 22.126)" fill="none" stroke="#202f41" stroke-miterlimit="10" stroke-width="0.227"/>
    <line id="Linha_835" data-name="Linha 835" x1="1.554" y2="30.08" transform="translate(405.486 22.309)" fill="none" stroke="#202f41" stroke-miterlimit="10" stroke-width="0.227"/>
    <line id="Linha_836" data-name="Linha 836" x1="1.28" y2="29.806" transform="translate(412.068 22.583)" fill="none" stroke="#202f41" stroke-miterlimit="10" stroke-width="0.227"/>
    <line id="Linha_807" data-name="Linha 807" x1="1.006" y2="29.531" transform="translate(418.285 22.857)" fill="none" stroke="#202f41" stroke-miterlimit="10" stroke-width="0.227"/>
    <line id="Linha_808" data-name="Linha 808" x1="1.097" y2="29.257" transform="translate(425.326 23.131)" fill="none" stroke="#202f41" stroke-miterlimit="10" stroke-width="0.227"/>
    <line id="Linha_809" data-name="Linha 809" x1="1.189" y2="29.074" transform="translate(431.359 23.314)" fill="none" stroke="#202f41" stroke-miterlimit="10" stroke-width="0.227"/>
    <line id="Linha_810" data-name="Linha 810" x1="1.097" y2="28.8" transform="translate(437.486 23.589)" fill="none" stroke="#202f41" stroke-miterlimit="10" stroke-width="0.227"/>
    <line id="Linha_793" data-name="Linha 793" x1="1.006" y2="28.526" transform="translate(443.338 23.863)" fill="none" stroke="#202f41" stroke-miterlimit="10" stroke-width="0.227"/>
    <line id="Linha_794" data-name="Linha 794" x1="1.097" y2="28.343" transform="translate(448.641 24.046)" fill="none" stroke="#202f41" stroke-miterlimit="10" stroke-width="0.227"/>
    <line id="Linha_795" data-name="Linha 795" x1="1.189" y2="28.16" transform="translate(453.943 24.229)" fill="none" stroke="#202f41" stroke-miterlimit="10" stroke-width="0.227"/>
    <line id="Linha_796" data-name="Linha 796" x1="1.097" y2="27.977" transform="translate(458.881 24.411)" fill="none" stroke="#202f41" stroke-miterlimit="10" stroke-width="0.227"/>
    <line id="Linha_797" data-name="Linha 797" x1="1.28" y2="27.886" transform="translate(463.635 24.594)" fill="none" stroke="#202f41" stroke-miterlimit="10" stroke-width="0.227"/>
    <line id="Linha_798" data-name="Linha 798" x1="1.189" y2="27.611" transform="translate(468.846 24.869)" fill="none" stroke="#202f41" stroke-miterlimit="10" stroke-width="0.227"/>
    <line id="Linha_765" data-name="Linha 765" x1="1.371" y2="26.971" transform="translate(474.516 25.051)" fill="none" stroke="#202f41" stroke-miterlimit="10" stroke-width="0.227"/>
    <line id="Linha_766" data-name="Linha 766" x1="1.28" y2="27.246" transform="translate(479.635 25.234)" fill="none" stroke="#202f41" stroke-miterlimit="10" stroke-width="0.227"/>
    <line id="Linha_842" data-name="Linha 842" x1="1.371" y2="49.006" transform="translate(393.691 83.84)" fill="none" stroke="#202f41" stroke-miterlimit="10" stroke-width="0.567"/>
    <line id="Linha_843" data-name="Linha 843" x1="1.646" y2="47.543" transform="translate(413.441 82.651)" fill="none" stroke="#202f41" stroke-miterlimit="10" stroke-width="0.567"/>
    <line id="Linha_811" data-name="Linha 811" x1="2.103" y2="45.989" transform="translate(432.092 81.646)" fill="none" stroke="#202f41" stroke-miterlimit="10" stroke-width="0.567"/>
    <line id="Linha_799" data-name="Linha 799" x1="1.829" y2="44.617" transform="translate(449.738 80.64)" fill="none" stroke="#202f41" stroke-miterlimit="10" stroke-width="0.567"/>
    <line id="Linha_800" data-name="Linha 800" x1="2.194" y2="43.337" transform="translate(466.377 79.726)" fill="none" stroke="#202f41" stroke-miterlimit="10" stroke-width="0.567"/>
    <line id="Linha_767" data-name="Linha 767" x1="2.011" y2="42.149" transform="translate(482.285 78.811)" fill="none" stroke="#202f41" stroke-miterlimit="10" stroke-width="0.567"/>
    <line id="Linha_768" data-name="Linha 768" x1="2.469" y2="41.051" transform="translate(497.098 77.897)" fill="none" stroke="#202f41" stroke-miterlimit="10" stroke-width="0.567"/>
    <rect id="Retângulo_41" data-name="Retângulo 41" width="254.811" height="267.337" transform="translate(535.314 0.64)" fill="#c2c2c3"/>
    <path id="Caminho_971" data-name="Caminho 971" d="M570.075,576.843,705.663,575.2l11.977,7.954-.366,71.131L705.3,653l-135.223.549" transform="translate(-34.76 -445.095)" fill="none" stroke="#202f41" stroke-linecap="round" stroke-linejoin="round" stroke-width="0.709"/>
    <path id="Caminho_972" data-name="Caminho 972" d="M753.377,666.475s.091-3.565.274-8.685c.275-11.7.823-31.086,1.006-34.012a70.17,70.17,0,0,1,.823-7.222l27.794.639s15.818.549,17.006,1.28,2.56,2.834,3.932,9.326c1.28,6.4,2.012,11.154,2.652,14.994.731,3.839,1.371,10.057,1.371,10.057s1.645,0,1.737,1.188v6.308s.184,3.658-1.1,4.3a3.461,3.461,0,0,1-2.378.456,2.579,2.579,0,0,0,.184,1.555c.365.456,1.28.823,1.371,3.291,0,2.378-.091,5.578-.366,6.034a2.348,2.348,0,0,1-.458.731,3.341,3.341,0,0,1,.824,2.469,8.25,8.25,0,0,1-1.189,4.3,8.495,8.495,0,0,1-3.474,2.56c-.64.091-3.84,1.28-3.932,1.28-.183.091-12.16.091-12.16.091s0-9.874-1.919-15.634c-1.92-5.851-7.863-7.954-9.235-8.137-1.463-.274-8.137-.64-10.971.184-2.925.914-6.766,4.3-8.594,8.685-1.829,4.3-3.2,12.525-3.2,12.525l-1.738.092s1.463-7.223,2.378-9.784c.914-2.652,2.377-5.668,2.743-6.491a16.739,16.739,0,0,1,1.463-2.194Z" transform="translate(-30.086 -444.03)" fill="none" stroke="#202f41" stroke-linecap="round" stroke-linejoin="round" stroke-width="0.709"/>
    <path id="Caminho_973" data-name="Caminho 973" d="M753.708,657.737l-4.3-.275.274-18.285c.092-2.743,1.1-16,1.189-17.1.183-1.006.549-2.469,1.645-3.018a6.006,6.006,0,0,1,2.652-.456" transform="translate(-30.143 -443.977)" fill="none" stroke="#202f41" stroke-linecap="round" stroke-linejoin="round" stroke-width="0.709"/>
    <path id="Caminho_974" data-name="Caminho 974" d="M770.286,668.609a14.767,14.767,0,1,1-14.9,14.721,14.808,14.808,0,0,1,14.9-14.721Z" transform="translate(-29.988 -442.69)" fill="none" stroke="#202f41" stroke-linecap="round" stroke-linejoin="round" stroke-width="0.709"/>
    <line id="Linha_731" data-name="Linha 731" y1="77.806" x2="0.366" transform="translate(670.537 130.103)" fill="none" stroke="#202f41" stroke-linecap="round" stroke-linejoin="round" stroke-width="0.709"/>
    <path id="Caminho_975" data-name="Caminho 975" d="M684.272,667.54a14.766,14.766,0,1,1-14.9,14.72,14.809,14.809,0,0,1,14.9-14.72Z" transform="translate(-32.203 -442.717)" fill="none" stroke="#202f41" stroke-linecap="round" stroke-linejoin="round" stroke-width="0.709"/>
    <path id="Caminho_1023" data-name="Caminho 1023" d="M646.836,667.362a14.766,14.766,0,1,1-14.9,14.719,14.73,14.73,0,0,1,14.9-14.719Z" transform="translate(-33.168 -442.722)" fill="none" stroke="#202f41" stroke-linecap="round" stroke-linejoin="round" stroke-width="0.709"/>
    <path id="Caminho_976" data-name="Caminho 976" d="M570.075,655.8l135.589-.64.091-4.023" transform="translate(-34.76 -443.139)" fill="none" stroke="#202f41" stroke-linecap="round" stroke-linejoin="round" stroke-width="0.709"/>
    <path id="Caminho_977" data-name="Caminho 977" d="M713.871,652.3l4.114.731v3.017l-15.726-.914" transform="translate(-31.355 -443.11)" fill="none" stroke="#202f41" stroke-linecap="round" stroke-linejoin="round" stroke-width="0.709"/>
    <path id="Caminho_978" data-name="Caminho 978" d="M586.029,448.985,793.3,579.362v42.331" transform="translate(-34.35 -448.345)" fill="none" stroke="#202f41" stroke-linecap="round" stroke-linejoin="round" stroke-width="0.709"/>
    <line id="Linha_732" data-name="Linha 732" x2="39.131" y2="10.24" transform="translate(682.789 165.12)" fill="none" stroke="#202f41" stroke-linecap="round" stroke-linejoin="round" stroke-width="0.709"/>
    <line id="Linha_769" data-name="Linha 769" x2="24.594" y2="6.857" transform="translate(535.314 124.617)" fill="none" stroke="#202f41" stroke-linecap="round" stroke-linejoin="round" stroke-width="0.709"/>
    <line id="Linha_733" data-name="Linha 733" x2="0.731" y2="54.674" transform="translate(738.561 118.126)" fill="none" stroke="#202f41" stroke-linecap="round" stroke-linejoin="round" stroke-width="0.709"/>
    <line id="Linha_734" data-name="Linha 734" x1="0.091" y2="71.223" transform="translate(712.32 101.669)" fill="none" stroke="#202f41" stroke-linecap="round" stroke-linejoin="round" stroke-width="0.709"/>
    <line id="Linha_735" data-name="Linha 735" x2="0.457" y2="55.131" transform="translate(675.566 78.354)" fill="none" stroke="#202f41" stroke-linecap="round" stroke-linejoin="round" stroke-width="0.709"/>
    <line id="Linha_770" data-name="Linha 770" x1="0.091" y2="85.577" transform="translate(622.721 45.074)" fill="none" stroke="#202f41" stroke-linecap="round" stroke-linejoin="round" stroke-width="0.709"/>
    <path id="Caminho_1024" data-name="Caminho 1024" d="M573.021,448.985c0,93.348-.183,131.108-.183,131.108" transform="translate(-34.688 -448.345)" fill="none" stroke="#202f41" stroke-linecap="round" stroke-linejoin="round" stroke-width="0.709"/>
    <path id="Caminho_1025" data-name="Caminho 1025" d="M584.341,489.986l64.64,32.457V534.6l-64.823-30.537.183-12.617Z" transform="translate(-34.398 -447.289)" fill="none" stroke="#202f41" stroke-linecap="round" stroke-linejoin="round" stroke-width="0.709"/>
    <path id="Caminho_1026" data-name="Caminho 1026" d="M647.6,533.927l.091-10.7-63.36-31.817" transform="translate(-34.393 -447.252)" fill="none" stroke="#202f41" stroke-linecap="round" stroke-linejoin="round" stroke-width="0.709"/>
    <path id="Caminho_979" data-name="Caminho 979" d="M662.243,529.472l40.5,20.754.091,9.783L662.06,540.535l.183-10.24Z" transform="translate(-32.391 -446.272)" fill="none" stroke="#202f41" stroke-linecap="round" stroke-linejoin="round" stroke-width="0.709"/>
    <path id="Caminho_980" data-name="Caminho 980" d="M702.01,559.623l-.091-8.96-39.68-20.389" transform="translate(-32.387 -446.252)" fill="none" stroke="#202f41" stroke-linecap="round" stroke-linejoin="round" stroke-width="0.709"/>
    <path id="Caminho_981" data-name="Caminho 981" d="M711.623,554.875l27.7,14.263.091,7.954-27.977-13.44.091-8.229Z" transform="translate(-31.121 -445.618)" fill="none" stroke="#202f41" stroke-linecap="round" stroke-linejoin="round" stroke-width="0.709"/>
    <path id="Caminho_982" data-name="Caminho 982" d="M738.866,576.8l-.091-7.314-27.246-14.08" transform="translate(-31.117 -445.604)" fill="none" stroke="#202f41" stroke-linecap="round" stroke-linejoin="round" stroke-width="0.709"/>
    <line id="Linha_771" data-name="Linha 771" y2="12.617" transform="translate(556.801 47.543)" fill="none" stroke="#202f41" stroke-linecap="round" stroke-linejoin="round" stroke-width="0.709"/>
    <line id="Linha_772" data-name="Linha 772" y2="12.343" transform="translate(564.207 51.291)" fill="none" stroke="#202f41" stroke-linecap="round" stroke-linejoin="round" stroke-width="0.709"/>
    <line id="Linha_773" data-name="Linha 773" y2="12.16" transform="translate(570.973 54.674)" fill="none" stroke="#202f41" stroke-linecap="round" stroke-linejoin="round" stroke-width="0.709"/>
    <line id="Linha_774" data-name="Linha 774" y2="11.886" transform="translate(577.828 58.149)" fill="none" stroke="#202f41" stroke-linecap="round" stroke-linejoin="round" stroke-width="0.709"/>
    <line id="Linha_775" data-name="Linha 775" y2="11.703" transform="translate(584.412 61.44)" fill="none" stroke="#202f41" stroke-linecap="round" stroke-linejoin="round" stroke-width="0.709"/>
    <line id="Linha_776" data-name="Linha 776" y2="11.429" transform="translate(590.721 64.64)" fill="none" stroke="#202f41" stroke-linecap="round" stroke-linejoin="round" stroke-width="0.709"/>
    <line id="Linha_777" data-name="Linha 777" y2="11.337" transform="translate(596.846 67.657)" fill="none" stroke="#202f41" stroke-linecap="round" stroke-linejoin="round" stroke-width="0.709"/>
    <line id="Linha_778" data-name="Linha 778" y2="10.971" transform="translate(602.697 70.674)" fill="none" stroke="#202f41" stroke-linecap="round" stroke-linejoin="round" stroke-width="0.709"/>
    <line id="Linha_779" data-name="Linha 779" y2="11.063" transform="translate(608.273 73.417)" fill="none" stroke="#202f41" stroke-linecap="round" stroke-linejoin="round" stroke-width="0.709"/>
    <line id="Linha_780" data-name="Linha 780" y2="10.057" transform="translate(633.783 86.126)" fill="none" stroke="#202f41" stroke-linecap="round" stroke-linejoin="round" stroke-width="0.709"/>
    <line id="Linha_781" data-name="Linha 781" y2="9.966" transform="translate(638.264 88.32)" fill="none" stroke="#202f41" stroke-linecap="round" stroke-linejoin="round" stroke-width="0.709"/>
    <line id="Linha_782" data-name="Linha 782" y2="9.874" transform="translate(642.652 90.606)" fill="none" stroke="#202f41" stroke-linecap="round" stroke-linejoin="round" stroke-width="0.709"/>
    <line id="Linha_783" data-name="Linha 783" y2="9.6" transform="translate(646.857 92.8)" fill="none" stroke="#202f41" stroke-linecap="round" stroke-linejoin="round" stroke-width="0.709"/>
    <line id="Linha_784" data-name="Linha 784" y2="9.6" transform="translate(650.973 94.903)" fill="none" stroke="#202f41" stroke-linecap="round" stroke-linejoin="round" stroke-width="0.709"/>
    <line id="Linha_785" data-name="Linha 785" y2="9.326" transform="translate(654.994 97.006)" fill="none" stroke="#202f41" stroke-linecap="round" stroke-linejoin="round" stroke-width="0.709"/>
    <line id="Linha_786" data-name="Linha 786" y2="9.143" transform="translate(658.926 99.017)" fill="none" stroke="#202f41" stroke-linecap="round" stroke-linejoin="round" stroke-width="0.709"/>
    <line id="Linha_787" data-name="Linha 787" y2="9.143" transform="translate(662.492 100.754)" fill="none" stroke="#202f41" stroke-linecap="round" stroke-linejoin="round" stroke-width="0.709"/>
    <line id="Linha_736" data-name="Linha 736" y2="8.96" transform="translate(666.148 102.674)" fill="none" stroke="#202f41" stroke-linecap="round" stroke-linejoin="round" stroke-width="0.709"/>
    <line id="Linha_737" data-name="Linha 737" y2="8.229" transform="translate(682.973 111.086)" fill="none" stroke="#202f41" stroke-linecap="round" stroke-linejoin="round" stroke-width="0.709"/>
    <line id="Linha_738" data-name="Linha 738" y2="7.954" transform="translate(686.08 112.731)" fill="none" stroke="#202f41" stroke-linecap="round" stroke-linejoin="round" stroke-width="0.709"/>
    <line id="Linha_739" data-name="Linha 739" y2="7.863" transform="translate(689.006 114.286)" fill="none" stroke="#202f41" stroke-linecap="round" stroke-linejoin="round" stroke-width="0.709"/>
    <line id="Linha_740" data-name="Linha 740" y2="7.863" transform="translate(691.932 115.749)" fill="none" stroke="#202f41" stroke-linecap="round" stroke-linejoin="round" stroke-width="0.709"/>
    <line id="Linha_741" data-name="Linha 741" y2="7.771" transform="translate(694.766 117.211)" fill="none" stroke="#202f41" stroke-linecap="round" stroke-linejoin="round" stroke-width="0.709"/>
    <line id="Linha_742" data-name="Linha 742" y2="7.68" transform="translate(697.508 118.583)" fill="none" stroke="#202f41" stroke-linecap="round" stroke-linejoin="round" stroke-width="0.709"/>
    <line id="Linha_743" data-name="Linha 743" y2="7.497" transform="translate(700.16 119.954)" fill="none" stroke="#202f41" stroke-linecap="round" stroke-linejoin="round" stroke-width="0.709"/>
    <line id="Linha_744" data-name="Linha 744" y2="7.406" transform="translate(702.721 121.326)" fill="none" stroke="#202f41" stroke-linecap="round" stroke-linejoin="round" stroke-width="0.709"/>
    <line id="Linha_745" data-name="Linha 745" y2="7.314" transform="translate(705.098 122.514)" fill="none" stroke="#202f41" stroke-linecap="round" stroke-linejoin="round" stroke-width="0.709"/>
    <path id="Caminho_983" data-name="Caminho 983" d="M634.829,673.529l-5.3-.091v-5.669l17.1-2.743,14.172.274v-2.56l95.817-.549" transform="translate(-33.229 -442.855)" fill="none" stroke="#202f41" stroke-linecap="round" stroke-linejoin="round" stroke-width="0.709"/>
    <path id="Caminho_1027" data-name="Caminho 1027" d="M665.358,661.1l5.669-2.743,17.189.091-.091,2.651-4.114,1.554-11.154.091Z" transform="translate(-32.307 -442.953)" fill="none" stroke="#202f41" stroke-linecap="round" stroke-linejoin="round" stroke-width="0.709"/>
    <line id="Linha_746" data-name="Linha 746" x2="95.726" transform="translate(627.566 222.446)" fill="none" stroke="#202f41" stroke-linecap="round" stroke-linejoin="round" stroke-width="0.709"/>
    <path id="Caminho_984" data-name="Caminho 984" d="M714.341,655.685l-7.04,4.48-19.749-.366" transform="translate(-31.734 -443.022)" fill="none" stroke="#202f41" stroke-linecap="round" stroke-linejoin="round" stroke-width="0.709"/>
    <path id="Caminho_1028" data-name="Caminho 1028" d="M570.075,666.567h5.3l34.011-4.023,28.069-3.383,33.189.549" transform="translate(-34.76 -442.933)" fill="none" stroke="#202f41" stroke-linecap="round" stroke-linejoin="round" stroke-width="0.709"/>
    <path id="Caminho_1029" data-name="Caminho 1029" d="M609.182,662.37l.091,20.3-2.743,1.92,8.5.366-2.743-3.017" transform="translate(-33.82 -442.85)" fill="none" stroke="#202f41" stroke-linecap="round" stroke-linejoin="round" stroke-width="0.709"/>
    <path id="Caminho_1030" data-name="Caminho 1030" d="M612.328,662.016l-.183,19.931,1.006-.366V661.924" transform="translate(-33.676 -442.862)" fill="none" stroke="#202f41" stroke-linecap="round" stroke-linejoin="round" stroke-width="0.709"/>
    <path id="Caminho_1031" data-name="Caminho 1031" d="M620.86,661.033v21.12l-2.743,1.92,8.5.366-2.651-3.109" transform="translate(-33.523 -442.885)" fill="none" stroke="#202f41" stroke-linecap="round" stroke-linejoin="round" stroke-width="0.709"/>
    <path id="Caminho_1032" data-name="Caminho 1032" d="M623.913,660.59l-.091,20.754,1.006-.366V660.5" transform="translate(-33.375 -442.898)" fill="none" stroke="#202f41" stroke-linecap="round" stroke-linejoin="round" stroke-width="0.709"/>
    <path id="Caminho_985" data-name="Caminho 985" d="M750.232,623.508a5.578,5.578,0,0,0-2.011,3.748c-.183,2.378-.823,11.8-.823,11.8a19.476,19.476,0,0,0-.731,5.119c-.183,3.2-.731,7.68-.731,10.331s.091,8.686.091,8.686" transform="translate(-30.23 -443.851)" fill="none" stroke="#202f41" stroke-linecap="round" stroke-linejoin="round" stroke-width="0.709"/>
    <path id="Caminho_986" data-name="Caminho 986" d="M730.711,661.755c-3.749-9.051,7.771-14.537,13.348-8.411,1.1,1.188,1.92,2.01,1.92,2.01" transform="translate(-30.643 -443.149)" fill="none" stroke="#202f41" stroke-linecap="round" stroke-linejoin="round" stroke-width="0.709"/>
    <path id="Caminho_987" data-name="Caminho 987" d="M734.008,661.129s-1.463-3.292-.091-5.394c2.194-3.474,8.046-1.829,8.685,1.006.275,1.371-.274,4.937-1.005,5.393" transform="translate(-30.557 -443.072)" fill="none" stroke="#202f41" stroke-linecap="round" stroke-linejoin="round" stroke-width="0.709"/>
    <path id="Caminho_988" data-name="Caminho 988" d="M702.259,669.282l.184,12.069c1.554,2.834,8.045,2.377,8.411,0l-.183-12.709c-2.378-2.01-6.675-1.645-8.412.64Z" transform="translate(-31.355 -442.723)" fill="none" stroke="#202f41" stroke-linecap="round" stroke-linejoin="round" stroke-width="0.709"/>
    <line id="Linha_747" data-name="Linha 747" x2="8.411" transform="translate(670.994 227.931)" fill="none" stroke="#202f41" stroke-linecap="round" stroke-linejoin="round" stroke-width="0.709"/>
    <line id="Linha_748" data-name="Linha 748" x2="8.411" transform="translate(670.994 232.228)" fill="none" stroke="#202f41" stroke-linecap="round" stroke-linejoin="round" stroke-width="0.709"/>
    <line id="Linha_749" data-name="Linha 749" x2="8.411" transform="translate(671.086 238.628)" fill="none" stroke="#202f41" stroke-linecap="round" stroke-linejoin="round" stroke-width="0.709"/>
    <rect id="Retângulo_42" data-name="Retângulo 42" width="35.383" height="1.371" transform="translate(679.314 224.64)" fill="none" stroke="#202f41" stroke-linecap="round" stroke-linejoin="round" stroke-width="0.709"/>
    <path id="Caminho_989" data-name="Caminho 989" d="M769.3,675.562a7.68,7.68,0,1,1-7.68,7.68,7.746,7.746,0,0,1,7.68-7.68Z" transform="translate(-29.828 -442.511)" fill="none" stroke="#202f41" stroke-linecap="round" stroke-linejoin="round" stroke-width="0.709"/>
    <path id="Caminho_990" data-name="Caminho 990" d="M769.08,677.434a5.852,5.852,0,1,1-5.942,5.851,5.853,5.853,0,0,1,5.942-5.851Z" transform="translate(-29.789 -442.462)" fill="none" stroke="#202f41" stroke-linecap="round" stroke-linejoin="round" stroke-width="0.709"/>
    <path id="Caminho_991" data-name="Caminho 991" d="M768.747,680.2a3.26,3.26,0,0,1,3.292,3.2,3.293,3.293,0,0,1-6.583,0,3.259,3.259,0,0,1,3.292-3.2Z" transform="translate(-29.729 -442.391)" fill="none" stroke="#202f41" stroke-linecap="round" stroke-linejoin="round" stroke-width="0.709"/>
    <path id="Caminho_1033" data-name="Caminho 1033" d="M684.2,673.334a8.366,8.366,0,1,1-8.411,8.411,8.389,8.389,0,0,1,8.411-8.411Z" transform="translate(-32.039 -442.568)" fill="none" stroke="#202f41" stroke-linecap="round" stroke-linejoin="round" stroke-width="0.709"/>
    <path id="Caminho_1034" data-name="Caminho 1034" d="M683.972,675.384a6.4,6.4,0,0,1,0,12.8,6.4,6.4,0,1,1,0-12.8Z" transform="translate(-31.994 -442.515)" fill="none" stroke="#202f41" stroke-linecap="round" stroke-linejoin="round" stroke-width="0.709"/>
    <path id="Caminho_1035" data-name="Caminho 1035" d="M683.542,678.414a3.551,3.551,0,0,1,3.565,3.474,3.565,3.565,0,0,1-7.131,0,3.551,3.551,0,0,1,3.565-3.474Z" transform="translate(-31.93 -442.437)" fill="none" stroke="#202f41" stroke-linecap="round" stroke-linejoin="round" stroke-width="0.709"/>
    <path id="Caminho_1036" data-name="Caminho 1036" d="M646.673,673.423a8.32,8.32,0,1,1,0,16.64,8.32,8.32,0,1,1,0-16.64Z" transform="translate(-33.004 -442.566)" fill="none" stroke="#202f41" stroke-linecap="round" stroke-linejoin="round" stroke-width="0.709"/>
    <path id="Caminho_1037" data-name="Caminho 1037" d="M646.355,675.384a6.4,6.4,0,1,1,0,12.8,6.4,6.4,0,0,1,0-12.8Z" transform="translate(-32.961 -442.515)" fill="none" stroke="#202f41" stroke-linecap="round" stroke-linejoin="round" stroke-width="0.709"/>
    <path id="Caminho_1038" data-name="Caminho 1038" d="M646.017,678.414a3.52,3.52,0,1,1,0,7.04,3.52,3.52,0,1,1,0-7.04Z" transform="translate(-32.896 -442.437)" fill="none" stroke="#202f41" stroke-linecap="round" stroke-linejoin="round" stroke-width="0.709"/>
    <path id="Caminho_992" data-name="Caminho 992" d="M769.841,678.236a.731.731,0,1,1-.732.731.786.786,0,0,1,.732-.731Z" transform="translate(-29.635 -442.442)" fill="none" stroke="#202f41" stroke-linecap="round" stroke-linejoin="round" stroke-width="0.709"/>
    <path id="Caminho_993" data-name="Caminho 993" d="M772.156,679.84a.721.721,0,0,1,.731.731.706.706,0,0,1-.731.64.625.625,0,0,1-.64-.64.652.652,0,0,1,.64-.731Z" transform="translate(-29.574 -442.4)" fill="none" stroke="#202f41" stroke-linecap="round" stroke-linejoin="round" stroke-width="0.709"/>
    <path id="Caminho_994" data-name="Caminho 994" d="M773.136,682.514a.674.674,0,0,1,.732.731.653.653,0,0,1-.732.64.624.624,0,0,1-.639-.64.652.652,0,0,1,.639-.731Z" transform="translate(-29.547 -442.332)" fill="none" stroke="#202f41" stroke-linecap="round" stroke-linejoin="round" stroke-width="0.709"/>
    <path id="Caminho_995" data-name="Caminho 995" d="M772.425,685.1a.707.707,0,0,1,.64.731.624.624,0,0,1-.64.64.707.707,0,0,1-.731-.64.787.787,0,0,1,.731-.731Z" transform="translate(-29.568 -442.265)" fill="none" stroke="#202f41" stroke-linecap="round" stroke-linejoin="round" stroke-width="0.709"/>
    <path id="Caminho_996" data-name="Caminho 996" d="M770.286,686.882a.706.706,0,0,1,.64.731.625.625,0,0,1-.64.64.653.653,0,0,1-.731-.64.721.721,0,0,1,.731-.731Z" transform="translate(-29.623 -442.219)" fill="none" stroke="#202f41" stroke-linecap="round" stroke-linejoin="round" stroke-width="0.709"/>
    <path id="Caminho_997" data-name="Caminho 997" d="M767.521,686.971a.706.706,0,0,1,.731.64.721.721,0,0,1-.731.731.652.652,0,0,1-.64-.731.625.625,0,0,1,.64-.64Z" transform="translate(-29.691 -442.217)" fill="none" stroke="#202f41" stroke-linecap="round" stroke-linejoin="round" stroke-width="0.709"/>
    <path id="Caminho_998" data-name="Caminho 998" d="M765.384,685.367a.738.738,0,0,1,0,1.463.731.731,0,0,1,0-1.463Z" transform="translate(-29.75 -442.258)" fill="none" stroke="#202f41" stroke-linecap="round" stroke-linejoin="round" stroke-width="0.709"/>
    <path id="Caminho_999" data-name="Caminho 999" d="M764.314,682.871a.706.706,0,0,1,.731.64.731.731,0,1,1-1.463,0,.707.707,0,0,1,.731-.64Z" transform="translate(-29.777 -442.322)" fill="none" stroke="#202f41" stroke-linecap="round" stroke-linejoin="round" stroke-width="0.709"/>
    <path id="Caminho_1000" data-name="Caminho 1000" d="M765.027,680.2a.738.738,0,0,1,0,1.463.731.731,0,0,1,0-1.463Z" transform="translate(-29.758 -442.391)" fill="none" stroke="#202f41" stroke-linecap="round" stroke-linejoin="round" stroke-width="0.709"/>
    <path id="Caminho_1001" data-name="Caminho 1001" d="M767.077,678.414a.652.652,0,0,1,.64.731.624.624,0,0,1-.64.64.707.707,0,0,1-.731-.64.722.722,0,0,1,.731-.731Z" transform="translate(-29.707 -442.437)" fill="none" stroke="#202f41" stroke-linecap="round" stroke-linejoin="round" stroke-width="0.709"/>
    <line id="Linha_750" data-name="Linha 750" x1="1.646" y2="46.354" transform="translate(742.766 172.983)" fill="none" stroke="#202f41" stroke-linecap="round" stroke-linejoin="round" stroke-width="0.709"/>
    <path id="Caminho_1002" data-name="Caminho 1002" d="M760.8,619.586h3.748a1.856,1.856,0,0,1,1.92,1.829l-.64,15.817a1.856,1.856,0,0,1-1.828,1.92h-3.84a1.932,1.932,0,0,1-1.92-1.92l.64-15.817a1.979,1.979,0,0,1,1.92-1.829Z" transform="translate(-29.914 -443.952)" fill="none" stroke="#202f41" stroke-linecap="round" stroke-linejoin="round" stroke-width="0.709"/>
    <path id="Caminho_1003" data-name="Caminho 1003" d="M777.9,620.21l18.1,1.005c1.189.184,2.012.184,2.194,1.738l2.469,18.011c.091,1.371-.549,1.92-1.738,1.92l-21.485-2.652c-1.189-.274-1.92-1.188-1.92-2.834l.183-15.268a1.786,1.786,0,0,1,2.2-1.92Z" transform="translate(-29.469 -443.936)" fill="none" stroke="#202f41" stroke-linecap="round" stroke-linejoin="round" stroke-width="0.709"/>
    <path id="Caminho_1004" data-name="Caminho 1004" d="M773.038,651.763a1.858,1.858,0,0,1,1.1.184c.274.365,1.554,3.474,1.554,3.474a.988.988,0,0,1,.183.731c-.091.365-1.005.456-1.919.456a4.566,4.566,0,0,1-1.189-.091" transform="translate(-29.541 -443.124)" fill="none" stroke="#202f41" stroke-linecap="round" stroke-linejoin="round" stroke-width="0.709"/>
    <path id="Caminho_1005" data-name="Caminho 1005" d="M753.6,657.468l20.389.823a7.536,7.536,0,0,1,6.126,1.554c3.292,2.286,3.2,3.474,5.577,3.658s21.029.548,21.029.548" transform="translate(-30.035 -442.976)" fill="none" stroke="#202f41" stroke-linecap="round" stroke-linejoin="round" stroke-width="0.709"/>
    <path id="Caminho_1006" data-name="Caminho 1006" d="M774.368,617.714l24.229,1.371a30.459,30.459,0,0,1,2.559,7.588c.366,3.109,2.743,17.006,2.469,27.7-.183,10.7.091,10.7.091,10.7" transform="translate(-29.5 -444)" fill="none" stroke="#202f41" stroke-linecap="round" stroke-linejoin="round" stroke-width="0.709"/>
    <path id="Caminho_1039" data-name="Caminho 1039" d="M658.138,673.322l9.143-3.109,6.491,1.829" transform="translate(-32.492 -442.648)" fill="none" stroke="#202f41" stroke-linecap="round" stroke-linejoin="round" stroke-width="0.709"/>
    <line id="Linha_788" data-name="Linha 788" x2="10.606" y2="0.183" transform="translate(627.566 234.148)" fill="none" stroke="#202f41" stroke-linecap="round" stroke-linejoin="round" stroke-width="0.709"/>
    <line id="Linha_789" data-name="Linha 789" x2="8.869" y2="0.091" transform="translate(628.389 239.451)" fill="none" stroke="#202f41" stroke-linecap="round" stroke-linejoin="round" stroke-width="0.709"/>
    <line id="Linha_751" data-name="Linha 751" x2="52.48" y2="0.091" transform="translate(664.961 232.228)" fill="none" stroke="#202f41" stroke-linecap="round" stroke-linejoin="round" stroke-width="0.709"/>
    <path id="Caminho_1007" data-name="Caminho 1007" d="M734.176,672.994v2.469l-.274,7.589,13.9.274.091-7.68.183-10.423" transform="translate(-30.541 -442.777)" fill="none" stroke="#202f41" stroke-linecap="round" stroke-linejoin="round" stroke-width="0.709"/>
    <line id="Linha_752" data-name="Linha 752" x2="24.686" y2="0.183" transform="translate(678.766 239.726)" fill="none" stroke="#202f41" stroke-linecap="round" stroke-linejoin="round" stroke-width="0.709"/>
    <path id="Caminho_1008" data-name="Caminho 1008" d="M720.178,668.7l-.091,5.394,14.446.366V668.7" transform="translate(-30.898 -442.687)" fill="none" stroke="#202f41" stroke-linecap="round" stroke-linejoin="round" stroke-width="0.709"/>
    <line id="Linha_753" data-name="Linha 753" x1="0.183" y2="5.486" transform="translate(692.48 226.011)" fill="none" stroke="#202f41" stroke-linecap="round" stroke-linejoin="round" stroke-width="0.709"/>
    <line id="Linha_754" data-name="Linha 754" x1="0.091" y2="5.577" transform="translate(696.594 226.011)" fill="none" stroke="#202f41" stroke-linecap="round" stroke-linejoin="round" stroke-width="0.709"/>
    <line id="Linha_755" data-name="Linha 755" x1="0.091" y2="5.669" transform="translate(700.252 226.011)" fill="none" stroke="#202f41" stroke-linecap="round" stroke-linejoin="round" stroke-width="0.709"/>
    <path id="Caminho_1009" data-name="Caminho 1009" d="M786.134,664.7l1.92,6.126s.183.365,1.463.456l.64.091,8.685.091s1.1.092,1.189-.365c0-.366.091-2.1.091-2.1l.184-4.754" transform="translate(-29.195 -442.802)" fill="none" stroke="#202f41" stroke-linecap="round" stroke-linejoin="round" stroke-width="0.709"/>
    <path id="Caminho_1010" data-name="Caminho 1010" d="M789.273,676.189a15,15,0,0,1-.731-2.926c0-.456.091-.731,1.1-.731,1.006-.091,10.606.091,10.606.091" transform="translate(-29.135 -442.589)" fill="none" stroke="#202f41" stroke-linecap="round" stroke-linejoin="round" stroke-width="0.709"/>
    <line id="Linha_756" data-name="Linha 756" x2="5.943" y2="0.366" transform="translate(771.199 232.32)" fill="none" stroke="#202f41" stroke-linecap="round" stroke-linejoin="round" stroke-width="0.709"/>
    <path id="Caminho_1011" data-name="Caminho 1011" d="M787.382,677.409l12.251.549.731-3.109" transform="translate(-29.164 -442.529)" fill="none" stroke="#202f41" stroke-linecap="round" stroke-linejoin="round" stroke-width="0.709"/>
    <line id="Linha_757" data-name="Linha 757" x1="0.823" y2="9.783" transform="translate(772.48 232.503)" fill="none" stroke="#202f41" stroke-linecap="round" stroke-linejoin="round" stroke-width="0.709"/>
    <line id="Linha_758" data-name="Linha 758" y1="0.091" x2="8.869" transform="translate(760.869 239.726)" fill="none" stroke="#202f41" stroke-linecap="round" stroke-linejoin="round" stroke-width="0.709"/>
    <line id="Linha_759" data-name="Linha 759" x1="4.846" y1="0.091" transform="translate(666.973 239.36)" fill="none" stroke="#202f41" stroke-linecap="round" stroke-linejoin="round" stroke-width="0.709"/>
    <path id="Caminho_1012" data-name="Caminho 1012" d="M771.731,643.216l-5.029-.366,4.937,5.943Z" transform="translate(-29.697 -443.353)" fill="none" stroke="#202f41" stroke-linecap="round" stroke-linejoin="round" stroke-width="0.709"/>
    <path id="Caminho_849" data-name="Caminho 849" d="M1153.793,541.23h10.24V520.842l15.908,20.388h9.052V504.019h-10.24v19.657l-15.361-19.657h-9.6Zm49.371.64a10.847,10.847,0,0,0,8.5-3.565v2.925h9.965V524.682c0-4.023-.914-6.948-3.017-9.143-2.286-2.285-5.852-3.474-10.971-3.474a30.326,30.326,0,0,0-11.7,2.194l2.1,7.131a20.569,20.569,0,0,1,7.954-1.554c3.84,0,5.761,1.738,5.761,4.663v.458a24.044,24.044,0,0,0-6.948-1.1c-6.766,0-11.246,3.109-11.246,9.051V533c0,5.761,4.206,8.869,9.6,8.869Zm3.658-6.308c-2.1,0-3.566-1.189-3.566-3.108v-.092c0-2.194,1.738-3.566,4.663-3.566a10.069,10.069,0,0,1,3.932.731v1.28c0,2.925-2.1,4.754-5.028,4.754Zm35.291,5.668h10.331V529.985h4.48l7.5,11.245H1276.4l-8.869-12.983a11.674,11.674,0,0,0,7.588-11.428v-.091a11.643,11.643,0,0,0-3.292-8.686c-2.468-2.56-6.4-4.023-12.068-4.023h-17.646Zm10.331-19.291v-8.96h6.766c3.474,0,5.577,1.463,5.577,4.389v.091c0,2.743-2.011,4.479-5.577,4.479Zm41.509,20.023c9.234,0,15.908-6.857,15.908-15.086v-.091c0-8.137-6.583-14.9-15.817-14.9s-16,6.857-16,14.993v.092c0,8.229,6.674,14.993,15.909,14.993Zm.091-8.594a6.213,6.213,0,0,1-6.126-6.492v-.091c0-3.474,2.377-6.4,6.035-6.4a6.267,6.267,0,0,1,6.126,6.491v.092c0,3.474-2.378,6.4-6.034,6.4Zm31.268,8.5a14.569,14.569,0,0,0,7.041-1.645V532.27a9.825,9.825,0,0,1-3.84.915c-1.92,0-2.743-.824-2.743-2.835v-9.691h6.675v-8.137h-6.675v-7.314h-10.149v7.314h-3.383v8.137h3.383v11.7c0,6.857,3.658,9.509,9.691,9.509Zm19.749,0a10.644,10.644,0,0,0,8.411-3.565v2.925h9.966V524.682c0-4.023-.823-6.948-3.017-9.143-2.286-2.285-5.852-3.474-10.971-3.474a29.493,29.493,0,0,0-11.611,2.194l2.012,7.131a20.568,20.568,0,0,1,7.954-1.554c3.84,0,5.761,1.738,5.761,4.663v.458a23.519,23.519,0,0,0-6.948-1.1c-6.766,0-11.246,3.109-11.246,9.051V533c0,5.761,4.206,8.869,9.691,8.869Zm3.565-6.308c-2.01,0-3.565-1.189-3.565-3.108v-.092c0-2.194,1.738-3.566,4.663-3.566a10.07,10.07,0,0,1,3.932.731v1.28c0,2.925-2.1,4.754-5.029,4.754Zm46.355,6.308a10.314,10.314,0,0,0,8.777-4.479v3.839h10.149V502.465h-10.149V516a10.8,10.8,0,0,0-8.777-4.114c-6.857,0-12.708,5.668-12.708,14.993v.092c0,9.234,5.942,14.9,12.708,14.9Zm3.109-8.411c-3.2,0-5.852-2.743-5.852-6.583v-.091c0-3.839,2.652-6.491,5.852-6.491,3.291,0,5.851,2.743,5.851,6.491v.091c0,3.84-2.56,6.583-5.851,6.583Zm29.44,8.411a10.847,10.847,0,0,0,8.5-3.565v2.925H1446V524.682c0-4.023-.914-6.948-3.108-9.143-2.285-2.285-5.76-3.474-10.88-3.474a30.334,30.334,0,0,0-11.7,2.194l2.1,7.131a20.241,20.241,0,0,1,7.955-1.554c3.839,0,5.668,1.738,5.668,4.663v.458a22.847,22.847,0,0,0-6.857-1.1c-6.766,0-11.245,3.109-11.245,9.051V533c0,5.761,4.114,8.869,9.6,8.869Zm3.657-6.308c-2.1,0-3.565-1.189-3.565-3.108v-.092c0-2.194,1.737-3.566,4.662-3.566a10.062,10.062,0,0,1,3.932.731v1.28c0,2.925-2.1,4.754-5.028,4.754Zm-280.32,64.457h10.789l2.651-6.675h14.354l2.743,6.675h11.064l-15.818-37.486h-9.965Zm16.457-14.72,4.206-10.515,4.206,10.515Zm37.12,15.36a10.51,10.51,0,0,0,8.595-4.572v3.932h10.148v-28.8H1213.04v15.634c0,3.108-1.829,4.846-4.207,4.846-2.468,0-4.114-1.738-4.114-4.846V571.219h-10.056v18.835c0,6.582,3.657,10.605,9.782,10.605Zm35.566-.091a14.564,14.564,0,0,0,7.04-1.645v-7.863a9.824,9.824,0,0,1-3.839.914c-1.92,0-2.743-.823-2.743-2.834v-9.783h6.674v-8.137h-6.674V564h-10.149v7.222h-3.383v8.137h3.383v11.7c0,6.857,3.657,9.509,9.691,9.509Zm25.326.183c9.325,0,16-6.857,16-15.086v-.091c0-8.229-6.675-14.994-15.817-14.994-9.326,0-16,6.857-16,15.086v.091c0,8.229,6.673,14.994,15.817,14.994Zm.183-8.594a6.269,6.269,0,0,1-6.126-6.492v-.091c0-3.474,2.286-6.4,5.943-6.4a6.268,6.268,0,0,1,6.126,6.491v.091c0,3.474-2.286,6.4-5.943,6.4Zm19.475-4.3h17.462V578.99h-17.462Zm33.737,12.8c7.04,0,11.7-3.292,11.7-9.6v-.091c0-5.668-4.48-7.588-10.149-9.143-3.108-.915-4.754-1.464-4.754-2.56v-.183c0-.731.823-1.371,2.378-1.371a19.254,19.254,0,0,1,8.5,2.651l3.474-6.308A22,22,0,0,0,1318,570.67c-6.674,0-11.52,3.383-11.52,9.509v.091c0,5.852,4.479,7.772,10.24,9.235,3.017.823,4.571,1.28,4.571,2.468v.092c0,1.005-.731,1.554-2.559,1.554a19.474,19.474,0,0,1-9.875-3.292l-3.748,6.034a22.767,22.767,0,0,0,13.623,4.3Zm25.417,0c4.114,0,6.766-2.194,8.686-4.572v3.932h10.056v-28.8h-10.056v15.634c0,3.108-1.829,4.846-4.207,4.846-2.468,0-4.114-1.738-4.114-4.846V571.219h-10.148v18.835c0,6.582,3.657,10.605,9.783,10.605Zm45.622-32h10.606v-7.5H1389.77Zm-19.656,2.743h-3.292v7.955h3.292v20.663h10.056V579.356h6.492v-7.771h-6.675v-.731c0-1.829,1.006-2.652,2.926-2.652a12.377,12.377,0,0,1,3.749.549v-7.132a22.175,22.175,0,0,0-6.583-.823c-3.383,0-5.76.731-7.5,2.56-1.737,1.645-2.468,4.114-2.468,7.4Zm19.931,28.617H1400.1v-28.8h-10.057Zm29.623.731c6.308,0,10.149-2.743,12.8-6.675l-6.766-4.846c-1.554,1.829-3.109,3.018-5.486,3.018-3.474,0-5.761-2.834-5.761-6.583v-.091c0-3.565,2.378-6.4,5.578-6.4a6.172,6.172,0,0,1,5.393,3.017l6.857-5.12c-2.468-3.84-6.4-6.4-12.251-6.4-9.143,0-15.452,6.857-15.452,14.994v.091a14.907,14.907,0,0,0,15.086,14.994Zm16.366-32.092h10.514v-7.5h-10.514Zm.182,31.36h10.149v-28.8h-10.149Zm29.989.731a15.168,15.168,0,0,0,12.526-5.851l-5.577-4.663c-2.1,2.011-4.023,2.925-6.4,2.925a5.931,5.931,0,0,1-6.217-4.754h19.291V586.4c0-8.5-4.572-15.817-14.537-15.817-8.5,0-14.446,6.674-14.446,15.086v.091c0,8.96,6.308,14.994,15.36,14.994Zm-5.852-17.462c.549-3.2,2.378-5.212,5.029-5.212,2.743,0,4.663,2.012,5.028,5.212Zm-5.851-14.354h6.308l4.48-3.292,4.479,3.292h6.492l-6.766-8.777h-8.229Zm29.623,31.085h10.149V584.476c0-3.2,1.737-4.846,4.206-4.846,2.378,0,4.023,1.646,4.023,4.846v15.543h10.149V581.185c0-6.492-3.658-10.606-9.783-10.606-4.114,0-6.765,2.286-8.594,4.754v-4.114h-10.149Zm47.635.731c6.308,0,10.148-2.743,12.8-6.675l-6.766-4.846c-1.554,1.829-3.108,3.018-5.486,3.018-3.474,0-5.76-2.834-5.76-6.583v-.091c0-3.565,2.377-6.4,5.577-6.4a6.172,6.172,0,0,1,5.395,3.017l6.857-5.12c-2.469-3.84-6.4-6.4-12.252-6.4-9.142,0-15.451,6.857-15.451,14.994v.091a14.907,14.907,0,0,0,15.086,14.994Zm16.366-32.092h10.514v-7.5h-10.514Zm.183,31.36h10.149v-28.8h-10.149Zm24.046.64a10.7,10.7,0,0,0,8.411-3.657v3.017h9.966V583.471c0-4.023-.823-7.04-3.018-9.143-2.285-2.286-5.851-3.474-10.971-3.474a30.334,30.334,0,0,0-11.7,2.194l2.1,7.131a20.573,20.573,0,0,1,7.955-1.554c3.839,0,5.76,1.645,5.76,4.663v.456a23.545,23.545,0,0,0-6.948-1.1c-6.766,0-11.245,3.108-11.245,9.051v.091c0,5.761,4.206,8.869,9.691,8.869Zm3.566-6.308c-2.1,0-3.566-1.189-3.566-3.2v-.091c0-2.1,1.737-3.565,4.663-3.565a12.03,12.03,0,0,1,3.931.731V589.6a4.685,4.685,0,0,1-5.028,4.754Zm-425.051,64.457h10.789l2.651-6.675h14.354l2.743,6.675h11.064l-15.818-37.486h-9.965Zm16.457-14.721,4.206-10.605,4.206,10.605Zm28.342,14.721h10.149V619.95h-10.149Zm15.817-31.36H1222v-7.5h-10.515Zm.184,31.36h10.057v-28.8h-10.057Zm15.726,0h10.148V643.173c0-3.2,1.646-4.846,4.023-4.846,2.469,0,3.932,1.645,3.932,4.846v15.635h10.149V643.173c0-3.2,1.737-4.846,4.114-4.846s3.932,1.645,3.932,4.846v15.635h10.148V639.882c0-6.673-3.748-10.514-9.874-10.514a12.091,12.091,0,0,0-9.6,4.663,8.936,8.936,0,0,0-8.32-4.663,10.469,10.469,0,0,0-8.5,4.572v-3.932h-10.148Zm65.92.64c5.76,0,9.691-2.285,12.434-5.852l-5.577-4.571a8.5,8.5,0,0,1-6.309,2.925,5.889,5.889,0,0,1-6.217-4.754h19.2a16.72,16.72,0,0,0,.092-2.1c0-8.411-4.572-15.726-14.538-15.726-8.5,0-14.537,6.675-14.537,15.086v.091c0,8.96,6.4,14.9,15.452,14.9Zm-5.852-17.371c.549-3.2,2.286-5.3,4.937-5.3,2.834,0,4.663,2.1,5.029,5.3Zm23.772,16.731h10.056V643.173c0-3.108,1.829-4.846,4.3-4.846,2.377,0,4.023,1.738,4.023,4.846v15.635h10.148V639.973c0-6.582-3.748-10.605-9.874-10.605-4.023,0-6.675,2.285-8.595,4.663v-4.023h-10.056Zm45.166.549a14.18,14.18,0,0,0,6.948-1.646v-7.954a8.019,8.019,0,0,1-3.84,1.005c-1.828,0-2.743-.823-2.743-2.925v-9.691h6.675v-8.137h-6.675v-7.315h-10.056v7.315h-3.474v8.137h3.474v11.7c0,6.857,3.565,9.509,9.691,9.509Zm19.656.091a10.9,10.9,0,0,0,8.5-3.657v3.017h9.965V642.259c0-4.023-.914-7.041-3.108-9.143-2.286-2.285-5.761-3.566-10.88-3.566a28.636,28.636,0,0,0-11.7,2.286l2.1,7.131a20.261,20.261,0,0,1,7.955-1.645c3.839,0,5.668,1.737,5.668,4.754v.456a20.289,20.289,0,0,0-6.857-1.1c-6.766,0-11.338,3.017-11.338,8.96v.183c0,5.668,4.206,8.869,9.691,8.869Zm3.658-6.4c-2.1,0-3.566-1.1-3.566-3.109v-.091c0-2.1,1.737-3.565,4.662-3.565a12.032,12.032,0,0,1,3.932.731v1.371c0,2.834-2.1,4.663-5.028,4.663Zm20.023,5.76h10.057v-8.96c0-6.675,3.017-9.691,8.229-9.691h.914V629.55c-4.846-.274-7.5,2.286-9.143,6.217v-5.76h-10.057Z" transform="translate(-19.805 -446.968)" fill="#fff"/>
  </g>
</svg>
