<svg xmlns="http://www.w3.org/2000/svg" width="1107.022" height="537.578" viewBox="0 0 1107.022 537.578">
  <g id="imagem_indústria" data-name="imagem indústria" transform="translate(-813.725 -2178.931)">
    <g id="Grupo_1" data-name="Grupo 1" transform="translate(15 -591)" opacity="0.35">
      <path id="Caminho_244" data-name="Caminho 244" d="M48.2,518.533l493.249,64.254,566.573-31.939,46.679,3.025m0-51.594-106.02-2.457-303.318-.566L48.2,501.145" transform="translate(750.802 2361.971)" fill="none" stroke="#202f41" stroke-linecap="round" stroke-linejoin="round" stroke-width="0.397"/>
      <path id="Caminho_246" data-name="Caminho 246" d="M503.369,599.985l-1.323,57.074L955.8,579.387m0,40.632L238.225,772.527,227.643,774.8l-1.891-136.825,10.962-1.512L255.423,634l247.946-34.017" transform="translate(949.703 2451.736)" fill="none" stroke="#202f41" stroke-linecap="round" stroke-linejoin="round" stroke-width="0.397"/>
      <path id="Caminho_278" data-name="Caminho 278" d="M48.2,551.042,424.653,669.724l1.89,136.824L48.2,627.392" transform="translate(750.802 2419.984)" fill="none" stroke="#202f41" stroke-linecap="round" stroke-linejoin="round" stroke-width="0.397"/>
      <path id="Caminho_247" data-name="Caminho 247" d="M238.053,748.224l.377,65.011,140.414-35.152,430.882-107.72,16.442,3.023,40.63-10.393.38-8.5,74.838-17.954m0-37.984L238.053,748.224" transform="translate(963.483 2473.204)" fill="none" stroke="#202f41" stroke-linecap="round" stroke-linejoin="round" stroke-width="0.397"/>
      <path id="Caminho_288" data-name="Caminho 288" d="M95.35,609.336l.567,31.749,31.371,17.764,4.914-1.323-.378-30.8Z" transform="translate(803.623 2485.286)" fill="none" stroke="#202f41" stroke-linecap="round" stroke-linejoin="round" stroke-width="0.397"/>
      <path id="Caminho_245" data-name="Caminho 245" d="M894.088,526.613l-46.679-3.024L280.837,555.528l.378,76.349,150.431,29.67,383.447-51.593,79,8.882" transform="translate(1011.411 2389.23)" fill="none" stroke="#202f41" stroke-linecap="round" stroke-linejoin="round" stroke-width="0.397"/>
      <path id="Caminho_269" data-name="Caminho 269" d="M48.2,586.02l154.966-7.37,338.658,70.3-.378-76.349L48.2,508.348" transform="translate(750.802 2372.156)" fill="none" stroke="#202f41" stroke-linecap="round" stroke-linejoin="round" stroke-width="0.397"/>
      <path id="Caminho_242" data-name="Caminho 242" d="M387.647,459.7l111.689-3.4,175.188,11.339-1.134,23.812-2.646,56.506-175.377-.378-109.8-.189Z" transform="translate(1128.735 2313.843)" fill="none" stroke="#202f41" stroke-linecap="round" stroke-linejoin="round" stroke-width="0.397"/>
      <path id="Caminho_243" data-name="Caminho 243" d="M386.192,470.5l110.744-.567,175.754,6.8" transform="translate(1129.434 2329.121)" fill="none" stroke="#202f41" stroke-linecap="round" stroke-linejoin="round" stroke-width="0.397"/>
      <line id="Linha_216" data-name="Linha 216" y1="91.279" x2="3.969" transform="translate(1624.103 2770.137)" fill="none" stroke="#202f41" stroke-linecap="round" stroke-linejoin="round" stroke-width="0.397"/>
      <path id="Caminho_279" data-name="Caminho 279" d="M420.118,677.257v6.615l1.134,97.138L48.2,613.381m0-58.773,371.92,122.649" transform="translate(750.802 2423.978)" fill="none" stroke="#202f41" stroke-linecap="round" stroke-linejoin="round" stroke-width="0.397"/>
      <line id="Linha_310" data-name="Linha 310" x2="43.277" y2="11.528" transform="translate(799.001 2944.569)" fill="none" stroke="#202f41" stroke-linecap="round" stroke-linejoin="round" stroke-width="0.397"/>
      <line id="Linha_315" data-name="Linha 315" x1="21.922" y2="15.119" transform="translate(799.001 2932.474)" fill="none" stroke="#202f41" stroke-linecap="round" stroke-linejoin="round" stroke-width="0.397"/>
      <line id="Linha_313" data-name="Linha 313" x1="27.025" y2="18.709" transform="translate(806.182 2935.498)" fill="none" stroke="#202f41" stroke-linecap="round" stroke-linejoin="round" stroke-width="0.397"/>
      <line id="Linha_308" data-name="Linha 308" x1="19.465" y2="13.796" transform="translate(834.152 2940.033)" fill="none" stroke="#202f41" stroke-linecap="round" stroke-linejoin="round" stroke-width="0.397"/>
      <line id="Linha_303" data-name="Linha 303" x1="14.552" y2="10.016" transform="translate(861.176 2945.136)" fill="none" stroke="#202f41" stroke-linecap="round" stroke-linejoin="round" stroke-width="0.397"/>
      <line id="Linha_302" data-name="Linha 302" x1="4.914" y2="3.591" transform="translate(895.193 2950.049)" fill="none" stroke="#202f41" stroke-linecap="round" stroke-linejoin="round" stroke-width="0.397"/>
      <path id="Caminho_250" data-name="Caminho 250" d="M347.954,507.219l.189-16.253,63.12.945-.189,16.63" transform="translate(1086.598 2352.686)" fill="none" stroke="#202f41" stroke-linecap="round" stroke-linejoin="round" stroke-width="0.397"/>
      <path id="Caminho_251" data-name="Caminho 251" d="M416.056,502.932l-33.828-19.655c-5.669-3.023-6.8-2.644-11.528-.189l-27.024,13.8" transform="translate(1081.806 2341.664)" fill="none" stroke="#202f41" stroke-linecap="round" stroke-linejoin="round" stroke-width="0.397"/>
      <path id="Caminho_257" data-name="Caminho 257" d="M312.122,497.823l26.458-14.929c6.615-3.214,8.5-3.4,15.119.378l34.583,19.466" transform="translate(1046.458 2340.915)" fill="none" stroke="#202f41" stroke-linecap="round" stroke-linejoin="round" stroke-width="0.397"/>
      <path id="Caminho_263" data-name="Caminho 263" d="M276.113,498.081l33.071-16.631c5.1-2.269,5.1-2.457,10.962.377l39.118,21.923" transform="translate(1006.119 2340.091)" fill="none" stroke="#202f41" stroke-linecap="round" stroke-linejoin="round" stroke-width="0.397"/>
      <path id="Caminho_270" data-name="Caminho 270" d="M234.4,503.409l45.356-23.624c3.212-1.7,3.78-1.7,6.993,0l42.9,25.135" transform="translate(959.389 2338.732)" fill="none" stroke="#202f41" stroke-linecap="round" stroke-linejoin="round" stroke-width="0.397"/>
      <path id="Caminho_275" data-name="Caminho 275" d="M211.58,502.692l40.064-21.166,3.214-1.889c3.4-1.323,3.778-.946,6.613.377l20.221,11.719" transform="translate(933.828 2339.07)" fill="none" stroke="#202f41" stroke-linecap="round" stroke-linejoin="round" stroke-width="0.397"/>
      <path id="Caminho_280" data-name="Caminho 280" d="M208.193,494.229l23.624-12.094a4.827,4.827,0,0,1,5.669.189l5.669,2.835" transform="translate(930.033 2341.864)" fill="none" stroke="#202f41" stroke-linecap="round" stroke-linejoin="round" stroke-width="0.397"/>
      <path id="Caminho_274" data-name="Caminho 274" d="M241.172,483.853l2.835-1.321a3.427,3.427,0,0,1,3.78,0l6.236,2.835" transform="translate(966.977 2342.601)" fill="none" stroke="#202f41" stroke-linecap="round" stroke-linejoin="round" stroke-width="0.397"/>
      <path id="Caminho_268" data-name="Caminho 268" d="M263.456,484.221l10.2-3.592c3.778-1.323,3.778-1.889,7.936.189l21.166,11.339" transform="translate(991.941 2339.777)" fill="none" stroke="#202f41" stroke-linecap="round" stroke-linejoin="round" stroke-width="0.397"/>
      <path id="Caminho_264" data-name="Caminho 264" d="M299.644,484.236l5.292-2.269c3.967-1.512,3.967-2.646,9.636.377L334.6,492.929" transform="translate(1032.48 2340.897)" fill="none" stroke="#202f41" stroke-linecap="round" stroke-linejoin="round" stroke-width="0.397"/>
      <path id="Caminho_258" data-name="Caminho 258" d="M332.356,483.239l1.7-.943c2.646-1.512,3.024-1.512,5.858,0l22.867,11.15" transform="translate(1069.125 2341.702)" fill="none" stroke="#202f41" stroke-linecap="round" stroke-linejoin="round" stroke-width="0.397"/>
      <path id="Caminho_259" data-name="Caminho 259" d="M384.688,490.967l-69.357.189V508.92" transform="translate(1050.053 2352.686)" fill="none" stroke="#202f41" stroke-linecap="round" stroke-linejoin="round" stroke-width="0.397"/>
      <line id="Linha_263" data-name="Linha 263" x2="76.349" y2="0.189" transform="translate(1289.035 2843.652)" fill="none" stroke="#202f41" stroke-linecap="round" stroke-linejoin="round" stroke-width="0.397"/>
      <path id="Caminho_271" data-name="Caminho 271" d="M235.211,510.685l-.189-20.788,93.925,2.268v18.142" transform="translate(960.088 2351.487)" fill="none" stroke="#202f41" stroke-linecap="round" stroke-linejoin="round" stroke-width="0.397"/>
      <path id="Caminho_281" data-name="Caminho 281" d="M211.491,510.485l.189-20.41h0l48.38.378" transform="translate(933.728 2351.687)" fill="none" stroke="#202f41" stroke-linecap="round" stroke-linejoin="round" stroke-width="0.397"/>
      <path id="Caminho_282" data-name="Caminho 282" d="M208.382,513.481l-.189-26.08,14.741,1.7" transform="translate(930.033 2348.691)" fill="none" stroke="#202f41" stroke-linecap="round" stroke-linejoin="round" stroke-width="0.397"/>
      <line id="Linha_316" data-name="Linha 316" x2="0.756" y2="27.97" transform="translate(817.332 3056.069)" fill="none" stroke="#202f41" stroke-linecap="round" stroke-linejoin="round" stroke-width="0.397"/>
      <line id="Linha_317" data-name="Linha 317" x2="0.378" y2="23.623" transform="translate(823.569 3058.904)" fill="none" stroke="#202f41" stroke-linecap="round" stroke-linejoin="round" stroke-width="0.397"/>
      <line id="Linha_311" data-name="Linha 311" x2="0.756" y2="30.237" transform="translate(836.042 3064.951)" fill="none" stroke="#202f41" stroke-linecap="round" stroke-linejoin="round" stroke-width="0.397"/>
      <line id="Linha_312" data-name="Linha 312" x2="0.378" y2="24.379" transform="translate(842.845 3068.164)" fill="none" stroke="#202f41" stroke-linecap="round" stroke-linejoin="round" stroke-width="0.397"/>
      <line id="Linha_309" data-name="Linha 309" x1="0.378" y1="30.615" transform="translate(856.83 3074.59)" fill="none" stroke="#202f41" stroke-linecap="round" stroke-linejoin="round" stroke-width="0.397"/>
      <line id="Linha_307" data-name="Linha 307" y1="26.269" transform="translate(862.499 3077.424)" fill="none" stroke="#202f41" stroke-linecap="round" stroke-linejoin="round" stroke-width="0.397"/>
      <line id="Linha_304" data-name="Linha 304" x1="0.378" y1="32.505" transform="translate(878.374 3084.983)" fill="none" stroke="#202f41" stroke-linecap="round" stroke-linejoin="round" stroke-width="0.397"/>
      <line id="Linha_305" data-name="Linha 305" x1="0.378" y1="27.781" transform="translate(884.799 3088.007)" fill="none" stroke="#202f41" stroke-linecap="round" stroke-linejoin="round" stroke-width="0.397"/>
      <path id="Caminho_291" data-name="Caminho 291" d="M66.025,611a6.533,6.533,0,0,0,6.426-2.646" transform="translate(770.772 2484.188)" fill="none" stroke="#202f41" stroke-linecap="round" stroke-linejoin="round" stroke-width="0.397"/>
      <path id="Caminho_292" data-name="Caminho 292" d="M57.2,605.143c2.078.946,3.969.38,5.858-1.512" transform="translate(760.887 2478.895)" fill="none" stroke="#202f41" stroke-linecap="round" stroke-linejoin="round" stroke-width="0.397"/>
      <path id="Caminho_254" data-name="Caminho 254" d="M373.179,496.725s24.756-15.117,25.89-15.117l1.134.189" transform="translate(1114.856 2342.202)" fill="none" stroke="#202f41" stroke-linecap="round" stroke-linejoin="round" stroke-width="0.397"/>
      <line id="Linha_237" data-name="Linha 237" x1="16.82" y1="0.378" transform="translate(1497.862 2844.597)" fill="none" stroke="#202f41" stroke-linecap="round" stroke-linejoin="round" stroke-width="0.397"/>
      <path id="Caminho_255" data-name="Caminho 255" d="M48.2,606.127l72.76,41.387c37.986,21.923,58.4,40.821,40.064,61.421-15.119,17.008-25.89,24.944-37.8,45.733-6.8,12.094-8.313,24.944-2.644,37.8,4.156,9.073,16.629,21.357,29.859,33.073m553.719,0L687.53,817.6,1154.7,679.073" transform="translate(750.802 2481.692)" fill="none" stroke="#202f41" stroke-linecap="round" stroke-linejoin="round" stroke-width="0.397"/>
      <path id="Caminho_277" data-name="Caminho 277" d="M250.009,739.892l-18.9,3.969L230.922,607.6l18.709-2.457Z" transform="translate(955.495 2480.593)" fill="#202f41" stroke="#202f41" stroke-miterlimit="10" stroke-width="0.567" fill-rule="evenodd"/>
      <path id="Caminho_273" data-name="Caminho 273" d="M291.7,729.965l-34.206,7.37-.189-132.1,35.151-4.725Z" transform="translate(985.051 2475.401)" fill="#202f41" stroke="#202f41" stroke-miterlimit="10" stroke-width="0.567" fill-rule="evenodd"/>
      <path id="Caminho_267" data-name="Caminho 267" d="M304.947,722.977l-14.741,3.213-.189-126.808,15.5-2.079Z" transform="translate(1021.696 2471.806)" fill="#202f41" stroke="#202f41" stroke-miterlimit="10" stroke-width="0.567" fill-rule="evenodd"/>
      <path id="Caminho_265" data-name="Caminho 265" d="M320.1,718.57l-14.741,3.024-.189-124.162,15.5-2.268Z" transform="translate(1038.67 2469.41)" fill="#202f41" stroke="#202f41" stroke-miterlimit="10" stroke-width="0.567" fill-rule="evenodd"/>
      <path id="Caminho_262" data-name="Caminho 262" d="M341.2,712.227l-14.552,3.213L328.163,594.3l14.741-2.079Z" transform="translate(1062.734 2466.115)" fill="#202f41" stroke="#202f41" stroke-miterlimit="10" stroke-width="0.567" fill-rule="evenodd"/>
      <path id="Caminho_260" data-name="Caminho 260" d="M355.108,708.087l-14.552,3.024,1.323-118.871,14.93-1.89Z" transform="translate(1078.311 2464.018)" fill="#202f41" stroke="#202f41" stroke-miterlimit="10" stroke-width="0.567" fill-rule="evenodd"/>
      <line id="Linha_268" data-name="Linha 268" x2="371.919" y2="123.406" transform="translate(799.001 2981.231)" fill="none" stroke="#202f41" stroke-miterlimit="10" stroke-width="0.227"/>
      <line id="Linha_269" data-name="Linha 269" x2="372.108" y2="128.131" transform="translate(799.001 2984.823)" fill="none" stroke="#202f41" stroke-miterlimit="10" stroke-width="0.227"/>
      <line id="Linha_270" data-name="Linha 270" x1="372.108" y1="130.021" transform="translate(799.001 2988.224)" fill="none" stroke="#202f41" stroke-miterlimit="10" stroke-width="0.227"/>
      <line id="Linha_271" data-name="Linha 271" x2="372.108" y2="131.91" transform="translate(799.001 2991.248)" fill="none" stroke="#202f41" stroke-miterlimit="10" stroke-width="0.227"/>
      <line id="Linha_272" data-name="Linha 272" x1="372.297" y1="134.745" transform="translate(799.001 2993.893)" fill="none" stroke="#202f41" stroke-miterlimit="10" stroke-width="0.227"/>
      <line id="Linha_273" data-name="Linha 273" x2="372.297" y2="136.824" transform="translate(799.001 2996.728)" fill="none" stroke="#202f41" stroke-miterlimit="10" stroke-width="0.227"/>
      <line id="Linha_274" data-name="Linha 274" x1="372.297" y1="139.281" transform="translate(799.001 2999.563)" fill="none" stroke="#202f41" stroke-miterlimit="10" stroke-width="0.227"/>
      <line id="Linha_275" data-name="Linha 275" x2="372.486" y2="141.359" transform="translate(799.001 3002.587)" fill="none" stroke="#202f41" stroke-miterlimit="10" stroke-width="0.227"/>
      <line id="Linha_276" data-name="Linha 276" x1="372.486" y1="143.816" transform="translate(799.001 3005.611)" fill="none" stroke="#202f41" stroke-miterlimit="10" stroke-width="0.227"/>
      <line id="Linha_277" data-name="Linha 277" x2="372.486" y2="145.895" transform="translate(799.001 3008.445)" fill="none" stroke="#202f41" stroke-miterlimit="10" stroke-width="0.227"/>
      <line id="Linha_278" data-name="Linha 278" x1="372.675" y1="148.541" transform="translate(799.001 3010.902)" fill="none" stroke="#202f41" stroke-miterlimit="10" stroke-width="0.227"/>
      <line id="Linha_279" data-name="Linha 279" x2="372.675" y2="150.242" transform="translate(799.001 3014.115)" fill="none" stroke="#202f41" stroke-miterlimit="10" stroke-width="0.227"/>
      <line id="Linha_280" data-name="Linha 280" x1="372.675" y1="152.51" transform="translate(799.001 3017.327)" fill="none" stroke="#202f41" stroke-miterlimit="10" stroke-width="0.227"/>
      <line id="Linha_281" data-name="Linha 281" x2="372.864" y2="154.777" transform="translate(799.001 3020.351)" fill="none" stroke="#202f41" stroke-miterlimit="10" stroke-width="0.227"/>
      <line id="Linha_282" data-name="Linha 282" x1="372.864" y1="157.612" transform="translate(799.001 3022.619)" fill="none" stroke="#202f41" stroke-miterlimit="10" stroke-width="0.227"/>
      <line id="Linha_283" data-name="Linha 283" x2="372.864" y2="159.691" transform="translate(799.001 3025.832)" fill="none" stroke="#202f41" stroke-miterlimit="10" stroke-width="0.227"/>
      <line id="Linha_284" data-name="Linha 284" x1="373.053" y1="161.77" transform="translate(799.001 3028.855)" fill="none" stroke="#202f41" stroke-miterlimit="10" stroke-width="0.227"/>
      <line id="Linha_285" data-name="Linha 285" x2="373.053" y2="164.227" transform="translate(799.001 3032.257)" fill="none" stroke="#202f41" stroke-miterlimit="10" stroke-width="0.227"/>
      <line id="Linha_246" data-name="Linha 246" x1="1.89" y2="61.798" transform="translate(1529.044 2799.619)" fill="none" stroke="#202f41" stroke-miterlimit="10" stroke-width="0.227"/>
      <line id="Linha_231" data-name="Linha 231" x1="1.701" y2="61.987" transform="translate(1541.139 2799.43)" fill="none" stroke="#202f41" stroke-miterlimit="10" stroke-width="0.227"/>
      <line id="Linha_230" data-name="Linha 230" x1="1.512" y2="61.987" transform="translate(1554.368 2799.43)" fill="none" stroke="#202f41" stroke-miterlimit="10" stroke-width="0.227"/>
      <line id="Linha_228" data-name="Linha 228" x1="1.89" y2="61.987" transform="translate(1567.785 2799.43)" fill="none" stroke="#202f41" stroke-miterlimit="10" stroke-width="0.227"/>
      <line id="Linha_226" data-name="Linha 226" x1="2.268" y2="62.176" transform="translate(1583.282 2799.24)" fill="none" stroke="#202f41" stroke-miterlimit="10" stroke-width="0.227"/>
      <line id="Linha_227" data-name="Linha 227" x1="2.079" y2="62.176" transform="translate(1596.889 2799.24)" fill="none" stroke="#202f41" stroke-miterlimit="10" stroke-width="0.227"/>
      <line id="Linha_218" data-name="Linha 218" x1="2.457" y2="62.365" transform="translate(1610.874 2799.052)" fill="none" stroke="#202f41" stroke-miterlimit="10" stroke-width="0.227"/>
      <line id="Linha_214" data-name="Linha 214" x1="3.213" y2="62.176" transform="translate(1637.142 2799.43)" fill="none" stroke="#202f41" stroke-miterlimit="10" stroke-width="0.227"/>
      <line id="Linha_215" data-name="Linha 215" x1="2.646" y2="61.609" transform="translate(1650.749 2799.997)" fill="none" stroke="#202f41" stroke-miterlimit="10" stroke-width="0.227"/>
      <line id="Linha_202" data-name="Linha 202" x1="2.079" y2="61.042" transform="translate(1663.6 2800.564)" fill="none" stroke="#202f41" stroke-miterlimit="10" stroke-width="0.227"/>
      <line id="Linha_203" data-name="Linha 203" x1="2.268" y2="60.475" transform="translate(1678.152 2801.13)" fill="none" stroke="#202f41" stroke-miterlimit="10" stroke-width="0.227"/>
      <line id="Linha_264" data-name="Linha 264" x1="0.756" y2="92.98" transform="translate(1358.392 2940.978)" fill="none" stroke="#202f41" stroke-miterlimit="10" stroke-width="0.567"/>
      <line id="Linha_262" data-name="Linha 262" x1="1.323" y2="107.721" transform="translate(1416.221 2937.766)" fill="none" stroke="#202f41" stroke-miterlimit="10" stroke-width="0.567"/>
      <line id="Linha_247" data-name="Linha 247" x1="2.835" y2="112.445" transform="translate(1470.27 2934.553)" fill="none" stroke="#202f41" stroke-miterlimit="10" stroke-width="0.567"/>
      <line id="Linha_248" data-name="Linha 248" x1="2.268" y2="108.476" transform="translate(1521.674 2931.718)" fill="none" stroke="#202f41" stroke-miterlimit="10" stroke-width="0.567"/>
      <line id="Linha_229" data-name="Linha 229" x1="3.024" y2="104.886" transform="translate(1567.974 2929.072)" fill="none" stroke="#202f41" stroke-miterlimit="10" stroke-width="0.567"/>
      <line id="Linha_219" data-name="Linha 219" x1="2.835" y2="101.295" transform="translate(1612.764 2926.615)" fill="none" stroke="#202f41" stroke-miterlimit="10" stroke-width="0.567"/>
      <line id="Linha_220" data-name="Linha 220" x1="3.402" y2="98.271" transform="translate(1653.584 2924.159)" fill="none" stroke="#202f41" stroke-miterlimit="10" stroke-width="0.567"/>
      <line id="Linha_265" data-name="Linha 265" x2="0.378" y2="72.381" transform="translate(1241.789 2938.143)" fill="none" stroke="#202f41" stroke-miterlimit="10" stroke-width="0.567"/>
      <line id="Linha_267" data-name="Linha 267" x1="0.756" y2="68.979" transform="translate(1200.969 2933.041)" fill="none" stroke="#202f41" stroke-miterlimit="10" stroke-width="0.567"/>
      <line id="Linha_288" data-name="Linha 288" x1="0.756" y2="64.821" transform="translate(1147.486 2926.049)" fill="none" stroke="#202f41" stroke-miterlimit="10" stroke-width="0.567"/>
      <line id="Linha_290" data-name="Linha 290" x2="1.134" y2="63.12" transform="translate(1099.673 2919.623)" fill="none" stroke="#202f41" stroke-miterlimit="10" stroke-width="0.567"/>
      <line id="Linha_293" data-name="Linha 293" x1="0.189" y2="58.018" transform="translate(1057.341 2914.143)" fill="none" stroke="#202f41" stroke-miterlimit="10" stroke-width="0.567"/>
      <line id="Linha_294" data-name="Linha 294" x2="1.134" y2="55.372" transform="translate(1019.356 2909.229)" fill="none" stroke="#202f41" stroke-miterlimit="10" stroke-width="0.567"/>
      <line id="Linha_297" data-name="Linha 297" x2="0.945" y2="52.537" transform="translate(984.205 2904.693)" fill="none" stroke="#202f41" stroke-miterlimit="10" stroke-width="0.567"/>
      <line id="Linha_299" data-name="Linha 299" x2="1.134" y2="50.27" transform="translate(952.833 2900.536)" fill="none" stroke="#202f41" stroke-miterlimit="10" stroke-width="0.567"/>
      <line id="Linha_301" data-name="Linha 301" y2="55.372" transform="translate(923.541 2896.756)" fill="none" stroke="#202f41" stroke-miterlimit="10" stroke-width="0.567"/>
      <line id="Linha_306" data-name="Linha 306" y2="64.065" transform="translate(875.161 2890.52)" fill="none" stroke="#202f41" stroke-miterlimit="10" stroke-width="0.567"/>
      <line id="Linha_314" data-name="Linha 314" x1="0.756" y2="68.412" transform="translate(832.073 2884.85)" fill="none" stroke="#202f41" stroke-miterlimit="10" stroke-width="0.567"/>
      <path id="Caminho_248" data-name="Caminho 248" d="M434.847,652.02l156.478-34.4-.567,9.638-156.667,36.1-19.465-4.725.189-11.339Z" transform="translate(1161.286 2494.572)" fill="none" stroke="#202f41" stroke-linecap="round" stroke-linejoin="round" stroke-width="0.397"/>
      <path id="Caminho_249" data-name="Caminho 249" d="M508.248,619.384l17.764,3.591,40.253-9.449-1.512,32.694-40.632,10.394-16.441-3.024Z" transform="translate(1265.529 2489.979)" fill="none" stroke="#202f41" stroke-linecap="round" stroke-linejoin="round" stroke-width="0.397"/>
      <path id="Caminho_285" data-name="Caminho 285" d="M151.771,636.076l.945,40.254,39.875,19.654,3.969-1.512.378-37.041Z" transform="translate(866.828 2515.241)" fill="none" stroke="#202f41" stroke-linecap="round" stroke-linejoin="round" stroke-width="0.397"/>
      <path id="Caminho_276" data-name="Caminho 276" d="M241.726,734.155l-6.425-3.213-.189-60.475,6.236-1.323Z" transform="translate(960.188 2552.285)" fill="none" stroke="#202f41" stroke-linecap="round" stroke-linejoin="round" stroke-width="0.397"/>
      <path id="Caminho_284" data-name="Caminho 284" d="M189.585,695.2l3.213,2.457,3.213-1.134.189-39.5-6.992-3.213Z" transform="translate(908.765 2535.111)" fill="none" stroke="#202f41" stroke-linecap="round" stroke-linejoin="round" stroke-width="0.397"/>
      <path id="Caminho_283" data-name="Caminho 283" d="M211.512,708.464l3.024,1.89,4.158-1.7-.189-41.01-7.37-3.4Z" transform="translate(933.328 2546.794)" fill="none" stroke="#202f41" stroke-linecap="round" stroke-linejoin="round" stroke-width="0.397"/>
      <line id="Linha_289" data-name="Linha 289" x1="0.189" y1="42.143" transform="translate(1101.374 3190.625)" fill="none" stroke="#202f41" stroke-linecap="round" stroke-linejoin="round" stroke-width="0.397"/>
      <line id="Linha_286" data-name="Linha 286" y1="44.411" x2="0.378" transform="translate(1147.864 3212.736)" fill="none" stroke="#202f41" stroke-linecap="round" stroke-linejoin="round" stroke-width="0.397"/>
      <line id="Linha_292" data-name="Linha 292" x1="0.567" y1="40.82" transform="translate(1058.853 3170.404)" fill="none" stroke="#202f41" stroke-linecap="round" stroke-linejoin="round" stroke-width="0.397"/>
      <line id="Linha_300" data-name="Linha 300" x1="0.567" y1="34.584" transform="translate(930.344 3109.551)" fill="none" stroke="#202f41" stroke-linecap="round" stroke-linejoin="round" stroke-width="0.397"/>
      <line id="Linha_217" data-name="Linha 217" x1="5.292" y2="89.389" transform="translate(1853.528 2912.819)" fill="none" stroke="#202f41" stroke-linecap="round" stroke-linejoin="round" stroke-width="0.397"/>
      <line id="Linha_232" data-name="Linha 232" x1="17.386" y1="4.347" transform="translate(1735.225 3107.851)" fill="none" stroke="#202f41" stroke-linecap="round" stroke-linejoin="round" stroke-width="0.397"/>
      <path id="Caminho_252" data-name="Caminho 252" d="M526.31,621.774l19.087,2.835,40.821-9.071.567-9.071-18.142-2.835" transform="translate(1286.398 2478.896)" fill="none" stroke="#202f41" stroke-linecap="round" stroke-linejoin="round" stroke-width="0.397"/>
      <path id="Caminho_253" data-name="Caminho 253" d="M528.449,611.2l14.93,2.835,41.01-9.071" transform="translate(1288.794 2480.393)" fill="none" stroke="#202f41" stroke-linecap="round" stroke-linejoin="round" stroke-width="0.397"/>
      <line id="Linha_233" data-name="Linha 233" y1="9.638" x2="0.378" transform="translate(1831.795 3093.866)" fill="none" stroke="#202f41" stroke-linecap="round" stroke-linejoin="round" stroke-width="0.397"/>
      <line id="Linha_234" data-name="Linha 234" y1="9.26" x2="0.189" transform="translate(1812.708 3091.409)" fill="none" stroke="#202f41" stroke-linecap="round" stroke-linejoin="round" stroke-width="0.397"/>
      <path id="Caminho_287" data-name="Caminho 287" d="M122.179,622.082l.568,35.34c2.835,1.134,5.1.755,6.993-1.134" transform="translate(833.678 2499.564)" fill="none" stroke="#202f41" stroke-linecap="round" stroke-linejoin="round" stroke-width="0.397"/>
      <line id="Linha_298" data-name="Linha 298" x1="0.378" y1="30.804" transform="translate(963.039 3125.048)" fill="none" stroke="#202f41" stroke-linecap="round" stroke-linejoin="round" stroke-width="0.397"/>
      <line id="Linha_296" data-name="Linha 296" x1="0.378" y1="36.663" transform="translate(986.662 3136.198)" fill="none" stroke="#202f41" stroke-linecap="round" stroke-linejoin="round" stroke-width="0.397"/>
      <line id="Linha_295" data-name="Linha 295" x1="0.378" y1="32.505" transform="translate(994.032 3139.789)" fill="none" stroke="#202f41" stroke-linecap="round" stroke-linejoin="round" stroke-width="0.397"/>
      <line id="Linha_291" data-name="Linha 291" x2="34.962" y2="18.142" transform="translate(1063.389 3209.712)" fill="none" stroke="#202f41" stroke-linecap="round" stroke-linejoin="round" stroke-width="0.397"/>
      <line id="Linha_287" data-name="Linha 287" x2="40.064" y2="20.41" transform="translate(1104.776 3231.635)" fill="none" stroke="#202f41" stroke-linecap="round" stroke-linejoin="round" stroke-width="0.397"/>
      <line id="Linha_266" data-name="Linha 266" x2="43.466" y2="22.867" transform="translate(1152.022 3255.447)" fill="none" stroke="#202f41" stroke-linecap="round" stroke-linejoin="round" stroke-width="0.397"/>
      <line id="Linha_235" data-name="Linha 235" x1="1.89" y2="33.639" transform="translate(1789.652 3112.953)" fill="none" stroke="#202f41" stroke-linecap="round" stroke-linejoin="round" stroke-width="0.397"/>
      <line id="Linha_236" data-name="Linha 236" y1="8.693" x2="38.931" transform="translate(1773.777 3100.669)" fill="none" stroke="#202f41" stroke-linecap="round" stroke-linejoin="round" stroke-width="0.397"/>
      <line id="Linha_249" data-name="Linha 249" y1="38.553" transform="translate(1577.991 3153.773)" fill="none" stroke="#202f41" stroke-linecap="round" stroke-linejoin="round" stroke-width="0.397"/>
      <path id="Caminho_266" data-name="Caminho 266" d="M304.457,708.589l.378-44.222,15.5-3.78-.756,44.222" transform="translate(1037.871 2542.7)" fill="none" stroke="#202f41" stroke-linecap="round" stroke-linejoin="round" stroke-width="0.397"/>
      <path id="Caminho_272" data-name="Caminho 272" d="M273.8,716.654l.189-44.978,15.5-3.78-.378,44.978" transform="translate(1003.523 2550.887)" fill="none" stroke="#202f41" stroke-linecap="round" stroke-linejoin="round" stroke-width="0.397"/>
      <path id="Caminho_261" data-name="Caminho 261" d="M332.8,700.749l.567-42.71,15.308-3.78-.567,42.521" transform="translate(1069.624 2535.61)" fill="none" stroke="#202f41" stroke-linecap="round" stroke-linejoin="round" stroke-width="0.397"/>
      <path id="Caminho_286" data-name="Caminho 286" d="M136.886,646.536a9.185,9.185,0,0,0,7.37-.566" transform="translate(850.153 2526.325)" fill="none" stroke="#202f41" stroke-linecap="round" stroke-linejoin="round" stroke-width="0.397"/>
      <path id="Caminho_290" data-name="Caminho 290" d="M75.652,615.126a6.979,6.979,0,0,0,5.29-1.512" transform="translate(781.557 2490.079)" fill="none" stroke="#202f41" stroke-linecap="round" stroke-linejoin="round" stroke-width="0.397"/>
      <path id="Caminho_289" data-name="Caminho 289" d="M85.813,621.019a7.837,7.837,0,0,0,6.424-1.7" transform="translate(792.939 2496.469)" fill="none" stroke="#202f41" stroke-linecap="round" stroke-linejoin="round" stroke-width="0.397"/>
      <line id="Linha_250" data-name="Linha 250" x1="0.189" y2="29.481" transform="translate(1629.205 3150.183)" fill="none" stroke="#202f41" stroke-linecap="round" stroke-linejoin="round" stroke-width="0.397"/>
      <line id="Linha_251" data-name="Linha 251" y2="29.292" transform="translate(1634.119 3149.049)" fill="none" stroke="#202f41" stroke-linecap="round" stroke-linejoin="round" stroke-width="0.397"/>
      <line id="Linha_252" data-name="Linha 252" y2="30.237" transform="translate(1598.212 3157.175)" fill="none" stroke="#202f41" stroke-linecap="round" stroke-linejoin="round" stroke-width="0.397"/>
      <line id="Linha_253" data-name="Linha 253" y2="30.048" transform="translate(1599.724 3156.986)" fill="none" stroke="#202f41" stroke-linecap="round" stroke-linejoin="round" stroke-width="0.397"/>
      <line id="Linha_254" data-name="Linha 254" y2="29.67" transform="translate(1618.244 3152.64)" fill="none" stroke="#202f41" stroke-linecap="round" stroke-linejoin="round" stroke-width="0.397"/>
      <line id="Linha_255" data-name="Linha 255" y2="29.67" transform="translate(1620.89 3152.073)" fill="none" stroke="#202f41" stroke-linecap="round" stroke-linejoin="round" stroke-width="0.397"/>
      <line id="Linha_256" data-name="Linha 256" y2="28.914" transform="translate(1651.505 3145.08)" fill="none" stroke="#202f41" stroke-linecap="round" stroke-linejoin="round" stroke-width="0.397"/>
      <line id="Linha_257" data-name="Linha 257" y2="28.914" transform="translate(1653.017 3144.703)" fill="none" stroke="#202f41" stroke-linecap="round" stroke-linejoin="round" stroke-width="0.397"/>
      <line id="Linha_238" data-name="Linha 238" y2="28.725" transform="translate(1670.403 3140.734)" fill="none" stroke="#202f41" stroke-linecap="round" stroke-linejoin="round" stroke-width="0.397"/>
      <line id="Linha_239" data-name="Linha 239" y2="28.536" transform="translate(1672.482 3140.167)" fill="none" stroke="#202f41" stroke-linecap="round" stroke-linejoin="round" stroke-width="0.397"/>
      <line id="Linha_240" data-name="Linha 240" y2="28.914" transform="translate(1679.853 3138.466)" fill="none" stroke="#202f41" stroke-linecap="round" stroke-linejoin="round" stroke-width="0.397"/>
      <line id="Linha_241" data-name="Linha 241" y2="28.348" transform="translate(1684.388 3137.521)" fill="none" stroke="#202f41" stroke-linecap="round" stroke-linejoin="round" stroke-width="0.397"/>
      <line id="Linha_242" data-name="Linha 242" y2="28.159" transform="translate(1701.208 3133.552)" fill="none" stroke="#202f41" stroke-linecap="round" stroke-linejoin="round" stroke-width="0.397"/>
      <line id="Linha_243" data-name="Linha 243" y2="28.159" transform="translate(1703.098 3133.175)" fill="none" stroke="#202f41" stroke-linecap="round" stroke-linejoin="round" stroke-width="0.397"/>
      <line id="Linha_244" data-name="Linha 244" y2="27.592" transform="translate(1720.673 3129.206)" fill="none" stroke="#202f41" stroke-linecap="round" stroke-linejoin="round" stroke-width="0.397"/>
      <line id="Linha_245" data-name="Linha 245" y2="27.403" transform="translate(1730.122 3126.938)" fill="none" stroke="#202f41" stroke-linecap="round" stroke-linejoin="round" stroke-width="0.397"/>
      <line id="Linha_258" data-name="Linha 258" y2="54.049" transform="translate(1493.326 3159.443)" fill="none" stroke="#202f41" stroke-linecap="round" stroke-linejoin="round" stroke-width="0.397"/>
      <line id="Linha_259" data-name="Linha 259" y2="52.348" transform="translate(1543.218 3148.86)" fill="none" stroke="#202f41" stroke-linecap="round" stroke-linejoin="round" stroke-width="0.397"/>
      <path id="Caminho_256" data-name="Caminho 256" d="M375.675,651.625l22.111-5.292,27.781-6.426" transform="translate(1117.651 2519.534)" fill="none" stroke="#202f41" stroke-linecap="round" stroke-linejoin="round" stroke-width="0.397"/>
      <line id="Linha_260" data-name="Linha 260" y1="42.521" transform="translate(1514.492 3165.868)" fill="none" stroke="#202f41" stroke-linecap="round" stroke-linejoin="round" stroke-width="0.397"/>
      <line id="Linha_261" data-name="Linha 261" y2="41.954" transform="translate(1519.784 3164.923)" fill="none" stroke="#202f41" stroke-linecap="round" stroke-linejoin="round" stroke-width="0.397"/>
      <line id="Linha_204" data-name="Linha 204" x1="2.457" y2="60.097" transform="translate(1690.625 2801.508)" fill="none" stroke="#202f41" stroke-miterlimit="10" stroke-width="0.227"/>
      <line id="Linha_205" data-name="Linha 205" x1="2.268" y2="59.53" transform="translate(1703.287 2802.076)" fill="none" stroke="#202f41" stroke-miterlimit="10" stroke-width="0.227"/>
      <line id="Linha_206" data-name="Linha 206" x1="2.079" y2="58.963" transform="translate(1715.381 2802.642)" fill="none" stroke="#202f41" stroke-miterlimit="10" stroke-width="0.227"/>
      <line id="Linha_207" data-name="Linha 207" x1="2.268" y2="58.585" transform="translate(1726.343 2803.02)" fill="none" stroke="#202f41" stroke-miterlimit="10" stroke-width="0.227"/>
      <line id="Linha_208" data-name="Linha 208" x1="2.457" y2="58.207" transform="translate(1737.304 2803.398)" fill="none" stroke="#202f41" stroke-miterlimit="10" stroke-width="0.227"/>
      <line id="Linha_209" data-name="Linha 209" x1="2.268" y2="57.829" transform="translate(1747.509 2803.776)" fill="none" stroke="#202f41" stroke-miterlimit="10" stroke-width="0.227"/>
      <line id="Linha_210" data-name="Linha 210" x1="2.646" y2="57.64" transform="translate(1757.336 2804.154)" fill="none" stroke="#202f41" stroke-miterlimit="10" stroke-width="0.227"/>
      <line id="Linha_211" data-name="Linha 211" x1="2.457" y2="57.073" transform="translate(1768.108 2804.721)" fill="none" stroke="#202f41" stroke-miterlimit="10" stroke-width="0.227"/>
      <line id="Linha_212" data-name="Linha 212" x1="2.835" y2="55.75" transform="translate(1779.825 2805.099)" fill="none" stroke="#202f41" stroke-miterlimit="10" stroke-width="0.227"/>
      <line id="Linha_213" data-name="Linha 213" x1="2.646" y2="56.317" transform="translate(1790.408 2805.477)" fill="none" stroke="#202f41" stroke-miterlimit="10" stroke-width="0.227"/>
      <line id="Linha_221" data-name="Linha 221" x1="4.347" y2="95.059" transform="translate(1692.136 2922.08)" fill="none" stroke="#202f41" stroke-miterlimit="10" stroke-width="0.567"/>
      <line id="Linha_222" data-name="Linha 222" x1="3.78" y2="92.224" transform="translate(1728.61 2920.001)" fill="none" stroke="#202f41" stroke-miterlimit="10" stroke-width="0.567"/>
      <line id="Linha_223" data-name="Linha 223" x1="4.536" y2="89.578" transform="translate(1763.005 2918.111)" fill="none" stroke="#202f41" stroke-miterlimit="10" stroke-width="0.567"/>
      <line id="Linha_224" data-name="Linha 224" x1="4.158" y2="87.121" transform="translate(1795.889 2916.222)" fill="none" stroke="#202f41" stroke-miterlimit="10" stroke-width="0.567"/>
      <line id="Linha_225" data-name="Linha 225" x1="5.103" y2="84.854" transform="translate(1826.504 2914.331)" fill="none" stroke="#202f41" stroke-miterlimit="10" stroke-width="0.567"/>
    </g>
  </g>
</svg>
